SplineFontDB: 3.0
FontName: Radley
FullName: Radley
FamilyName: Radley
Weight: Book
Copyright: Copyright (c) 2010 by vernon adams. All rights reserved.
Version: 1.000
ItalicAngle: 0
UnderlinePosition: -205
UnderlineWidth: 102
Ascent: 1638
Descent: 410
sfntRevision: 0x00010000
LayerCount: 2
Layer: 0 1 "Back"  1
Layer: 1 1 "Fore"  0
NeedsXUIDChange: 1
XUID: [1021 332 469972825 5389754]
FSType: 0
OS2Version: 2
OS2_WeightWidthSlopeOnly: 0
OS2_UseTypoMetrics: 1
CreationTime: 1292240896
ModificationTime: 1292956650
PfmFamily: 17
TTFWeight: 400
TTFWidth: 5
LineGap: 50
VLineGap: 0
Panose: 2 0 5 4 8 0 0 2 0 4
OS2TypoAscent: -324
OS2TypoAOffset: 1
OS2TypoDescent: 50
OS2TypoDOffset: 1
OS2TypoLinegap: 98
OS2WinAscent: -845
OS2WinAOffset: 1
OS2WinDescent: 0
OS2WinDOffset: 1
HheadAscent: -845
HheadAOffset: 1
HheadDescent: 0
HheadDOffset: 1
OS2SubXSize: 1331
OS2SubYSize: 1433
OS2SubXOff: 0
OS2SubYOff: 286
OS2SupXSize: 1331
OS2SupYSize: 1433
OS2SupXOff: 0
OS2SupYOff: 983
OS2StrikeYSize: 102
OS2StrikeYPos: 512
OS2Vendor: 'PfEd'
OS2CodePages: 00000093.00000000
OS2UnicodeRanges: a00000af.4000004b.00000000.00000000
Lookup: 1 0 0 "'onum' Oldstyle Figures in Latin lookup 0"  {"'onum' Oldstyle Figures in Latin lookup 0 subtable" ("oldstyle" ) } ['onum' ('latn' <'dflt' > ) ]
Lookup: 4 0 0 "'dlig' Discretionary Ligatures in Latin lookup 1"  {"'dlig' Discretionary Ligatures in Latin lookup 1 subtable"  } ['dlig' ('latn' <'dflt' > ) ]
Lookup: 4 0 1 "'liga' Standard Ligatures in Latin lookup 2"  {"'liga' Standard Ligatures in Latin lookup 2 subtable"  } ['liga' ('latn' <'dflt' > ) ]
Lookup: 1 0 0 "'smcp' Lowercase to Small Capitals in Latin lookup 3"  {"'smcp' Lowercase to Small Capitals in Latin lookup 3 subtable"  } ['smcp' ('latn' <'dflt' > ) ]

StartChar: B
Encoding: 66 66 4
Width: 1342
Flags: W
HStem: 0 60<58.25 258.052 496.242 899.752> 576 66<487 878.506> 1116 60<513.876 795.168>
VStem: 272 215<68.4135 582 642 1083.16> 1012 172<743.506 986.202> 1049 216<170.44 437.814>
LayerCount: 2
Fore
SplineSet
487 130 m 2,0,1
 487 70.7692307692 487 70.7692307692 543 60 c 1,2,-1
 725 60 l 2,3,4
 882.515151515 60 882.515151515 60 965.757575758 128.675 c 128,-1,5
 1049 197.35 1049 197.35 1049 301.470180723 c 128,-1,6
 1049 405.590361446 1049 405.590361446 960.359597362 488.890980792 c 128,-1,7
 871.719194724 572.191600139 871.719194724 572.191600139 727 576 c 2,8,-1
 487 582 l 1,9,-1
 487 130 l 2,0,1
775.5 1093.5 m 0,10,11
 685 1116 685 1116 605 1116 c 128,-1,12
 525 1116 525 1116 513.5 1112.5 c 128,-1,13
 502 1109 502 1109 494.5 1098.375 c 128,-1,14
 487 1087.75 487 1087.75 487 1040 c 2,15,-1
 487 642 l 1,16,-1
 725 642 l 2,17,18
 853.64516129 642 853.64516129 642 932.822580645 708.337837838 c 128,-1,19
 1012 774.675675676 1012 774.675675676 1012 862 c 0,20,21
 1012 1034.70165746 1012 1034.70165746 775.5 1093.5 c 0,10,11
595 1176 m 2,22,23
 1184 1176 1184 1176 1184 863 c 0,24,25
 1184 773.837837838 1184 773.837837838 1106.6946447 702.800484315 c 128,-1,26
 1029.38928939 631.763130793 1029.38928939 631.763130793 895 612 c 1,27,28
 1066.81303116 594.818696884 1066.81303116 594.818696884 1165.90651558 510.483816527 c 128,-1,29
 1265 426.14893617 1265 426.14893617 1265 318 c 0,30,31
 1265 101.851851852 1265 101.851851852 973 27.5 c 0,32,33
 865 0 865 0 703 0 c 2,34,-1
 61 0 l 1,35,36
 56 10 56 10 56 22 c 128,-1,37
 56 34 56 34 72 41 c 128,-1,38
 88 48 88 48 112 50.5 c 128,-1,39
 136 53 136 53 164 55 c 0,40,41
 272 62.7142857143 272 62.7142857143 272 130 c 2,42,-1
 272 1020 l 2,43,44
 272 1079.63636364 272 1079.63636364 164.5 1107 c 2,45,-1
 113 1120.5 l 2,46,47
 57 1135.66666667 57 1135.66666667 57 1159 c 0,48,49
 57 1161 57 1161 61 1176 c 1,50,-1
 595 1176 l 2,22,23
EndSplineSet
EndChar

StartChar: C
Encoding: 67 67 5
Width: 1223
Flags: W
HStem: -28 134<564.518 918.414> 1140 62<580.95 889.16>
VStem: 90 214<368.788 838.278> 1040 86<868.625 938>
LayerCount: 2
Fore
SplineSet
1126 868 m 1,0,1
 1104 864 1104 864 1093.5 864 c 0,2,3
 1073.17241379 864 1073.17241379 864 1040 938 c 1,4,-1
 1015 996 l 2,5,6
 993.651162791 1047.59302326 993.651162791 1047.59302326 919.725581395 1093.79651163 c 128,-1,7
 845.8 1140 845.8 1140 744.9 1140 c 0,8,9
 553.41221374 1140 553.41221374 1140 428.70610687 1000.37179487 c 128,-1,10
 304 860.743589744 304 860.743589744 304 636 c 0,11,12
 304 362.099236641 304 362.099236641 437.130952381 234.049618321 c 128,-1,13
 570.261904762 106 570.261904762 106 788 106 c 0,14,15
 944.068965517 106 944.068965517 106 1122 166 c 1,16,17
 1135 166 1135 166 1135 148 c 0,18,19
 1135 141 1135 141 1130 138 c 0,20,21
 921.487804878 -28 921.487804878 -28 672.459588714 -28 c 128,-1,22
 423.431372549 -28 423.431372549 -28 256.715686275 131.421875 c 128,-1,23
 90 290.84375 90 290.84375 90 588.66203248 c 128,-1,24
 90 886.480314961 90 886.480314961 288.371287129 1044.24015748 c 128,-1,25
 486.742574257 1202 486.742574257 1202 762 1202 c 0,26,27
 940.647058824 1202 940.647058824 1202 1095 1138 c 1,28,-1
 1126 868 l 1,0,1
EndSplineSet
EndChar

StartChar: D
Encoding: 68 68 6
Width: 1420
Flags: W
HStem: 0 62<58.8477 260.372 487.922 824.452> 1112 64<487 820.266>
VStem: 272 215<77 1083.63> 1114 215<350.885 825.61>
LayerCount: 2
Fore
SplineSet
61 0 m 1,0,1
 56 10 56 10 56 22 c 128,-1,2
 56 34 56 34 72 41 c 128,-1,3
 88 48 88 48 112 50.5 c 128,-1,4
 136 53 136 53 164 55 c 0,5,6
 272 62.7142857143 272 62.7142857143 272 130 c 2,7,-1
 272 1020 l 2,8,9
 272 1081.09090909 272 1081.09090909 164.5 1106.5 c 0,10,11
 98.0019267823 1122.2177264 98.0019267823 1122.2177264 77.5009633911 1133.1088632 c 128,-1,12
 57 1144 57 1144 57 1159 c 0,13,14
 57 1161 57 1161 61 1176 c 1,15,-1
 595 1176 l 2,16,17
 1118.44545455 1176 1118.44545455 1176 1276 849 c 0,18,19
 1329 739 1329 739 1329 597 c 0,20,21
 1329 322.119760479 1329 322.119760479 1153.20261438 161.05988024 c 128,-1,22
 977.405228758 4.26325641456e-14 977.405228758 4.26325641456e-14 700 0 c 2,23,-1
 61 0 l 1,0,1
487 1112 m 1,24,-1
 487 77 l 1,25,-1
 546 69 l 1,26,27
 606.666666667 62 606.666666667 62 672.833333333 62 c 128,-1,28
 739 62 739 62 803.5 84 c 128,-1,29
 868 106 868 106 918.5 142.5 c 0,30,31
 1013.44940435 211.126797207 1013.44940435 211.126797207 1063.72470218 323.19881527 c 128,-1,32
 1114 435.270833333 1114 435.270833333 1114 546 c 0,33,34
 1114 1112 1114 1112 615 1112 c 2,35,-1
 487 1112 l 1,24,-1
EndSplineSet
EndChar

StartChar: E
Encoding: 69 69 7
Width: 1326
Flags: W
HStem: -23 21G<1194 1202> 0 55<490.873 1074.63> 0 49.5<66.9531 241.072> 584 59<485 917.771> 874 21G<1174 1188> 1131 45<495.491 1067.01> 1176 20G<1146.33 1209>
VStem: 270 215<66.3906 584 643 1085.09> 1138.5 70.5<875.424 1059.35>
LayerCount: 2
Fore
SplineSet
1230 342 m 1,0,-1
 1234 341 l 1,1,-1
 1206 -18 l 2,2,3
 1206 -23 1206 -23 1198 -23 c 128,-1,4
 1190 -23 1190 -23 1184 -20 c 256,5,6
 1164 -10 1164 -10 1109 -5 c 128,-1,7
 1054 0 1054 0 1039 0 c 2,8,-1
 70 0 l 2,9,10
 65 0 65 0 65 15 c 128,-1,11
 65 30 65 30 80 38 c 128,-1,12
 95 46 95 46 118 49.5 c 128,-1,13
 141 53 141 53 167.5 54.5 c 0,14,15
 270 60.3018867925 270 60.3018867925 270 130 c 2,16,-1
 270 1020 l 2,17,18
 270 1081.7037037 270 1081.7037037 167 1106.5 c 128,-1,19
 64 1131.2962963 64 1131.2962963 64 1155.5 c 0,20,21
 64 1167 64 1167 70 1176 c 1,22,-1
 1046 1176 l 2,23,24
 1099.66666667 1176 1099.66666667 1176 1193 1196 c 1,25,-1
 1209 1188 l 1,26,-1
 1209 880 l 1,27,28
 1195 874 1195 874 1181 874 c 128,-1,29
 1167 874 1167 874 1156.5 892 c 128,-1,30
 1146 910 1146 910 1138.5 937 c 128,-1,31
 1131 964 1131 964 1124 996 c 0,32,33
 1096.94649805 1119.67315175 1096.94649805 1119.67315175 1020 1129 c 1,34,-1
 542 1131 l 2,35,36
 505.333333333 1131 505.333333333 1131 495.166666667 1115.75 c 128,-1,37
 485 1100.5 485 1100.5 485 1053 c 2,38,-1
 485 643 l 1,39,-1
 876 653 l 2,40,41
 904 654 904 654 921 675.5 c 128,-1,42
 938 697 938 697 951.5 722.5 c 128,-1,43
 965 748 965 748 979 769.5 c 128,-1,44
 993 791 993 791 1005.83333333 791 c 128,-1,45
 1018.66666667 791 1018.66666667 791 1037 786 c 1,46,-1
 1037 444 l 1,47,48
 1025 438 1025 438 1011.5 438 c 128,-1,49
 998 438 998 438 984 459.5 c 128,-1,50
 970 481 970 481 955 507.5 c 0,51,52
 915.103338633 577.984101749 915.103338633 577.984101749 876 584 c 1,53,-1
 485 584 l 1,54,-1
 485 136 l 2,55,56
 485 55 485 55 518 55 c 2,57,-1
 520 55 l 1,58,-1
 995 67 l 1,59,60
 1061.58064516 67 1061.58064516 67 1092.67564368 94.5412844037 c 128,-1,61
 1123.7706422 122.082568807 1123.7706422 122.082568807 1151.0653211 234.041284404 c 128,-1,62
 1178.36 346 1178.36 346 1210 346 c 1,63,-1
 1230 342 l 1,0,-1
EndSplineSet
EndChar

StartChar: F
Encoding: 70 70 8
Width: 1181
Flags: W
HStem: 0 41.5<56.0039 208.692 567.209 729.921> 599 77<487 882.034> 875 21G<1095.38 1110.12> 1128 53<496.06 988.293>
VStem: 272 215<74.3081 605 664 1083.33> 1059.5 70.5<876.586 1056.44>
LayerCount: 2
Fore
SplineSet
929 792.5 m 128,-1,1
 943 814 943 814 955.833333333 814 c 128,-1,2
 968.666666667 814 968.666666667 814 987 809 c 1,3,-1
 987 467 l 1,4,5
 975 461 975 461 964.5 461 c 128,-1,6
 954 461 954 461 944 471.5 c 128,-1,7
 934 482 934 482 924.5 497 c 128,-1,8
 915 512 915 512 905 530 c 0,9,10
 866.666666667 599 866.666666667 599 826 599 c 2,11,-1
 487 605 l 1,12,-1
 487 130 l 2,13,14
 487 69 487 69 608.5 55.5 c 0,15,16
 690 46.4444444444 690 46.4444444444 710 39.2222222222 c 128,-1,17
 730 32 730 32 730 19.3333333333 c 128,-1,18
 730 6.66666666667 730 6.66666666667 726 0 c 1,19,-1
 60 0 l 1,20,21
 56 8 56 8 56 21.5 c 128,-1,22
 56 35 56 35 72 41.5 c 128,-1,23
 88 48 88 48 112 50.5 c 128,-1,24
 136 53 136 53 164 55 c 0,25,26
 272 62.7142857143 272 62.7142857143 272 130 c 2,27,-1
 272 1020 l 2,28,29
 272 1080 272 1080 164 1107 c 1,30,-1
 112 1120.5 l 2,31,32
 56 1135.66666667 56 1135.66666667 56 1159 c 1,33,-1
 60 1181 l 1,34,-1
 970 1181 l 2,35,36
 1031 1181 1031 1181 1060.5 1186.5 c 128,-1,37
 1090 1192 1090 1192 1100.5 1192 c 128,-1,38
 1111 1192 1111 1192 1123 1188 c 1,39,-1
 1130 880 l 1,40,41
 1117.5 875 1117.5 875 1102.75 875 c 128,-1,42
 1088 875 1088 875 1077.5 893 c 128,-1,43
 1067 911 1067 911 1059.5 937.5 c 128,-1,44
 1052 964 1052 964 1045 995.5 c 0,45,46
 1018.30769231 1115.61538462 1018.30769231 1115.61538462 942 1118 c 2,47,-1
 544 1128 l 2,48,49
 504.555555556 1128 504.555555556 1128 495.777777778 1112.2 c 128,-1,50
 487 1096.4 487 1096.4 487 1058 c 2,51,-1
 487 664 l 1,52,-1
 826 676 l 2,53,54
 854 677 854 677 871 698.5 c 128,-1,55
 888 720 888 720 901.5 745.5 c 128,-1,0
 915 771 915 771 929 792.5 c 128,-1,1
EndSplineSet
EndChar

StartChar: G
Encoding: 71 71 9
Width: 1360
Flags: W
HStem: -28 88<567.317 933.588> 589 49<1208.01 1320.87> 1140 62<607.836 944.171>
VStem: 90 215<356.753 832.458> 962 215<92.6038 565.482> 1095.5 85.5<869.221 938>
LayerCount: 2
Fore
SplineSet
765 60 m 0,0,1
 850.333333333 60 850.333333333 60 885.666666667 66.5 c 128,-1,2
 921 73 921 73 934 92 c 128,-1,3
 947 111 947 111 954.5 171 c 128,-1,4
 962 231 962 231 962 502 c 0,5,6
 962 562.282608696 962 562.282608696 874 579.5 c 128,-1,7
 786 596.717391304 786 596.717391304 786 616 c 0,8,9
 786 626 786 626 791 638 c 1,10,-1
 1317 638 l 1,11,12
 1321 623 1321 623 1321 615 c 128,-1,13
 1321 607 1321 607 1310.5 600 c 128,-1,14
 1300 593 1300 593 1284 589 c 128,-1,15
 1268 585 1268 585 1249 581 c 0,16,17
 1177 565.842105263 1177 565.842105263 1177 502 c 2,18,-1
 1177 123 l 2,19,20
 1177 68.5867768595 1177 68.5867768595 1041.10465116 20.2933884298 c 128,-1,21
 905.209302326 -28 905.209302326 -28 737 -28 c 0,22,23
 475.096774194 -28 475.096774194 -28 301 100.5 c 0,24,25
 90 256.238095238 90 256.238095238 90 590 c 0,26,27
 90 886.091836735 90 886.091836735 306 1052.5 c 0,28,29
 500.052980132 1202 500.052980132 1202 793 1202 c 0,30,31
 957.32 1202 957.32 1202 1069.5 1166.5 c 0,32,33
 1109 1154 1109 1154 1150 1138 c 1,34,-1
 1181 869 l 1,35,36
 1163 864 1163 864 1151 864 c 0,37,38
 1127.39655172 864 1127.39655172 864 1095.5 938 c 2,39,-1
 1071.5 995.5 l 1,40,41
 1036.16859644 1083.06043491 1036.16859644 1083.06043491 910.5 1122 c 0,42,43
 852.409090909 1140 852.409090909 1140 762.704545455 1140 c 128,-1,44
 673 1140 673 1140 585 1101 c 128,-1,45
 497 1062 497 1062 435 994 c 0,46,47
 305 851.419354839 305 851.419354839 305 636 c 0,48,49
 305 376.137931034 305 376.137931034 424.843137255 218.068965517 c 128,-1,50
 544.68627451 60 544.68627451 60 765 60 c 0,0,1
EndSplineSet
EndChar

StartChar: H
Encoding: 72 72 10
Width: 1624
Flags: W
HStem: 0 50.5<64.3125 240.072 513.777 705.845 931.312 1111.37 1383.52 1560.98> 576 60<484 1141> 1123 53<536.229 704.647>
VStem: 269 215<68.4154 576 636 1091.11> 1141 215<68.2676 576 636 1091.35>
LayerCount: 2
Fore
SplineSet
700 1176 m 1,0,1
 705 1161 705 1161 705 1152 c 128,-1,2
 705 1143 705 1143 688.5 1135.5 c 128,-1,3
 672 1128 672 1128 647.5 1123 c 128,-1,4
 623 1118 623 1118 594.5 1113 c 0,5,6
 484 1093.61403509 484 1093.61403509 484 1030 c 2,7,-1
 484 636 l 1,8,-1
 1141 636 l 1,9,-1
 1141 1030 l 2,10,11
 1141 1090.6 1141 1090.6 1036.5 1111.5 c 0,12,13
 968.693877551 1125.06122449 968.693877551 1125.06122449 950.346938776 1134.53061224 c 128,-1,14
 932 1144 932 1144 932 1159 c 0,15,16
 932 1161 932 1161 936 1176 c 1,17,-1
 1555 1176 l 1,18,19
 1560 1161 1560 1161 1560 1152.5 c 0,20,21
 1560 1136.17391304 1560 1136.17391304 1507 1123.5 c 2,22,-1
 1458 1112 l 2,23,24
 1356 1088.46153846 1356 1088.46153846 1356 1030 c 2,25,-1
 1356 124 l 2,26,27
 1356 64.7169811321 1356 64.7169811321 1459.5 53 c 0,28,29
 1525.45555556 45.5333333333 1525.45555556 45.5333333333 1544.22777778 38.2666666667 c 128,-1,30
 1563 31 1563 31 1563 17 c 0,31,32
 1563 13 1563 13 1559 0 c 1,33,-1
 936 0 l 1,34,35
 931 10 931 10 931 22 c 128,-1,36
 931 34 931 34 946.5 41 c 128,-1,37
 962 48 962 48 985.5 50.5 c 128,-1,38
 1009 53 1009 53 1036 55 c 0,39,40
 1141 62.7777777778 1141 62.7777777778 1141 130 c 2,41,-1
 1141 576 l 1,42,-1
 484 576 l 1,43,-1
 484 124 l 2,44,45
 484 64.5862068966 484 64.5862068966 596 53 c 0,46,47
 667.975903614 45.5542168675 667.975903614 45.5542168675 687.987951807 38.2771084337 c 128,-1,48
 708 31 708 31 708 17 c 0,49,50
 708 13 708 13 704 0 c 1,51,-1
 69 0 l 1,52,53
 64 10 64 10 64 22 c 128,-1,54
 64 34 64 34 79 41 c 128,-1,55
 94 48 94 48 117 50.5 c 128,-1,56
 140 53 140 53 166.5 55 c 0,57,58
 269 62.7358490566 269 62.7358490566 269 130 c 2,59,-1
 269 1030 l 2,60,61
 269 1088.92307692 269 1088.92307692 167 1110.5 c 0,62,63
 102.051792829 1124.23904382 102.051792829 1124.23904382 83.5258964143 1134.11952191 c 128,-1,64
 65 1144 65 1144 65 1159 c 0,65,66
 65 1161 65 1161 69 1176 c 1,67,-1
 700 1176 l 1,0,1
EndSplineSet
EndChar

StartChar: I
Encoding: 73 73 11
Width: 764
Flags: W
HStem: 0 46.1429<52.8213 225.412 526.443 730.595> 1131.57 44.4333<44.6164 178.962 553.812 721.983>
VStem: 273 215<71.092 1094.85>
LayerCount: 2
Fore
SplineSet
273 1038 m 2,0,1
 273 1098.91525424 273 1098.91525424 158.5 1112.5 c 0,2,3
 85.7333333333 1121.13333333 85.7333333333 1121.13333333 64.8666666667 1131.56666667 c 128,-1,4
 44 1142 44 1142 44 1159 c 0,5,6
 44 1161 44 1161 48 1176 c 1,7,-1
 718 1176 l 1,8,9
 722 1165 722 1165 722 1152.5 c 128,-1,10
 722 1140 722 1140 704.5 1132.5 c 128,-1,11
 687 1125 687 1125 661 1122 c 128,-1,12
 635 1119 635 1119 605 1117 c 0,13,14
 488 1109.2 488 1109.2 488 1044 c 2,15,-1
 488 124 l 2,16,17
 488 58.2857142857 488 58.2857142857 609.5 52.5 c 0,18,19
 690 48.6666666667 690 48.6666666667 710.5 41.8333333333 c 128,-1,20
 731 35 731 35 731 19 c 0,21,22
 731 15 731 15 726 0 c 1,23,-1
 56 0 l 1,24,25
 52 13 52 13 52 17 c 0,26,27
 52 40.2857142857 52 40.2857142857 93 46.1428571429 c 128,-1,28
 134 52 134 52 162.5 55 c 0,29,30
 273 66.6315789474 273 66.6315789474 273 130 c 2,31,-1
 273 1038 l 2,0,1
EndSplineSet
EndChar

StartChar: J
Encoding: 74 74 12
Width: 728
Flags: W
HStem: -310 73<122.817 212.349> 1128.5 47.5<534.02 700.937>
VStem: -40 159<-236.851 -147.66> 257 215<-124.888 1098.98>
LayerCount: 2
Fore
SplineSet
472 117 m 2,0,1
 472 -108.073684211 472 -108.073684211 363.5 -220 c 0,2,3
 276.255102041 -310 276.255102041 -310 146 -310 c 0,4,5
 55.53125 -310 55.53125 -310 7.765625 -276.033333333 c 128,-1,6
 -40 -242.066666667 -40 -242.066666667 -40 -205.033333333 c 128,-1,7
 -40 -168 -40 -168 -18.5 -147 c 128,-1,8
 3 -126 3 -126 37 -126 c 128,-1,9
 71 -126 71 -126 95 -143 c 128,-1,10
 119 -160 119 -160 119 -182.5 c 128,-1,11
 119 -205 119 -205 132.5 -221 c 128,-1,12
 146 -237 146 -237 163.5 -237 c 0,13,14
 202.5 -237 202.5 -237 229.75 -164.333333333 c 128,-1,15
 257 -91.6666666667 257 -91.6666666667 257 79 c 2,16,-1
 257 1040 l 2,17,18
 257 1101.66666667 257 1101.66666667 142 1117 c 128,-1,19
 27 1132.33333333 27 1132.33333333 27 1158 c 0,20,21
 27 1164 27 1164 32 1176 c 1,22,-1
 698 1176 l 1,23,24
 702 1161 702 1161 702 1159 c 0,25,26
 702 1136 702 1136 659.5 1128.5 c 128,-1,27
 617 1121 617 1121 587 1117 c 0,28,29
 472 1101.66666667 472 1101.66666667 472 1040 c 2,30,-1
 472 117 l 2,0,1
EndSplineSet
EndChar

StartChar: K
Encoding: 75 75 13
Width: 1470
Flags: W
HStem: 0 46<46.8306 219.354 527.606 724.607 780.203 930.869> 580 56<488 574> 1128.44 47.5577<550.56 718.937 881.702 1056.72 1290.32 1430>
VStem: 273 215<72.2888 580 636 1097.89>
DStem2: 574 636 742 704 0.766192 0.642612<172.418 668.153> 742 704 578 580 0.647725 -0.761874<0 595.725>
LayerCount: 2
Fore
SplineSet
786 0 m 1,0,1
 780 12 780 12 780 21 c 128,-1,2
 780 30 780 30 793 36 c 128,-1,3
 806 42 806 42 825 46 c 128,-1,4
 844 50 844 50 867 52.5 c 0,5,6
 954 61.9565217391 954 61.9565217391 954 102 c 0,7,8
 954 111.9 954 111.9 937 134 c 2,9,-1
 578 580 l 1,10,-1
 488 580 l 1,11,-1
 488 124 l 2,12,13
 488 58.3278688525 488 58.3278688525 606.5 52.5 c 0,14,15
 685.255183413 48.6267942584 685.255183413 48.6267942584 705.127591707 41.8133971292 c 128,-1,16
 725 35 725 35 725 19 c 0,17,18
 725 15 725 15 720 0 c 1,19,-1
 50 0 l 1,20,21
 46 13 46 13 46 17 c 0,22,23
 46 40.24 46 40.24 88 46.12 c 128,-1,24
 130 52 130 52 159.5 55.5 c 0,25,26
 273 68.9661016949 273 68.9661016949 273 130 c 2,27,-1
 273 1040 l 2,28,29
 273 1101.8 273 1101.8 159 1117 c 128,-1,30
 45 1132.2 45 1132.2 45 1158 c 0,31,32
 45 1164 45 1164 50 1176 c 1,33,-1
 716 1176 l 1,34,35
 720 1161 720 1161 720 1159 c 0,36,37
 720 1135.88461538 720 1135.88461538 677 1128.44230769 c 128,-1,38
 634 1121 634 1121 604 1117 c 0,39,40
 488 1101.53333333 488 1101.53333333 488 1040 c 2,41,-1
 488 636 l 1,42,-1
 574 636 l 1,43,-1
 1070 1052 l 1,44,45
 1074 1067 1074 1067 1074 1080 c 128,-1,46
 1074 1093 1074 1093 1059.5 1103 c 128,-1,47
 1045 1113 1045 1113 1024 1117.5 c 128,-1,48
 1003 1122 1003 1122 977.5 1124 c 128,-1,49
 952 1126 952 1126 916.5 1130.22619048 c 128,-1,50
 881 1134.45238095 881 1134.45238095 881 1158 c 0,51,52
 881 1164 881 1164 886 1176 c 1,53,-1
 1430 1176 l 1,54,-1
 1434 1158 l 1,55,56
 1434 1139.75 1434 1139.75 1376.5 1125.375 c 128,-1,57
 1319 1111 1319 1111 1258.30650155 1097.77192982 c 128,-1,58
 1197.6130031 1084.54385965 1197.6130031 1084.54385965 1150 1046 c 1,59,-1
 742 704 l 1,60,-1
 1230 130 l 1,61,62
 1252.73504274 104.991452991 1252.73504274 104.991452991 1324.36752137 83.9957264957 c 128,-1,63
 1396 63 1396 63 1435 48.8936170213 c 128,-1,64
 1474 34.7872340426 1474 34.7872340426 1474 18 c 256,65,66
 1474 8 1474 8 1470 0 c 1,67,-1
 786 0 l 1,0,1
EndSplineSet
EndChar

StartChar: L
Encoding: 76 76 14
Width: 1121
Flags: W
HStem: -26 21G<998.571 1048.25> 0 61<46.415 249.019 496.317 932.282> 1114.61 61.3911<63.8695 254.803> 1133 43<562.716 725.962>
VStem: 276 215<81.3125 1098.99> 998.157 82.8427<156.168 337.173>
LayerCount: 2
Fore
SplineSet
1057 346 m 1,0,-1
 1081 341 l 1,1,-1
 1053 -20 l 1,2,3
 1051.5 -26 1051.5 -26 1045 -26 c 1,4,5
 952.142857143 1.06581410364e-14 952.142857143 1.06581410364e-14 886 0 c 2,6,-1
 50 0 l 1,7,8
 46 12 46 12 46 26.5 c 128,-1,9
 46 41 46 41 63 49 c 128,-1,10
 80 57 80 57 105.5 61 c 128,-1,11
 131 65 131 65 161 67 c 0,12,13
 276 74.6666666667 276 74.6666666667 276 142 c 2,14,-1
 276 1038 l 2,15,16
 276 1100.71153846 276 1100.71153846 172.7625 1114.60889423 c 128,-1,17
 69.525 1128.50625 69.525 1128.50625 48 1159 c 1,18,19
 48 1161 48 1161 52 1176 c 1,20,-1
 722 1176 l 1,21,22
 726 1165 726 1165 726 1152.5 c 128,-1,23
 726 1140 726 1140 708.5 1133 c 128,-1,24
 691 1126 691 1126 665 1123 c 128,-1,25
 639 1120 639 1120 608.5 1118 c 0,26,27
 491 1110.29508197 491 1110.29508197 491 1044 c 2,28,-1
 491 136 l 2,29,30
 491 56 491 56 536 56 c 1,31,-1
 842 67 l 2,32,33
 908.248648649 69.0702702703 908.248648649 69.0702702703 939.601597052 95.9442260442 c 128,-1,34
 970.954545455 122.818181818 970.954545455 122.818181818 998.157272727 234.409090909 c 128,-1,35
 1025.36 346 1025.36 346 1057 346 c 1,0,-1
EndSplineSet
EndChar

StartChar: M
Encoding: 77 77 15
Width: 1756
Flags: W
HStem: 0 50<40.1477 222.805 362.863 538.784> 0 40.5<1090.1 1244.53 1561.36 1728.68> 1134.77 41.2339<67 173.486 1548.15 1695.75>
VStem: 257 84<71.1736 607.615> 280.5 66.5<471.12 912> 1288 183<602.274 1047> 1305 196<66.3379 561.726>
DStem2: 431 1176 347 912 0.442292 -0.896871<199.621 1058.12> 899 227 863 0 0.376116 0.926573<0 906.099>
LayerCount: 2
Fore
SplineSet
807 0 m 1,0,-1
 347 912 l 1,1,-1
 341 124 l 2,2,3
 341 55.9019607843 341 55.9019607843 440.5 52 c 0,4,5
 505.53553719 49.4495867769 505.53553719 49.4495867769 522.767768595 41.7247933884 c 128,-1,6
 540 34 540 34 540 17 c 0,7,8
 540 15 540 15 536 0 c 1,9,-1
 45 0 l 1,10,11
 40 12 40 12 40 23 c 128,-1,12
 40 34 40 34 55.5 40.5 c 128,-1,13
 71 47 71 47 95 50 c 128,-1,14
 119 53 119 53 146.5 55 c 0,15,16
 254.685103708 62.8680075424 254.685103708 62.8680075424 257 130 c 2,17,-1
 276 763 l 2,18,19
 279 863 279 863 280.5 917.5 c 128,-1,20
 282 972 282 972 283 997 c 128,-1,21
 284 1022 284 1022 284 1026.5 c 2,22,-1
 284 1031 l 2,23,24
 284 1097.05263158 284 1097.05263158 173.5 1114.5 c 0,25,26
 103.629032258 1125.53225806 103.629032258 1125.53225806 83.314516129 1134.76612903 c 128,-1,27
 63 1144 63 1144 63 1159 c 1,28,-1
 67 1176 l 1,29,-1
 431 1176 l 1,30,-1
 899 227 l 1,31,-1
 1285 1176 l 1,32,-1
 1691 1176 l 1,33,34
 1696 1159 1696 1159 1696 1158 c 0,35,36
 1696 1137.28 1696 1137.28 1654.5 1130.64 c 128,-1,37
 1613 1124 1613 1124 1583.5 1120.5 c 0,38,39
 1471 1107.15254237 1471 1107.15254237 1471 1040 c 1,40,-1
 1501 124 l 2,41,42
 1503.36258808 60.2101217168 1503.36258808 60.2101217168 1616 50.5 c 0,43,44
 1689.51162791 44.1627906977 1689.51162791 44.1627906977 1709.25581395 37.5813953488 c 128,-1,45
 1729 31 1729 31 1729 17 c 0,46,47
 1729 15 1729 15 1725 0 c 1,48,-1
 1095 0 l 1,49,50
 1090 12 1090 12 1090 23 c 128,-1,51
 1090 34 1090 34 1106 40.5 c 128,-1,52
 1122 47 1122 47 1146 49.5 c 128,-1,53
 1170 52 1170 52 1197.5 53.5 c 0,54,55
 1305 59.3636363636 1305 59.3636363636 1305 130 c 1,56,-1
 1288 1047 l 1,57,-1
 863 0 l 1,58,-1
 807 0 l 1,0,-1
EndSplineSet
EndChar

StartChar: N
Encoding: 78 78 16
Width: 1569
Flags: W
HStem: -16 21G<1262 1288> 0 59.5<47.6602 219.343> 1120.5 55.5<70.7879 189.5 1383.74 1522.65>
VStem: 263 99<88.9834 560.624> 288 46<541.376 952> 1235 91<406.291 1084.58> 1250 52<319 602.709>
DStem2: 438 1176 334 952 0.686982 -0.726674<91.3289 1180.59>
LayerCount: 2
Fore
SplineSet
1021 1148.75 m 0,0,1
 1021 1159.5 1021 1159.5 1027 1176 c 1,2,-1
 1519 1176 l 1,3,4
 1523 1167 1523 1167 1523 1152.5 c 128,-1,5
 1523 1138 1523 1138 1508.5 1130 c 128,-1,6
 1494 1122 1494 1122 1472 1116.5 c 128,-1,7
 1450 1111 1450 1111 1424.5 1106 c 0,8,9
 1326 1086.68627451 1326 1086.68627451 1326 1009 c 1,10,-1
 1302 0 l 2,11,12
 1301 -16 1301 -16 1275 -16 c 128,-1,13
 1249 -16 1249 -16 1234 0 c 2,14,-1
 334 952 l 1,15,-1
 362 150 l 1,16,17
 362 68.3728813559 362 68.3728813559 477.5 62.5 c 128,-1,18
 593 56.6271186441 593 56.6271186441 593 26.25 c 0,19,20
 593 13.5 593 13.5 587 0 c 1,21,-1
 51 0 l 1,22,23
 47 9 47 9 47 24 c 128,-1,24
 47 39 47 39 63 47 c 128,-1,25
 79 55 79 55 102.5 59.5 c 128,-1,26
 126 64 126 64 154 68.5 c 0,27,28
 260.698320787 85.6479444123 260.698320787 85.6479444123 263 157 c 2,29,-1
 288 1020 l 1,30,31
 288 1083.33962264 288 1083.33962264 189.5 1107.5 c 2,32,-1
 137.5 1120.5 l 2,33,34
 74.9305555556 1136.44907407 74.9305555556 1136.44907407 62 1158 c 1,35,-1
 66 1176 l 1,36,-1
 438 1176 l 1,37,-1
 1250 319 l 1,38,-1
 1235 1009 l 1,39,40
 1235 1086.89285714 1235 1086.89285714 1128 1106 c 128,-1,41
 1021 1125.10714286 1021 1125.10714286 1021 1148.75 c 0,0,1
EndSplineSet
EndChar

StartChar: O
Encoding: 79 79 17
Width: 1466
Flags: W
HStem: -28 64<622.935 917.505> 1140 62<559.136 855.771>
VStem: 88 215<362.784 830.7> 1162 215<337.622 825.885>
LayerCount: 2
Fore
SplineSet
446.411764706 198.533333333 m 128,-1,1
 589.823529412 36 589.823529412 36 763.58636788 36 c 128,-1,2
 937.349206349 36 937.349206349 36 1049.67460317 168.271028037 c 128,-1,3
 1162 300.542056075 1162 300.542056075 1162 562.774844831 c 128,-1,4
 1162 825.007633588 1162 825.007633588 1023.53020134 982.503816794 c 128,-1,5
 885.060402685 1140 885.060402685 1140 710.839725152 1140 c 128,-1,6
 536.619047619 1140 536.619047619 1140 419.80952381 1007.40540541 c 128,-1,7
 303 874.810810811 303 874.810810811 303 617.938738739 c 128,-1,0
 303 361.066666667 303 361.066666667 446.411764706 198.533333333 c 128,-1,1
113.5 401.5 m 0,8,9
 88 487 88 487 88 589 c 128,-1,10
 88 691 88 691 113.5 776 c 128,-1,11
 139 861 139 861 184 929 c 0,12,13
 270.265141319 1059.35621355 270.265141319 1059.35621355 419.110831529 1130.67810677 c 128,-1,14
 567.956521739 1202 567.956521739 1202 737 1202 c 0,15,16
 997.18627451 1202 997.18627451 1202 1187.09313725 1041.91322314 c 128,-1,17
 1377 881.826446281 1377 881.826446281 1377 589.011583796 c 128,-1,18
 1377 296.196721311 1377 296.196721311 1185 134.098360656 c 128,-1,19
 993 -28 993 -28 733 -28 c 128,-1,20
 473 -28 473 -28 290 126.5 c 0,21,22
 163.720738036 233.112819527 163.720738036 233.112819527 113.5 401.5 c 0,8,9
EndSplineSet
EndChar

StartChar: P
Encoding: 80 80 18
Width: 1285
Flags: W
HStem: 0 50.5<55.3164 241.378 517.622 703.64> 439 57<584.334 860.403> 1118 60<487 794.648>
VStem: 272 215<68.1922 1085.33> 1019 215<636.297 974.459>
LayerCount: 2
Fore
SplineSet
712 496 m 0,0,1
 1019 496 1019 496 1019 823 c 0,2,3
 1019 1098.45081967 1019 1098.45081967 603 1115.5 c 0,4,5
 542 1118 542 1118 487 1118 c 1,6,-1
 487 130 l 2,7,8
 487 62.6140350877 487 62.6140350877 595.5 55 c 0,9,10
 667.558208955 49.9432835821 667.558208955 49.9432835821 685.779104478 41.971641791 c 128,-1,11
 704 34 704 34 704 22 c 128,-1,12
 704 10 704 10 699 0 c 1,13,-1
 60 0 l 1,14,15
 55 10 55 10 55 22 c 128,-1,16
 55 34 55 34 71 41 c 128,-1,17
 87 48 87 48 111 50.5 c 128,-1,18
 135 53 135 53 163.5 55 c 0,19,20
 272 62.6140350877 272 62.6140350877 272 130 c 2,21,-1
 272 1022 l 2,22,23
 272 1082 272 1082 164 1109 c 1,24,-1
 112 1122.5 l 2,25,26
 56 1137.66666667 56 1137.66666667 56 1161 c 0,27,28
 56 1163 56 1163 60 1178 c 1,29,-1
 474 1178 l 2,30,31
 962.379746835 1178 962.379746835 1178 1127 1050.5 c 0,32,33
 1234 967.62745098 1234 967.62745098 1234 823 c 0,34,35
 1234 635.093023256 1234 635.093023256 1102.25 537.046511628 c 128,-1,36
 970.5 439 970.5 439 744 439 c 0,37,38
 632.307692308 439 632.307692308 439 540 487 c 1,39,-1
 542 515 l 1,40,41
 618 496 618 496 712 496 c 0,0,1
EndSplineSet
EndChar

StartChar: Q
Encoding: 81 81 19
Width: 1467
Flags: W
HStem: -346 132<1122.16 1459.15> -274 60<1452.32 1549.53> 1140 62<565.419 862.137>
VStem: 89 215<370.687 836.745> 1162 215<350.979 826.614>
LayerCount: 2
Fore
SplineSet
1497 -214 m 2,0,1
 1550 -214 1550 -214 1550 -238 c 128,-1,2
 1550 -262 1550 -262 1526 -274 c 0,3,4
 1472.15 -300.925 1472.15 -300.925 1384.14642857 -323.4625 c 128,-1,5
 1296.14285714 -346 1296.14285714 -346 1240.07142857 -346 c 128,-1,6
 1184 -346 1184 -346 1147 -334.5 c 0,7,8
 1075.31940299 -312.220895522 1075.31940299 -312.220895522 996.923899023 -264.407978625 c 128,-1,9
 918.528395062 -216.595061728 918.528395062 -216.595061728 869.264197531 -182.797530864 c 2,10,-1
 781 -120.5 l 1,11,12
 690 -54 690 -54 665 -24 c 1,13,14
 431.859571788 -2.80541561713 431.859571788 -2.80541561713 260.429785894 166.494807719 c 128,-1,15
 89 335.795031056 89 335.795031056 89 590 c 0,16,17
 89 881.073170732 89 881.073170732 282.5 1041.53658537 c 128,-1,18
 476 1202 476 1202 736.593137255 1202 c 128,-1,19
 997.18627451 1202 997.18627451 1202 1187.09313725 1041.91322314 c 128,-1,20
 1377 881.826446281 1377 881.826446281 1377 590 c 0,21,22
 1377 252.806451613 1377 252.806451613 1082 72 c 0,23,24
 959.964788732 -2.79577464789 959.964788732 -2.79577464789 817 -22 c 1,25,-1
 1121 -169 l 2,26,27
 1228.71428571 -221 1228.71428571 -221 1350 -221 c 0,28,29
 1381 -221 1381 -221 1411 -219 c 2,30,-1
 1472 -215 l 2,31,32
 1477 -214 1477 -214 1483 -214 c 2,33,-1
 1497 -214 l 2,0,1
304 626 m 0,34,35
 304 490 304 490 345.5 378 c 128,-1,36
 387 266 387 266 454 190 c 0,37,38
 589.763157895 36 589.763157895 36 762.810150376 36 c 128,-1,39
 935.857142857 36 935.857142857 36 1048.92857143 167.916666667 c 128,-1,40
 1162 299.833333333 1162 299.833333333 1162 563.244791667 c 128,-1,41
 1162 826.65625 1162 826.65625 1026.5 983.328125 c 128,-1,42
 891 1140 891 1140 716.75 1140 c 128,-1,43
 542.5 1140 542.5 1140 423.25 1007.03097345 c 128,-1,44
 304 874.061946903 304 874.061946903 304 626 c 0,34,35
EndSplineSet
EndChar

StartChar: R
Encoding: 82 82 20
Width: 1332
Flags: W
HStem: 0 51<66.3784 242.931 515.847 703.555 1197.42 1340.12> 606 38<487 576.274> 1118 60<487 797.285>
VStem: 272 215<68.1922 606 644 1084.74> 949 215<754.718 1013.17>
LayerCount: 2
Fore
SplineSet
1263.5 54.5 m 0,0,1
 1293 48 1293 48 1313.5 47 c 128,-1,2
 1334 46 1334 46 1340.32432432 32.6486486486 c 128,-1,3
 1346.64864865 19.2972972973 1346.64864865 19.2972972973 1337 0 c 1,4,-1
 946 0 l 1,5,6
 928 25 928 25 904.5 65.5 c 1,7,-1
 624 584 l 1,8,-1
 487 606 l 1,9,-1
 487 130 l 2,10,11
 487 62.6140350877 487 62.6140350877 595.5 55 c 0,12,13
 667.558208955 49.9432835821 667.558208955 49.9432835821 685.779104478 41.971641791 c 128,-1,14
 704 34 704 34 704 22 c 128,-1,15
 704 10 704 10 699 0 c 1,16,-1
 71 0 l 1,17,18
 66 10 66 10 66 22 c 128,-1,19
 66 34 66 34 81.5 41 c 128,-1,20
 97 48 97 48 119.5 51 c 128,-1,21
 142 54 142 54 169 56 c 0,22,23
 272 63.6296296296 272 63.6296296296 272 130 c 2,24,-1
 272 1022 l 2,25,26
 272 1079.9245283 272 1079.9245283 169.5 1107 c 128,-1,27
 67 1134.0754717 67 1134.0754717 67 1154.5 c 0,28,29
 67 1163 67 1163 71 1178 c 1,30,-1
 485 1178 l 2,31,32
 1164 1178 1164 1178 1164 882 c 0,33,34
 1164 752.212121212 1164 752.212121212 1062.00301984 681.123316861 c 128,-1,35
 960.006039689 610.034512511 960.006039689 610.034512511 822 596 c 1,36,-1
 1108 150 l 1,37,38
 1151.59577677 79.1568627451 1151.59577677 79.1568627451 1263.5 54.5 c 0,0,1
487 644 m 1,39,40
 730.564766839 654.777202073 730.564766839 654.777202073 831.5 700.5 c 0,41,42
 949 753.726495726 949 753.726495726 949 890.782739389 c 128,-1,43
 949 1027.83898305 949 1027.83898305 827 1078.5 c 0,44,45
 731.87755102 1118 731.87755102 1118 487 1118 c 1,46,-1
 487 644 l 1,39,40
EndSplineSet
EndChar

StartChar: S
Encoding: 83 83 21
Width: 1041
Flags: W
HStem: -28 64<393.159 696.925> 876 21G<839.354 862.25> 1140 62<366.803 668.141>
VStem: 119 157<794.091 1051.34> 781 174<143.623 332.824> 799.912 85.0882<880.419 1003.81>
DStem2: 383 842 334 581 0.858168 -0.513369<-136.368 631.345>
LayerCount: 2
Fore
SplineSet
334 581 m 2,0,1
 119 702.181818182 119 702.181818182 119 886 c 0,2,3
 119 1046.52991453 119 1046.52991453 238.671052632 1124.26495726 c 128,-1,4
 358.342105263 1202 358.342105263 1202 534.137719298 1202 c 128,-1,5
 709.933333333 1202 709.933333333 1202 855 1138 c 1,6,-1
 885 881 l 1,7,8
 867 876 867 876 857.5 876 c 0,9,10
 821.207762557 876 821.207762557 876 799.911764706 968.352941176 c 0,11,12
 781.34858681 1048.85464334 781.34858681 1048.85464334 700.560657041 1094.42732167 c 128,-1,13
 619.772727273 1140 619.772727273 1140 517 1140 c 256,14,15
 418.871794872 1140 418.871794872 1140 367.435897436 1110.5 c 128,-1,16
 316 1081 316 1081 296 1053.5 c 128,-1,17
 276 1026 276 1026 276 988 c 0,18,19
 276 905.053571429 276 905.053571429 383 842 c 2,20,-1
 719 641 l 2,21,22
 857.178005284 559.260898283 857.178005284 559.260898283 906.089002642 490.970071783 c 128,-1,23
 955 422.679245283 955 422.679245283 955 323.339622642 c 0,24,25
 955 142.074380165 955 142.074380165 821.5 50.5 c 0,26,27
 707.060240964 -28 707.060240964 -28 492.030120482 -28 c 128,-1,28
 277 -28 277 -28 97 80 c 1,29,-1
 118 366 l 1,30,31
 135 371 135 371 141.5 371 c 0,32,33
 170.260564248 371 170.260564248 371 183.792134831 271.601123596 c 0,34,35
 190 226 190 226 226 181 c 128,-1,36
 262 136 262 136 315 103.5 c 0,37,38
 425.076923077 36 425.076923077 36 567.80989011 36 c 128,-1,39
 710.542857143 36 710.542857143 36 763 138 c 0,40,41
 781 173 781 173 781 216 c 0,42,43
 781 291.421052632 781 291.421052632 730.634328358 339.13589945 c 128,-1,44
 680.268656716 386.850746269 680.268656716 386.850746269 545 462 c 2,45,-1
 334 581 l 2,0,1
EndSplineSet
EndChar

StartChar: T
Encoding: 84 84 22
Width: 1180
Flags: W
HStem: 0 41.5<241.004 402.882 753.583 918.602> 868 21G<55 68.9286 1115.49 1132> 1112 81<165.398 469.75 979 1030.13> 1112 61<174.173 470 685 1023.36>
VStem: 40 78.5<887.311 1009.71> 470 215<69.7466 1120> 1073.34 71.6591<881.97 974.263>
LayerCount: 2
Fore
SplineSet
73 1189 m 1,0,1
 109 1191 l 1,2,3
 140 1191 140 1191 166 1184.5 c 128,-1,4
 192 1178 192 1178 225 1173 c 1,5,-1
 581 1176 l 1,6,-1
 979 1179 l 1,7,-1
 1072 1193 l 1,8,-1
 1100 1193 l 1,9,-1
 1145 872 l 1,10,11
 1136 868 1136 868 1128 868 c 0,12,13
 1102.98032787 868 1102.98032787 868 1073.34090909 967.340909091 c 0,14,15
 1050.79487179 1042.90729783 1050.79487179 1042.90729783 1027.18629901 1076.50411295 c 128,-1,16
 1003.57772622 1110.10092807 1003.57772622 1110.10092807 958 1112 c 2,17,-1
 685 1120 l 1,18,-1
 685 124 l 2,19,20
 685 64.25 685 64.25 802 54.5 c 0,21,22
 878.736842105 48.1052631579 878.736842105 48.1052631579 898.868421053 40.0526315789 c 128,-1,23
 919 32 919 32 919 17 c 0,24,25
 919 13 919 13 915 0 c 1,26,-1
 245 0 l 1,27,28
 241 8 241 8 241 21.5 c 128,-1,29
 241 35 241 35 258 41.5 c 128,-1,30
 275 48 275 48 300.5 50.5 c 128,-1,31
 326 53 326 53 355.5 55 c 0,32,33
 470 62.7627118644 470 62.7627118644 470 130 c 2,34,-1
 470 1120 l 1,35,-1
 239 1112 l 2,36,37
 174.963194988 1109.4385278 174.963194988 1109.4385278 138.5 1027 c 0,38,39
 127 1001 127 1001 118.5 976.5 c 0,40,41
 80.8571428571 868 80.8571428571 868 57 868 c 0,42,43
 53 868 53 868 40 872 c 1,44,-1
 73 1189 l 1,0,1
EndSplineSet
EndChar

StartChar: U
Encoding: 85 85 23
Width: 1550
Flags: W
HStem: -28 89<683.295 997.078> 1126.33 49.6667<510.885 668.962 1034.49 1199.14 1371.68 1563.12>
VStem: 226 215<314.299 1083.83> 1257 68<324.44 1090.56>
LayerCount: 2
Fore
SplineSet
15 1154 m 0,0,1
 15 1164 15 1164 21 1176 c 1,2,-1
 665 1176 l 1,3,4
 670 1161 670 1161 670 1158 c 0,5,6
 670 1134.66666667 670 1134.66666667 627.5 1126.33333333 c 128,-1,7
 585 1118 585 1118 555.5 1113 c 0,8,9
 441 1093.59322034 441 1093.59322034 441 1030 c 2,10,-1
 441 554 l 2,11,12
 441 322.025210084 441 322.025210084 566.25 191.512605042 c 128,-1,13
 691.5 61 691.5 61 857 61 c 128,-1,14
 1022.5 61 1022.5 61 1139.75 183.531531532 c 128,-1,15
 1257 306.063063063 1257 306.063063063 1257 528 c 2,16,-1
 1257 1036 l 2,17,18
 1257 1098.12068966 1257 1098.12068966 1145 1115.5 c 0,19,20
 1070.14659686 1127.11518325 1070.14659686 1127.11518325 1051.57329843 1135.55759162 c 128,-1,21
 1033 1144 1033 1144 1033 1159 c 0,22,23
 1033 1161 1033 1161 1037 1176 c 1,24,-1
 1559 1176 l 1,25,26
 1564 1161 1564 1161 1564 1157 c 0,27,28
 1564 1132.53703704 1564 1132.53703704 1519.5 1126.76851852 c 128,-1,29
 1475 1121 1475 1121 1444.5 1118 c 0,30,31
 1325 1106.24590164 1325 1106.24590164 1325 1042 c 2,32,-1
 1325 526 l 2,33,34
 1325 262.019047619 1325 262.019047619 1159.5 117.00952381 c 128,-1,35
 994 -28 994 -28 771.25 -28 c 128,-1,36
 548.5 -28 548.5 -28 387.25 113.225490196 c 128,-1,37
 226 254.450980392 226 254.450980392 226 508 c 2,38,-1
 226 1020 l 2,39,40
 226 1081.56363636 226 1081.56363636 120.5 1106.5 c 128,-1,41
 15 1131.43636364 15 1131.43636364 15 1154 c 0,0,1
EndSplineSet
EndChar

StartChar: V
Encoding: 86 86 24
Width: 1345
Flags: W
HStem: -12 21G<664.5 693.5> 1116 60<-23 27 431.018 605 1204.71 1389.95> 1135 41<812.438 865.251>
DStem2: 740 209 717 8 0.38612 0.922449<0 864.044>
LayerCount: 2
Fore
SplineSet
605 1176 m 1,0,-1
 619 1140 l 1,1,2
 619 1120.10526316 619 1120.10526316 569.5 1110.55263158 c 128,-1,3
 520 1101 520 1101 490 1097 c 128,-1,4
 460 1093 460 1093 442 1089 c 0,5,6
 400 1080 400 1080 400 1050 c 0,7,8
 400 1041 400 1041 405 1028 c 2,9,-1
 740 209 l 1,10,-1
 1041 997 l 2,11,12
 1052 1024.5 1052 1024.5 1052 1046.75 c 128,-1,13
 1052 1069 1052 1069 1032.5 1078 c 128,-1,14
 1013 1087 1013 1087 942.766233766 1096.72467532 c 128,-1,15
 872.532467532 1106.44935065 872.532467532 1106.44935065 819 1135 c 1,16,17
 812 1136 812 1136 812 1149 c 128,-1,18
 812 1162 812 1162 819 1176 c 1,19,-1
 1385 1176 l 1,20,21
 1391 1166 1391 1166 1391 1152.5 c 0,22,23
 1391 1114.06897688 1391 1114.06897688 1271.8699422 1098.67052023 c 0,24,25
 1196.9244489 1088.98325112 1196.9244489 1088.98325112 1176.17885208 1073.82300729 c 128,-1,26
 1155.43325527 1058.66276347 1155.43325527 1058.66276347 1136 1009 c 1,27,-1
 717 8 l 2,28,29
 708 -12 708 -12 679 -12 c 128,-1,30
 650 -12 650 -12 641 8 c 2,31,-1
 191 1020 l 2,32,33
 168.975186104 1067.19602978 168.975186104 1067.19602978 91 1094 c 0,34,35
 59 1105 59 1105 27 1116 c 128,-1,36
 -5 1127 -5 1127 -29 1146 c 1,37,-1
 -23 1176 l 1,38,-1
 605 1176 l 1,0,-1
EndSplineSet
EndChar

StartChar: W
Encoding: 87 87 25
Width: 1834
Flags: W
HStem: -12 23G<576.5 607.5 1267 1299> 1126 50<-21 81.832 419.323 561.953 1124.12 1282.99> 1148 28<701 730.361 1823.14 1880.35>
DStem2: 663 324 173 1020 0.351529 -0.936177<-787.591 0> 663 324 629 8 0.328274 0.944582<0 634.683> 1116 1046 939 900 0.324487 -0.94589<80.6658 755.348> 1345 326 1321 8 0.289547 0.957164<0 791.875>
LayerCount: 2
Fore
SplineSet
939 900 m 1,0,-1
 629 8 l 2,1,2
 623 -12 623 -12 592 -12 c 128,-1,3
 561 -12 561 -12 553 8 c 2,4,-1
 173 1020 l 2,5,6
 154.566484517 1070.69216758 154.566484517 1070.69216758 79.5 1102.5 c 0,7,8
 50 1115 50 1115 21 1126 c 128,-1,9
 -8 1137 -8 1137 -27 1156 c 1,10,-1
 -21 1176 l 1,11,-1
 557 1176 l 1,12,13
 562 1161 562 1161 562 1152 c 128,-1,14
 562 1143 562 1143 550 1136.5 c 128,-1,15
 538 1130 538 1130 520.5 1126.5 c 128,-1,16
 503 1123 503 1123 482.5 1121 c 0,17,18
 403 1113.24390244 403 1113.24390244 403 1068 c 0,19,20
 403 1057 403 1057 407 1046 c 2,21,-1
 663 324 l 1,22,-1
 905 969 l 1,23,-1
 861 1077 l 1,24,25
 841.625 1094.99107143 841.625 1094.99107143 803.8125 1108.49553571 c 2,26,-1
 743.5 1129.5 l 2,27,28
 721 1137 721 1137 701 1148 c 1,29,30
 695 1149 695 1149 695 1158 c 1,31,-1
 701 1176 l 1,32,-1
 1278 1176 l 1,33,34
 1283 1161 1283 1161 1283 1151.5 c 128,-1,35
 1283 1142 1283 1142 1270.5 1135 c 128,-1,36
 1258 1128 1258 1128 1238.5 1125 c 128,-1,37
 1219 1122 1219 1122 1197 1121 c 0,38,39
 1111 1117.09090909 1111 1117.09090909 1111 1074 c 0,40,41
 1111 1060 1111 1060 1116 1046 c 2,42,-1
 1345 326 l 1,43,-1
 1578 1052 l 2,44,45
 1581 1064 1581 1064 1581 1082.5 c 128,-1,46
 1581 1101 1581 1101 1565.5 1109.5 c 128,-1,47
 1550 1118 1550 1118 1524.5 1120.5 c 128,-1,48
 1499 1123 1499 1123 1466.5 1126.5 c 128,-1,49
 1434 1130 1434 1130 1414.5 1140 c 128,-1,50
 1395 1150 1395 1150 1395 1157 c 128,-1,51
 1395 1164 1395 1164 1400 1176 c 1,52,-1
 1865 1176 l 1,53,54
 1881 1172 1881 1172 1881 1166 c 0,55,56
 1881 1147.92 1881 1147.92 1839.5 1137.96 c 128,-1,57
 1798 1128 1798 1128 1768.5 1122 c 0,58,59
 1650.84760408 1098.07069914 1650.84760408 1098.07069914 1635 1046 c 2,60,-1
 1321 8 l 2,61,62
 1315 -10 1315 -10 1283 -10 c 256,63,64
 1251 -10 1251 -10 1245 8 c 2,65,-1
 939 900 l 1,0,-1
EndSplineSet
EndChar

StartChar: X
Encoding: 88 88 26
Width: 1281
Flags: W
HStem: 0 48.5<371.373 473.793 657.234 807.105> 1126 50<516 652.346>
DStem2: 230 130 308 124 0.598319 0.801258<19.2545 518.463 741.195 1164.29> 676 722 556 563 0.545374 -0.838193<-401.484 0 67.1176 67.8277 135.784 608.484>
LayerCount: 2
Fore
SplineSet
30 1149 m 1,0,-1
 34 1176 l 1,1,-1
 650 1176 l 1,2,3
 654 1165 654 1165 654 1156.5 c 128,-1,4
 654 1148 654 1148 640 1140.5 c 128,-1,5
 626 1133 626 1133 604.5 1126 c 128,-1,6
 583 1119 583 1119 558 1113 c 0,7,8
 462 1089.96 462 1089.96 462 1062 c 0,9,10
 462 1054 462 1054 470 1040 c 2,11,-1
 676 722 l 1,12,-1
 916 1040 l 2,13,14
 925 1052 925 1052 925 1064.5 c 0,15,16
 925 1082.93548387 925 1082.93548387 849 1105 c 2,17,-1
 786.5 1124 l 2,18,19
 732 1141.3015873 732 1141.3015873 732 1159 c 0,20,21
 732 1161 732 1161 736 1176 c 1,22,-1
 1232 1176 l 1,23,24
 1236 1165 1236 1165 1236 1157.5 c 128,-1,25
 1236 1150 1236 1150 1226.5 1144 c 0,26,27
 1210.05769231 1133.61538462 1210.05769231 1133.61538462 1174 1124 c 2,28,-1
 1147 1117 l 1,29,30
 1096 1105 1096 1105 1057 1090 c 128,-1,31
 1018 1075 1018 1075 992 1040 c 2,32,-1
 713 666 l 1,33,-1
 1066 124 l 2,34,35
 1101.29656553 68.113771242 1101.29656553 68.113771242 1180.79422383 56.2527075812 c 0,36,37
 1294 39.3623872026 1294 39.3623872026 1294 17 c 0,38,39
 1294 13 1294 13 1290 0 c 1,40,-1
 660 0 l 1,41,42
 656 8 656 8 656 18.5 c 128,-1,43
 656 29 656 29 670 36 c 128,-1,44
 684 43 684 43 705.5 48.5 c 128,-1,45
 727 54 727 54 751.5 59 c 128,-1,46
 776 64 776 64 811.5 73.9069767442 c 128,-1,47
 847 83.8139534884 847 83.8139534884 847 107 c 0,48,49
 847 117 847 117 840 130 c 1,50,-1
 593 506 l 1,51,-1
 308 124 l 2,52,53
 298 111 298 111 298 103 c 0,54,55
 298 82.1818181818 298 82.1818181818 345.5 70.0909090909 c 2,56,-1
 422.5 50 l 2,57,58
 476 35.4915254237 476 35.4915254237 476 17 c 0,59,60
 476 13 476 13 472 0 c 1,61,-1
 10 0 l 1,62,63
 6 8 6 8 6 16.5 c 0,64,65
 6 42.5291529153 6 42.5291529153 93.4545454545 56.5757575758 c 0,66,67
 145.226691954 64.8911958475 145.226691954 64.8911958475 173.73909448 79.6072745704 c 128,-1,68
 202.251497006 94.3233532934 202.251497006 94.3233532934 230 130 c 2,69,-1
 556 563 l 1,70,-1
 244 1030 l 1,71,72
 216.667651403 1068.72082718 216.667651403 1068.72082718 123.333825702 1093.48286257 c 128,-1,73
 30 1118.24489796 30 1118.24489796 30 1149 c 1,0,-1
EndSplineSet
EndChar

StartChar: Y
Encoding: 89 89 27
Width: 1139
Flags: W
HStem: 0 41<234.037 394.504 748.29 912.574> 1122.08 53.9167<1008.55 1184.01>
VStem: 465 215<70.172 530>
DStem2: 651 630 465 530 0.488603 -0.872506<-488.881 -3.62963> 651 630 680 580 0.500591 0.865684<0 482.437>
LayerCount: 2
Fore
SplineSet
465 530 m 1,0,-1
 185 1030 l 2,1,2
 174.020467836 1049.76315789 174.020467836 1049.76315789 109.010233918 1082.88157895 c 2,3,-1
 22 1127.5 l 2,4,5
 -29 1154.15909091 -29 1154.15909091 -29 1157.57954545 c 128,-1,6
 -29 1161 -29 1161 -25 1176 c 1,7,-1
 601 1176 l 1,8,9
 605 1165 605 1165 605 1156.5 c 128,-1,10
 605 1148 605 1148 591 1140.5 c 128,-1,11
 577 1133 577 1133 556 1126 c 128,-1,12
 535 1119 535 1119 510.5 1112.5 c 128,-1,13
 486 1106 486 1106 451 1093.5 c 128,-1,14
 416 1081 416 1081 416 1059 c 0,15,16
 416 1050 416 1050 421 1040 c 2,17,-1
 651 630 l 1,18,-1
 865 1040 l 2,19,20
 871 1050 871 1050 871 1064 c 0,21,22
 871 1087.39655172 871 1087.39655172 791.660060976 1107.91550147 c 128,-1,23
 712.320121951 1128.43445122 712.320121951 1128.43445122 697.660060976 1139.71722561 c 128,-1,24
 683 1151 683 1151 683 1156 c 128,-1,25
 683 1161 683 1161 687 1176 c 1,26,-1
 1183 1176 l 1,27,28
 1187 1165 1187 1165 1187 1158 c 0,29,30
 1187 1134.16666667 1187 1134.16666667 1114.5 1122.08333333 c 128,-1,31
 1042 1110 1042 1110 1005 1094 c 128,-1,32
 968 1078 968 1078 946 1040 c 2,33,-1
 680 580 l 1,34,-1
 680 124 l 2,35,36
 680 64.4590163934 680 64.4590163934 796.5 53 c 0,37,38
 869.88697318 45.7816091954 869.88697318 45.7816091954 891.44348659 38.3908045977 c 128,-1,39
 913 31 913 31 913 17 c 0,40,41
 913 13 913 13 909 0 c 1,42,-1
 239 0 l 1,43,44
 234 10 234 10 234 22 c 128,-1,45
 234 34 234 34 251 41 c 128,-1,46
 268 48 268 48 294 50.5 c 128,-1,47
 320 53 320 53 349.5 55 c 0,48,49
 465 62.8305084746 465 62.8305084746 465 130 c 2,50,-1
 465 530 l 1,0,-1
EndSplineSet
EndChar

StartChar: a
Encoding: 97 97 28
Width: 991
Flags: W
HStem: -17 81<237.335 487.034> 426 33<567.878 616> 846 56<326.472 546.112>
VStem: 68 217<77.4973 287.372> 103 175<636.736 801.387> 616 206<82.5 135 136.277 426 453.636 754.729>
LayerCount: 2
Fore
SplineSet
334.857142857 822.588235294 m 128,-1,1
 278 799.176470588 278 799.176470588 278 764 c 0,2,3
 278 746 278 746 288 723 c 128,-1,4
 298 700 298 700 298 662.5 c 128,-1,5
 298 625 298 625 271 602 c 128,-1,6
 244 579 244 579 217 579 c 0,7,8
 167 579 167 579 135 608.866666667 c 128,-1,9
 103 638.733333333 103 638.733333333 103 686.366666667 c 128,-1,10
 103 734 103 734 122.5 767.5 c 128,-1,11
 142 801 142 801 173 824.5 c 0,12,13
 275.234042553 902 275.234042553 902 473.470588235 902 c 0,14,15
 646.113636364 902 646.113636364 902 734.056818182 816.011111111 c 128,-1,16
 822 730.022222222 822 730.022222222 822 528 c 2,17,-1
 822 131 l 2,18,19
 822 82.2307692308 822 82.2307692308 896.5 76.5 c 0,20,21
 947.390243902 72.5853658537 947.390243902 72.5853658537 959.195121951 68.2926829268 c 128,-1,22
 971 64 971 64 971 50 c 0,23,24
 971 21.1428571429 971 21.1428571429 904.25 2.07142857143 c 128,-1,25
 837.5 -17 837.5 -17 778.25 -17 c 128,-1,26
 719 -17 719 -17 694.5 -3.5 c 128,-1,27
 670 10 670 10 646 43 c 128,-1,28
 622 76 622 76 622 135 c 1,29,30
 558.213114754 28.6885245902 558.213114754 28.6885245902 394 -6.5 c 0,31,32
 345 -17 345 -17 291.5 -17 c 0,33,34
 183.170212766 -17 183.170212766 -17 125.585106383 31.3303571429 c 128,-1,35
 68 79.6607142857 68 79.6607142857 68 151.830357143 c 0,36,37
 68 289.266666667 68 289.266666667 201.5 357.5 c 0,38,39
 317.149807939 416.609901835 317.149807939 416.609901835 616 459 c 1,40,-1
 616 588 l 2,41,42
 616 711.485714286 616 711.485714286 594 756.742857143 c 0,43,44
 550.611111111 846 550.611111111 846 471.162698413 846 c 128,-1,0
 391.714285714 846 391.714285714 846 334.857142857 822.588235294 c 128,-1,1
285 183 m 0,45,46
 285 64 285 64 384 64 c 0,47,48
 462.41025641 64 462.41025641 64 561.5 129.5 c 0,49,50
 591 149 591 149 616 171 c 1,51,-1
 616 426 l 1,52,53
 349.067484663 350.134969325 349.067484663 350.134969325 301.5 255 c 0,54,55
 285 222 285 222 285 183 c 0,45,46
EndSplineSet
Substitution2: "'smcp' Lowercase to Small Capitals in Latin lookup 3 subtable" a.sc
EndChar

StartChar: b
Encoding: 98 98 29
Width: 1114
Flags: W
HStem: -17 81<409.105 723.954> 790 112<502.511 732.95> 1294 20G<247.286 361>
VStem: 155 206<105.033 691.398 729 1170.11> 832 205<202.442 657.552>
LayerCount: 2
Fore
SplineSet
361 729 m 1,0,1
 490.75 902 490.75 902 673 902 c 0,2,3
 726 902 726 902 795.5 868 c 128,-1,4
 865 834 865 834 918.5 773.5 c 0,5,6
 1037 639.495327103 1037 639.495327103 1037 429.411299915 c 128,-1,7
 1037 219.327272727 1037 219.327272727 922.98245614 101.163636364 c 128,-1,8
 808.964912281 -17 808.964912281 -17 645.166666667 -17 c 128,-1,9
 481.368421053 -17 481.368421053 -17 306 51 c 1,10,11
 221 -17 221 -17 176 -17 c 256,12,13
 155 -17 155 -17 155 20 c 2,14,-1
 155 1122 l 2,15,16
 155 1163.02 155 1163.02 57 1188.5 c 2,17,-1
 10 1201 l 2,18,19
 -41 1214.90909091 -41 1214.90909091 -41 1227 c 256,20,21
 -41 1235 -41 1235 -37 1244 c 1,22,-1
 361 1314 l 1,23,-1
 361 729 l 1,0,1
361 134 m 1,24,25
 445 64 445 64 610 64 c 0,26,27
 719.333333333 64 719.333333333 64 775.666666667 165.4 c 128,-1,28
 832 266.8 832 266.8 832 433 c 0,29,30
 832 704.141176471 832 704.141176471 696.5 769.5 c 0,31,32
 654 790 654 790 601.5 790 c 0,33,34
 513.965517241 790 513.965517241 790 429 713 c 1,35,36
 391 680 391 680 361 637 c 1,37,-1
 361 134 l 1,24,25
EndSplineSet
Substitution2: "'smcp' Lowercase to Small Capitals in Latin lookup 3 subtable" b.sc
EndChar

StartChar: c
Encoding: 99 99 30
Width: 940
Flags: W
HStem: -17 112<416.513 755.186> 846 56<464.675 686.007>
VStem: 75 206<243.638 649.121> 708 177<653.059 815.69>
LayerCount: 2
Fore
SplineSet
854 119 m 1,0,-1
 855 108 l 1,1,2
 855 96 855 96 849 90 c 0,3,4
 734.074074074 -17 734.074074074 -17 532.343759726 -17 c 128,-1,5
 330.613445378 -17 330.613445378 -17 202.806722689 107.663934426 c 128,-1,6
 75 232.327868852 75 232.327868852 75 449.950141323 c 128,-1,7
 75 667.572413793 75 667.572413793 239.5 793.5 c 0,8,9
 381.234234234 902 381.234234234 902 576 902 c 0,10,11
 705.8 902 705.8 902 795.4 849.294117647 c 128,-1,12
 885 796.588235294 885 796.588235294 885 716.447963801 c 128,-1,13
 885 636.307692308 885 636.307692308 814.5 611 c 0,14,15
 795 604 795 604 768 604 c 128,-1,16
 741 604 741 604 714.5 625.5 c 128,-1,17
 688 647 688 647 688 681.5 c 128,-1,18
 688 716 688 716 698 736.5 c 128,-1,19
 708 757 708 757 708 782.5 c 128,-1,20
 708 808 708 808 673 827 c 128,-1,21
 638 846 638 846 588.5 846 c 0,22,23
 472.329545455 846 472.329545455 846 386.5 763 c 0,24,25
 281 660.978021978 281 660.978021978 281 472 c 0,26,27
 281 199 281 199 446 121 c 0,28,29
 501 95 501 95 559 95 c 128,-1,30
 617 95 617 95 649 97 c 0,31,32
 707.469135802 100.654320988 707.469135802 100.654320988 771 115 c 2,33,-1
 842 131 l 1,34,35
 854 131 854 131 854 119 c 1,0,-1
EndSplineSet
Substitution2: "'smcp' Lowercase to Small Capitals in Latin lookup 3 subtable" c.sc
EndChar

StartChar: d
Encoding: 100 100 31
Width: 1187
Flags: W
HStem: -17 95<404.791 673.276> 833 69<414.916 642.675> 1294 20G<877.286 991>
VStem: 77 206<210.545 660.255> 785 206<154.79 730.131 775 1170.11>
LayerCount: 2
Fore
SplineSet
785 683 m 1,0,1
 660 833 660 833 521.5 833 c 0,2,3
 405.307692308 833 405.307692308 833 344.153846154 711.728813559 c 128,-1,4
 283 590.457627119 283 590.457627119 283 420.105525888 c 128,-1,5
 283 249.753424658 283 249.753424658 358.530120482 163.876712329 c 128,-1,6
 434.060240964 78 434.060240964 78 555 78 c 256,7,8
 696.486486486 78 696.486486486 78 785 209 c 1,9,-1
 785 683 l 1,0,1
785 1122 m 2,10,11
 785 1163.02 785 1163.02 687 1188.5 c 2,12,-1
 640 1201 l 2,13,14
 589 1214.90909091 589 1214.90909091 589 1227 c 256,15,16
 589 1235 589 1235 593 1244 c 1,17,-1
 991 1314 l 1,18,-1
 991 184 l 2,19,20
 991 123.145833333 991 123.145833333 1082 98.5 c 128,-1,21
 1173 73.8541666667 1173 73.8541666667 1173 49.5 c 0,22,23
 1173 38 1173 38 1168 28 c 1,24,-1
 818 -5 l 1,25,-1
 798 158 l 1,26,27
 709.754473873 24.1102362205 709.754473873 24.1102362205 603 -6 c 0,28,29
 564 -17 564 -17 494 -17 c 128,-1,30
 424 -17 424 -17 344 10 c 128,-1,31
 264 37 264 37 205 91 c 0,32,33
 77 208.152542373 77 208.152542373 77 423.576271186 c 128,-1,34
 77 639 77 639 189.714285714 770.5 c 128,-1,35
 302.428571429 902 302.428571429 902 489 902 c 0,36,37
 594.333333333 902 594.333333333 902 701 838 c 0,38,39
 748 810 748 810 785 775 c 1,40,-1
 785 1122 l 2,10,11
EndSplineSet
Substitution2: "'smcp' Lowercase to Small Capitals in Latin lookup 3 subtable" d.sc
EndChar

StartChar: e
Encoding: 101 101 32
Width: 955
Flags: W
HStem: -17 112<409.434 736.464> 472 60<408.299 700.718> 846 56<431.046 623.519>
VStem: 75 203<227.536 517.729> 710 179<536.985 726.603>
LayerCount: 2
Fore
SplineSet
859.5 696 m 0,0,1
 889 626 889 626 889 564 c 128,-1,2
 889 502 889 502 885 472 c 1,3,-1
 281 472 l 1,4,5
 278 442 278 442 278 383.5 c 128,-1,6
 278 325 278 325 303.5 264 c 128,-1,7
 329 203 329 203 372.5 165.5 c 0,8,9
 454.28 95 454.28 95 577.228235294 95 c 128,-1,10
 700.176470588 95 700.176470588 95 823 131 c 1,11,12
 834 131 834 131 834 117 c 256,13,14
 834 95 834 95 829 90 c 0,15,16
 713.924528302 -17 713.924528302 -17 522.76898684 -17 c 128,-1,17
 331.613445378 -17 331.613445378 -17 203.306722689 108.151639344 c 128,-1,18
 75 233.303278689 75 233.303278689 75 441.751639344 c 128,-1,19
 75 650.2 75 650.2 214.888888889 776.1 c 128,-1,20
 354.777777778 902 354.777777778 902 518.410866911 902 c 0,21,22
 772.685714286 902 772.685714286 902 859.5 696 c 0,0,1
710 568 m 0,23,24
 710 846 710 846 531 846 c 0,25,26
 423.287234043 846 423.287234043 846 359.441843185 747.615299335 c 128,-1,27
 295.596452328 649.23059867 295.596452328 649.23059867 282 511 c 1,28,-1
 680 532 l 2,29,30
 692 532 692 532 701 542 c 128,-1,31
 710 552 710 552 710 568 c 0,23,24
EndSplineSet
Substitution2: "'smcp' Lowercase to Small Capitals in Latin lookup 3 subtable" e.sc
EndChar

StartChar: h
Encoding: 104 104 33
Width: 1239
Flags: W
HStem: 0 49.5<3.71777 167.156 444.585 600.288 704.255 767.396> 833 69<574.424 792.312> 1294 20G<299 413>
VStem: 206 207<71.3728 704.071 737 1170.11> 867 206<65.3542 716.512>
LayerCount: 2
Fore
SplineSet
701 833 m 0,0,1
 537.150943396 833 537.150943396 833 413 645 c 1,2,-1
 413 120 l 2,3,4
 413 70.4285714286 413 70.4285714286 507.5 55 c 0,5,6
 570.203389831 44.7627118644 570.203389831 44.7627118644 586.101694915 37.3813559322 c 128,-1,7
 602 30 602 30 602 17 c 0,8,9
 602 13 602 13 598 0 c 1,10,-1
 8 0 l 1,11,12
 3 10 3 10 3 20.5 c 128,-1,13
 3 31 3 31 18 38 c 128,-1,14
 33 45 33 45 56 49.5 c 128,-1,15
 79 54 79 54 105 57.5 c 0,16,17
 207 71.2307692308 207 71.2307692308 207 126 c 2,18,-1
 206 1122 l 2,19,20
 206 1163.02 206 1163.02 108 1188.5 c 2,21,-1
 61 1201 l 2,22,23
 10 1214.90909091 10 1214.90909091 10 1227 c 256,24,25
 10 1235 10 1235 14 1244 c 1,26,-1
 413 1314 l 1,27,-1
 413 737 l 1,28,29
 476.066271552 824.910560345 476.066271552 824.910560345 592 876 c 0,30,31
 651 902 651 902 729.5 902 c 0,32,33
 891.324074074 902 891.324074074 902 982.162037037 791.769662921 c 128,-1,34
 1073 681.539325843 1073 681.539325843 1073 462 c 2,35,-1
 1073 122 l 2,36,37
 1073 68.7317073171 1073 68.7317073171 1150.5 55.5 c 128,-1,38
 1228 42.2682926829 1228 42.2682926829 1228 17 c 0,39,40
 1228 13 1228 13 1224 0 c 1,41,-1
 708 0 l 1,42,43
 703 10 703 10 703 19.5 c 0,44,45
 703 35.8108108108 703 35.8108108108 745.5 45 c 2,46,-1
 785 53.5 l 2,47,48
 867 71.0714285714 867 71.0714285714 867 122 c 2,49,-1
 867 538 l 2,50,51
 867 678.837837838 867 678.837837838 843.5 730.918918919 c 0,52,53
 797.43902439 833 797.43902439 833 701 833 c 0,0,1
EndSplineSet
Substitution2: "'smcp' Lowercase to Small Capitals in Latin lookup 3 subtable" h.sc
EndChar

StartChar: i
Encoding: 105 105 34
Width: 618
Flags: W
HStem: 0 49.5<33.3525 181.867 449.118 600.979> 863 20G<321.647 424> 983 245<215.098 378.469>
VStem: 179 245<1019.1 1190.26> 218 206<70.1738 759.216>
LayerCount: 2
Fore
SplineSet
424 120 m 2,0,1
 424 66.0434782609 424 66.0434782609 513 52.5 c 0,2,3
 573.048648649 43.3621621622 573.048648649 43.3621621622 587.524324324 36.6810810811 c 128,-1,4
 602 30 602 30 602 19.5 c 128,-1,5
 602 9 602 9 598 0 c 1,6,-1
 37 0 l 1,7,8
 33 13 33 13 33 22 c 128,-1,9
 33 31 33 31 46.5 38 c 128,-1,10
 60 45 60 45 81 49.5 c 128,-1,11
 102 54 102 54 125.5 57.5 c 0,12,13
 218 71.2765957447 218 71.2765957447 218 126 c 2,14,-1
 218 705 l 2,15,16
 218 754.692307692 218 754.692307692 144.5 766 c 128,-1,17
 71 777.307692308 71 777.307692308 71 794.5 c 0,18,19
 71 803 71 803 76 815 c 1,20,-1
 424 883 l 1,21,-1
 424 120 l 2,0,1
179 1104 m 256,22,23
 179 1154.8125 179 1154.8125 213.441176471 1191.40625 c 128,-1,24
 247.882352941 1228 247.882352941 1228 300 1228 c 256,25,26
 353.558823529 1228 353.558823529 1228 379.279411765 1201.5 c 0,27,28
 424 1155.42424242 424 1155.42424242 424 1104 c 256,29,30
 424 1052.42424242 424 1052.42424242 388.203125 1017.71212121 c 128,-1,31
 352.40625 983 352.40625 983 300 983 c 256,32,33
 249 983 249 983 214 1018 c 128,-1,34
 179 1053 179 1053 179 1104 c 256,22,23
EndSplineSet
Substitution2: "'smcp' Lowercase to Small Capitals in Latin lookup 3 subtable" i.sc
EndChar

StartChar: l
Encoding: 108 108 35
Width: 596
Flags: W
HStem: 0 49.5<12.3525 160.062 427.118 578.979> 1294 20G<288 402>
VStem: 196 206<70.1738 1169.15>
LayerCount: 2
Fore
SplineSet
195 1122 m 2,0,1
 195 1163.02 195 1163.02 97 1188.5 c 2,2,-1
 50 1201 l 2,3,4
 -1 1214.90909091 -1 1214.90909091 -1 1227 c 256,5,6
 -1 1235 -1 1235 3 1244 c 1,7,-1
 402 1314 l 1,8,-1
 402 120 l 2,9,10
 402 66.0434782609 402 66.0434782609 491 52.5 c 0,11,12
 551.048648649 43.3621621622 551.048648649 43.3621621622 565.524324324 36.6810810811 c 128,-1,13
 580 30 580 30 580 19.5 c 128,-1,14
 580 9 580 9 576 0 c 1,15,-1
 16 0 l 1,16,17
 12 13 12 13 12 22 c 128,-1,18
 12 31 12 31 25.5 38 c 128,-1,19
 39 45 39 45 59.5 49.5 c 128,-1,20
 80 54 80 54 104 57.5 c 0,21,22
 196 70.9166666667 196 70.9166666667 196 126 c 2,23,-1
 195 1122 l 2,0,1
EndSplineSet
Substitution2: "'smcp' Lowercase to Small Capitals in Latin lookup 3 subtable" l.sc
EndChar

StartChar: m
Encoding: 109 109 36
Width: 1762
Flags: W
HStem: 0 45.5<51.2822 133.5 644.188 752.517 1231.18 1336.79> 833 69<562.182 745.101 1121.14 1325.13> 864 20G<208.316 404.963>
VStem: 216 206<67.8735 706.25> 803 206<70.4579 665.23> 1386 206<69.7858 735.25>
LayerCount: 2
Fore
SplineSet
672 833 m 0,0,1
 535.777777778 833 535.777777778 833 422 641 c 1,2,-1
 422 120 l 2,3,4
 422 69.3488372093 422 69.3488372093 504.5 54 c 0,5,6
 559.861035422 43.7002724796 559.861035422 43.7002724796 573.430517711 36.3501362398 c 128,-1,7
 587 29 587 29 587 19 c 128,-1,8
 587 9 587 9 583 0 c 1,9,-1
 55 0 l 1,10,11
 51 13 51 13 51 20.5 c 0,12,13
 51 35.1621621622 51 35.1621621622 93.5 45.5 c 2,14,-1
 133.5 55 l 2,15,16
 216 74.1860465116 216 74.1860465116 216 126 c 2,17,-1
 216 736 l 2,18,19
 216 785.551020408 216 785.551020408 122.5 797 c 128,-1,20
 29 808.448979592 29 808.448979592 29 825.5 c 0,21,22
 29 834 29 834 34 846 c 1,23,-1
 402 884 l 1,24,-1
 422 749 l 1,25,26
 475.436503249 831.063201418 475.436503249 831.063201418 583 878 c 0,27,28
 638 902 638 902 723.5 902 c 128,-1,29
 809 902 809 902 878 857 c 128,-1,30
 947 812 947 812 976 734 c 1,31,32
 1076.08510638 902 1076.08510638 902 1254.54255319 902 c 128,-1,33
 1433 902 1433 902 1512.5 796 c 128,-1,34
 1592 690 1592 690 1592 460 c 2,35,-1
 1592 122 l 2,36,37
 1592 72.1351351351 1592 72.1351351351 1664.5 54.5 c 128,-1,38
 1737 36.8648648649 1737 36.8648648649 1737 21 c 0,39,40
 1737 13 1737 13 1732 0 c 1,41,-1
 1235 0 l 1,42,43
 1231 13 1231 13 1231 21 c 128,-1,44
 1231 29 1231 29 1242.5 36.5 c 128,-1,45
 1254 44 1254 44 1271 49.5 c 128,-1,46
 1288 55 1288 55 1308.5 59.5 c 0,47,48
 1386 76.512195122 1386 76.512195122 1386 122 c 2,49,-1
 1386 514 l 2,50,51
 1386 679.806451613 1386 679.806451613 1368 730.903225806 c 128,-1,52
 1350 782 1350 782 1317.5 807.5 c 128,-1,53
 1285 833 1285 833 1242.5 833 c 0,54,55
 1097.04347826 833 1097.04347826 833 996 667 c 1,56,57
 1009 611.1 1009 611.1 1009 460 c 2,58,-1
 1009 122 l 2,59,60
 1009 73.1860465116 1009 73.1860465116 1093.5 55.5 c 0,61,62
 1149.63173653 43.751497006 1149.63173653 43.751497006 1163.81586826 36.375748503 c 128,-1,63
 1178 29 1178 29 1178 19 c 128,-1,64
 1178 9 1178 9 1174 0 c 1,65,-1
 648 0 l 1,66,67
 644 13 644 13 644 21 c 128,-1,68
 644 29 644 29 656 36.5 c 128,-1,69
 668 44 668 44 685.5 49.5 c 128,-1,70
 703 55 703 55 723.5 59.5 c 0,71,72
 803 76.9512195122 803 76.9512195122 803 122 c 2,73,-1
 803 551 l 2,74,75
 803 679.4 803 679.4 784 730.7 c 0,76,77
 746.111111111 833 746.111111111 833 672 833 c 0,0,1
EndSplineSet
Substitution2: "'smcp' Lowercase to Small Capitals in Latin lookup 3 subtable" m.sc
EndChar

StartChar: n
Encoding: 110 110 37
Width: 1244
Flags: W
HStem: 0 49<53.4414 192.301 450.113 609 712.659 839.945 1096.12 1219.37> 833 69<585.415 798.718> 860 20G<208.316 404.778>
VStem: 216 206<65.1457 703.385> 871 206<66.2005 715.54>
LayerCount: 2
Fore
SplineSet
56 0 m 1,0,1
 51 15 51 15 51 20 c 128,-1,2
 51 25 51 25 67 34.5 c 128,-1,3
 83 44 83 44 111.5 49 c 128,-1,4
 140 54 140 54 163.5 60 c 0,5,6
 216 73.4042553191 216 73.4042553191 216 126 c 2,7,-1
 216 732 l 2,8,9
 216 781.551020408 216 781.551020408 122.5 793 c 128,-1,10
 29 804.448979592 29 804.448979592 29 821.5 c 0,11,12
 29 830 29 830 34 842 c 1,13,-1
 402 880 l 1,14,-1
 422 736 l 1,15,16
 483.949769349 825.052793439 483.949769349 825.052793439 602.5 876 c 0,17,18
 663 902 663 902 744 902 c 0,19,20
 909 902 909 902 993 787.5 c 128,-1,21
 1077 673 1077 673 1077 463 c 2,22,-1
 1077 117 l 2,23,24
 1077 72.0697674419 1077 72.0697674419 1128.5 56.5 c 0,25,26
 1150 50 1150 50 1175 45.5 c 128,-1,27
 1200 41 1200 41 1220 28 c 1,28,29
 1224 24 1224 24 1224 17 c 256,30,31
 1224 10 1224 10 1220 0 c 1,32,-1
 716 0 l 1,33,34
 712 13 712 13 712 21 c 128,-1,35
 712 29 712 29 724 35.5 c 128,-1,36
 736 42 736 42 753.5 46.5 c 128,-1,37
 771 51 771 51 791.5 55.5 c 0,38,39
 871 72.9512195122 871 72.9512195122 871 122 c 2,40,-1
 871 453 l 2,41,42
 871 659.2 871 659.2 850 718.6 c 128,-1,43
 829 778 829 778 791 805.5 c 128,-1,44
 753 833 753 833 705 833 c 0,45,46
 546.811320755 833 546.811320755 833 422 644 c 1,47,-1
 422 120 l 2,48,49
 422 66.2083333333 422 66.2083333333 516 52.5 c 0,50,51
 578.905263158 43.3263157895 578.905263158 43.3263157895 594.452631579 36.6631578947 c 128,-1,52
 610 30 610 30 610 19.5 c 128,-1,53
 610 9 610 9 606 0 c 1,54,-1
 56 0 l 1,0,1
EndSplineSet
Substitution2: "'smcp' Lowercase to Small Capitals in Latin lookup 3 subtable" n.sc
EndChar

StartChar: o
Encoding: 111 111 38
Width: 1112
Flags: W
HStem: -17 81<440.07 696.656> 846 56<443.525 655.637>
VStem: 74 206<238.503 651.632> 832 206<231.366 651.36>
LayerCount: 2
Fore
SplineSet
364.107843137 171.2375 m 128,-1,1
 448.215686275 64 448.215686275 64 570.196952048 64 c 128,-1,2
 692.178217822 64 692.178217822 64 762.089108911 170.984848485 c 128,-1,3
 832 277.96969697 832 277.96969697 832 401.984848485 c 0,4,5
 832 621.632911392 832 621.632911392 749.172897196 733.816455696 c 128,-1,6
 666.345794393 846 666.345794393 846 553.785800422 846 c 128,-1,7
 441.225806452 846 441.225806452 846 360.612903226 747.355263158 c 128,-1,8
 280 648.710526316 280 648.710526316 280 463.592763158 c 128,-1,0
 280 278.475 280 278.475 364.107843137 171.2375 c 128,-1,1
74 442 m 256,9,10
 74 658.296296296 74 658.296296296 217.043478261 780.148148148 c 128,-1,11
 360.086956522 902 360.086956522 902 555 902 c 256,12,13
 751 902 751 902 894.5 779.602941176 c 128,-1,14
 1038 657.205882353 1038 657.205882353 1038 441.454793028 c 128,-1,15
 1038 225.703703704 1038 225.703703704 895.543478261 104.351851852 c 128,-1,16
 753.086956522 -17 753.086956522 -17 557.339130435 -17 c 128,-1,17
 361.591304348 -17 361.591304348 -17 217.795652174 104.591911765 c 128,-1,18
 74 226.183823529 74 226.183823529 74 442 c 256,9,10
EndSplineSet
Substitution2: "'smcp' Lowercase to Small Capitals in Latin lookup 3 subtable" o.sc
EndChar

StartChar: p
Encoding: 112 112 39
Width: 1173
Flags: W
HStem: -360 49<28.5383 158.989> -17 81<530.032 786.906> 790 112<538.368 784.64> 864 20G<131 377>
VStem: 203 204<-284.801 126 176.074 691.267> 889 206<204.384 672.155>
LayerCount: 2
Fore
SplineSet
673 64 m 0,0,1
 889 64 889 64 889 444 c 0,2,3
 889 693.615384615 889 693.615384615 755.5 765.5 c 0,4,5
 710 790 710 790 652.5 790 c 0,6,7
 559.862068966 790 559.862068966 790 476 714 c 1,8,9
 438 681 438 681 407 638 c 1,10,-1
 407 258 l 1,11,12
 466.402135231 109.494661922 466.402135231 109.494661922 603.5 72.5 c 0,13,14
 635 64 635 64 673 64 c 0,0,1
203 708 m 1,15,16
 198.434056761 762.791318865 198.434056761 762.791318865 101.5 787.5 c 1,17,-1
 54.5 800 l 2,18,19
 5 813.813953488 5 813.813953488 5 837 c 0,20,21
 5 839 5 839 9 854 c 1,22,-1
 375 884 l 1,23,-1
 393 704 l 1,24,25
 515.4 902 515.4 902 695.473504274 902 c 128,-1,26
 875.547008547 902 875.547008547 902 985.273504274 780.886792453 c 128,-1,27
 1095 659.773584906 1095 659.773584906 1095 439.224630291 c 128,-1,28
 1095 218.675675676 1095 218.675675676 980.263157895 100.837837838 c 128,-1,29
 865.526315789 -17 865.526315789 -17 677 -17 c 0,30,31
 583 -17 583 -17 517.5 16.5 c 128,-1,32
 452 50 452 50 406 126 c 1,33,-1
 406 -228 l 2,34,35
 406 -283.117647059 406 -283.117647059 504.5 -300.5 c 128,-1,36
 603 -317.882352941 603 -317.882352941 603 -338 c 0,37,38
 603 -347 603 -347 599 -360 c 1,39,-1
 33 -360 l 1,40,41
 28 -350 28 -350 28 -339.5 c 128,-1,42
 28 -329 28 -329 41 -322.5 c 128,-1,43
 54 -316 54 -316 73 -311 c 128,-1,44
 92 -306 92 -306 115 -301 c 0,45,46
 202 -282.086956522 202 -282.086956522 202 -228 c 2,47,-1
 203 708 l 1,15,16
EndSplineSet
Substitution2: "'smcp' Lowercase to Small Capitals in Latin lookup 3 subtable" p.sc
EndChar

StartChar: u
Encoding: 117 117 40
Width: 1213
Flags: W
HStem: -17 81<451.787 668.326> 860 20G<330.5 383 962.5 1014.94>
VStem: 177 206<150.796 779.623> 809 204<157.206 779.279>
LayerCount: 2
Fore
SplineSet
820 158 m 1,0,1
 700.85106383 -17 700.85106383 -17 490 -17 c 0,2,3
 355.326530612 -17 355.326530612 -17 266.163265306 81.1797752809 c 128,-1,4
 177 179.359550562 177 179.359550562 177 406 c 2,5,-1
 177 721 l 2,6,7
 177 774 177 774 91.5 793 c 2,8,-1
 50 802.5 l 2,9,10
 6 812.921052632 6 812.921052632 6 832 c 0,11,12
 6 837 6 837 9 849 c 1,13,14
 37 851 37 851 65.5 853.5 c 2,15,-1
 196 865 l 2,16,17
 278 872 278 872 383 880 c 1,18,-1
 383 408 l 2,19,20
 383 129.084745763 383 129.084745763 481.5 79 c 0,21,22
 511 64 511 64 544 64 c 256,23,24
 653.203703704 64 653.203703704 64 749.5 144 c 0,25,26
 782 171 782 171 809 208 c 1,27,-1
 809 724 l 2,28,29
 809 774.47826087 809 774.47826087 722 791.5 c 128,-1,30
 635 808.52173913 635 808.52173913 635 834 c 2,31,-1
 635 838 l 2,32,33
 635 841.5 635 841.5 638 849 c 1,34,35
 671 852 671 852 697.5 854 c 128,-1,36
 724 856 724 856 758 859 c 2,37,-1
 827 865 l 2,38,39
 910 872 910 872 1015 880 c 1,40,-1
 1013 184 l 2,41,42
 1013 123.145833333 1013 123.145833333 1104 98.5 c 128,-1,43
 1195 73.8541666667 1195 73.8541666667 1195 49.5 c 0,44,45
 1195 38 1195 38 1190 28 c 1,46,-1
 840 -5 l 1,47,-1
 820 158 l 1,0,1
EndSplineSet
Substitution2: "'smcp' Lowercase to Small Capitals in Latin lookup 3 subtable" u.sc
EndChar

StartChar: Thorn
Encoding: 222 222 46
Width: 1287
Flags: W
HStem: 0 50.5<64.3125 240.072 513.777 705.845> 280 58<487.501 852.326> 900 60<484 787.044> 1123 53<536.229 704.647>
VStem: 269 215<68.4154 298 345.034 900 960 1091.11> 1016 215<451.924 757.272>
LayerCount: 2
Fore
SplineSet
722 280 m 0,0,1
 610 280 610 280 484 298 c 1,2,-1
 484 124 l 2,3,4
 484 64.5862068966 484 64.5862068966 596 53 c 0,5,6
 667.975903614 45.5542168675 667.975903614 45.5542168675 687.987951807 38.2771084337 c 128,-1,7
 708 31 708 31 708 17 c 0,8,9
 708 13 708 13 704 0 c 1,10,-1
 69 0 l 1,11,12
 64 10 64 10 64 22 c 128,-1,13
 64 34 64 34 79 41 c 128,-1,14
 94 48 94 48 117 50.5 c 128,-1,15
 140 53 140 53 166.5 55 c 0,16,17
 269 62.7358490566 269 62.7358490566 269 130 c 2,18,-1
 269 1030 l 2,19,20
 269 1088.92307692 269 1088.92307692 167 1110.5 c 0,21,22
 102.051792829 1124.23904382 102.051792829 1124.23904382 83.5258964143 1134.11952191 c 128,-1,23
 65 1144 65 1144 65 1159 c 0,24,25
 65 1161 65 1161 69 1176 c 1,26,-1
 700 1176 l 1,27,28
 705 1161 705 1161 705 1152 c 128,-1,29
 705 1143 705 1143 688.5 1135.5 c 128,-1,30
 672 1128 672 1128 647.5 1123 c 128,-1,31
 623 1118 623 1118 594.5 1113 c 0,32,33
 484 1093.61403509 484 1093.61403509 484 1030 c 2,34,-1
 484 960 l 1,35,36
 962.075949367 960 962.075949367 960 1126 830.5 c 0,37,38
 1231 747.55 1231 747.55 1231 605 c 0,39,40
 1231 435.595588235 1231 435.595588235 1093.59090909 357.797794118 c 128,-1,41
 956.181818182 280 956.181818182 280 722 280 c 0,0,1
653 338 m 0,42,43
 1016 338 1016 338 1016 605 c 0,44,45
 1016 880.450819672 1016 880.450819672 600 897.5 c 0,46,47
 539 900 539 900 484 900 c 1,48,-1
 484 350 l 1,49,50
 582.4 338 582.4 338 653 338 c 0,42,43
EndSplineSet
EndChar

StartChar: germandbls
Encoding: 223 223 47
Width: 1235
Flags: W
HStem: -22 58<703.865 863.684> 0 50.5<30.2393 168.281> 580 62<613.282 761.987> 1116 60<502.963 734.653>
VStem: 191 206<63.3641 989.047> 552 131<51.2182 188.822> 849 170<713.246 1025.48> 960 206<124.231 449.903>
LayerCount: 2
Fore
SplineSet
1019 882 m 0,0,1
 1019 654.8 1019 654.8 805 612 c 1,2,3
 1044.34153132 581.607424594 1044.34153132 581.607424594 1133 432.5 c 0,4,5
 1166 377 1166 377 1166 300 c 0,6,7
 1166 142 1166 142 1065.5 60 c 128,-1,8
 965 -22 965 -22 781 -22 c 0,9,10
 682.47826087 -22 682.47826087 -22 617.239130435 27.1967213115 c 128,-1,11
 552 76.393442623 552 76.393442623 552 150 c 0,12,13
 552 181 552 181 575.5 202.5 c 128,-1,14
 599 224 599 224 628 224 c 128,-1,15
 657 224 657 224 677.5 203.5 c 128,-1,16
 698 183 698 183 698 161.5 c 128,-1,17
 698 140 698 140 690.5 126 c 128,-1,18
 683 112 683 112 683 100 c 256,19,20
 683 62.8888888889 683 62.8888888889 753 41.5 c 0,21,22
 771 36 771 36 793.5 36 c 128,-1,23
 816 36 816 36 847.5 53.5 c 128,-1,24
 879 71 879 71 904 104 c 0,25,26
 960 177.92 960 177.92 960 292 c 0,27,28
 960 498.01980198 960 498.01980198 803.5 560 c 0,29,30
 753 580 753 580 689 580 c 2,31,-1
 636 580 l 2,32,33
 622 580 622 580 613 589 c 128,-1,34
 604 598 604 598 604 611 c 128,-1,35
 604 624 604 624 612.5 633 c 128,-1,36
 621 642 621 642 635 642 c 0,37,38
 748 642 748 642 798.5 704.5 c 128,-1,39
 849 767 849 767 849 885.260869565 c 128,-1,40
 849 1003.52173913 849 1003.52173913 778.445454545 1059.76086957 c 128,-1,41
 707.890909091 1116 707.890909091 1116 602 1116 c 0,42,43
 446.468253968 1116 446.468253968 1116 408.5 908 c 0,44,45
 397 845 397 845 397 770 c 2,46,-1
 397 130 l 2,47,48
 397 62.875 397 62.875 460 55 c 0,49,50
 501.548387097 49.8064516129 501.548387097 49.8064516129 512.274193548 41.9032258065 c 128,-1,51
 523 34 523 34 523 22 c 128,-1,52
 523 10 523 10 518 0 c 1,53,-1
 35 0 l 1,54,55
 30 10 30 10 30 22 c 128,-1,56
 30 34 30 34 42 41 c 128,-1,57
 54 48 54 48 72 50.5 c 128,-1,58
 90 53 90 53 110.5 55 c 0,59,60
 191 62.8536585366 191 62.8536585366 191 130 c 2,61,-1
 191 773 l 2,62,63
 191 968 191 968 294 1072 c 128,-1,64
 397 1176 397 1176 589.263157895 1176 c 128,-1,65
 781.526315789 1176 781.526315789 1176 900.263157895 1096.14159292 c 128,-1,66
 1019 1016.28318584 1019 1016.28318584 1019 882 c 0,0,1
EndSplineSet
EndChar

StartChar: OE
Encoding: 338 338 48
Width: 2065
Flags: W
HStem: 0 64<587.137 1045.75 1456.61 1853.3> 0 43<1275.5 1751.55> 582 60<1264 1656.32> 874 21G<1913 1927> 1112 64<556.098 1048 1273.8 1826.74>
VStem: 90 215<349.017 816.348> 1049 215<71.5557 582 642 1110> 1877.5 70.5<875.424 1055.97> 1885.44 82.5612<110.136 276.756>
LayerCount: 2
Fore
SplineSet
1936 280 m 0,0,1
 1948 280 1948 280 1968 275 c 1,2,-1
 1940 -47 l 1,3,4
 1923 -52 1923 -52 1910 -52 c 0,5,6
 1893 -52 1893 -52 1854 -26 c 128,-1,7
 1815 0 1815 0 1772 0 c 2,8,-1
 734 0 l 2,9,10
 460.5 0 460.5 0 275.25 154.898305085 c 128,-1,11
 90 309.796610169 90 309.796610169 90 590 c 0,12,13
 90 771.888888889 90 771.888888889 187 912 c 0,14,15
 319.2870317 1103.08126801 319.2870317 1103.08126801 577.5 1159 c 0,16,17
 656 1176 656 1176 735 1176 c 0,18,19
 1022 1177 1022 1177 1250 1178 c 2,20,-1
 1785 1181 l 2,21,22
 1839.13333333 1181 1839.13333333 1181 1870.06666667 1197 c 2,23,-1
 1920 1223 l 1,24,25
 1923 1223 1923 1223 1948 1218 c 1,26,-1
 1948 880 l 1,27,28
 1934 874 1934 874 1920 874 c 128,-1,29
 1906 874 1906 874 1895.5 892 c 128,-1,30
 1885 910 1885 910 1877.5 936.5 c 128,-1,31
 1870 963 1870 963 1863 994.5 c 0,32,33
 1836.07457627 1115.66440678 1836.07457627 1115.66440678 1759 1118 c 2,34,-1
 1321 1126 l 2,35,36
 1283 1126 1283 1126 1273.5 1111.75 c 128,-1,37
 1264 1097.5 1264 1097.5 1264 1050 c 2,38,-1
 1264 642 l 1,39,-1
 1615 653 l 2,40,41
 1643 654 1643 654 1660 675.5 c 128,-1,42
 1677 697 1677 697 1690.5 722.5 c 128,-1,43
 1704 748 1704 748 1718 769.5 c 128,-1,44
 1732 791 1732 791 1744.83333333 791 c 128,-1,45
 1757.66666667 791 1757.66666667 791 1776 786 c 1,46,-1
 1776 444 l 1,47,48
 1764 438 1764 438 1753.5 438 c 128,-1,49
 1743 438 1743 438 1733 448.5 c 128,-1,50
 1723 459 1723 459 1713.5 474 c 128,-1,51
 1704 489 1704 489 1694 507 c 0,52,53
 1655.66666667 576 1655.66666667 576 1615 576 c 2,54,-1
 1264 582 l 1,55,-1
 1264 124 l 2,56,57
 1264 43 1264 43 1310 43 c 1,58,-1
 1772 58 l 2,59,60
 1864.24593128 60.3652802893 1864.24593128 60.3652802893 1885.43875512 170.182640145 c 128,-1,61
 1906.63157895 280 1906.63157895 280 1936 280 c 0,0,1
969 1111 m 2,62,-1
 720 1112 l 2,63,64
 525.384615385 1112 525.384615385 1112 415.192307692 975.571428571 c 128,-1,65
 305 839.142857143 305 839.142857143 305 636 c 0,66,67
 305 355 305 355 424 209.5 c 128,-1,68
 543 64 543 64 765 64 c 0,69,70
 945.666666667 64 945.666666667 64 1049 74 c 1,71,-1
 1049 1110 l 1,72,73
 1017 1110 1017 1110 969 1111 c 2,62,-1
EndSplineSet
EndChar

StartChar: Oslash
Encoding: 216 216 55
Width: 1463
Flags: W
HStem: -28 64<626.101 923.059> 1140 62<558.082 854.427>
VStem: 90 215<369.101 830.318> 985 156<1181.38 1346.9> 1164 215<345.583 816.011>
LayerCount: 2
Fore
SplineSet
895 -11 m 128,-1,1
 816 -28 816 -28 740.5 -28 c 128,-1,2
 665 -28 665 -28 595 -14 c 1,3,-1
 541 -168 l 2,4,5
 518.827389444 -232.054208274 518.827389444 -232.054208274 468 -237.5 c 0,6,7
 454 -239 454 -239 442 -239 c 2,8,-1
 437 -239 l 2,9,10
 417 -239 417 -239 401 -218 c 128,-1,11
 385 -197 385 -197 385 -171 c 128,-1,12
 385 -145 385 -145 394 -122 c 2,13,-1
 457 26 l 1,14,15
 198.927498367 131.875898106 198.927498367 131.875898106 118 392 c 0,16,17
 90 482 90 482 90 586.5 c 128,-1,18
 90 691 90 691 115.5 776 c 128,-1,19
 141 861 141 861 186 929 c 0,20,21
 272.265141319 1059.35621355 272.265141319 1059.35621355 421.110831529 1130.67810677 c 128,-1,22
 569.956521739 1202 569.956521739 1202 739 1202 c 0,23,24
 842 1202 842 1202 942 1174 c 1,25,26
 985 1280.23529412 985 1280.23529412 985 1300.61764706 c 0,27,28
 985 1362 985 1362 1061.83333333 1362 c 0,29,30
 1114.66666667 1362 1114.66666667 1362 1128.33333333 1347.35714286 c 128,-1,31
 1142 1332.71428571 1142 1332.71428571 1142 1306 c 1,32,-1
 1141 1283 l 2,33,34
 1141 1270 1141 1270 1122 1232 c 2,35,-1
 1068 1124 l 1,36,37
 1287.79702444 1009.18065887 1287.79702444 1009.18065887 1355.5 771.5 c 0,38,39
 1379 689 1379 689 1379 588 c 128,-1,40
 1379 487 1379 487 1353.5 401 c 128,-1,41
 1328 315 1328 315 1283.5 246.5 c 128,-1,42
 1239 178 1239 178 1178 126.5 c 128,-1,43
 1117 75 1117 75 1045.5 40.5 c 128,-1,0
 974 6 974 6 895 -11 c 128,-1,1
339 857.5 m 128,-1,45
 305 763 305 763 305 656.5 c 0,46,47
 305 309.181818182 305 309.181818182 505 141 c 1,48,-1
 906 1084 l 1,49,50
 809 1140 809 1140 718.5 1140 c 128,-1,51
 628 1140 628 1140 556 1109 c 128,-1,52
 484 1078 484 1078 428.5 1015 c 128,-1,44
 373 952 373 952 339 857.5 c 128,-1,45
1009 1002 m 1,53,54
 793.371643394 536.242749731 793.371643394 536.242749731 624 67 c 1,55,56
 698 36 698 36 775 36 c 128,-1,57
 852 36 852 36 922 67 c 128,-1,58
 992 98 992 98 1045.5 161 c 128,-1,59
 1099 224 1099 224 1131.5 320 c 128,-1,60
 1164 416 1164 416 1164 558 c 128,-1,61
 1164 700 1164 700 1121 813.5 c 128,-1,62
 1078 927 1078 927 1009 1002 c 1,53,54
EndSplineSet
EndChar

StartChar: AE
Encoding: 198 198 63
Width: 1856
Flags: W
HStem: 0 58<1134.83 1635.71> 0 43<245.405 407 1081.3 1299.26> 514 60<544 830> 582 71<1032 1458.41> 874 21G<1704 1718> 1126 55<1007.45 1606.1>
VStem: 830 176<659.203 1011> 833 199<378.766 514 574 582> 1668.5 70.5<875.424 1058.8> 1676.5 82.5<110.136 276.765>
DStem2: 156 130 233 124 0.571412 0.820663<1.12374 513.415 586.082 586.082>
LayerCount: 2
Fore
SplineSet
1055 1126 m 2,0,1
 1006 1126 1006 1126 1006 1087 c 2,2,-1
 1006 1063.5 l 2,3,4
 1006 1057 1006 1057 1007 1050 c 2,5,-1
 1032 653 l 1,6,-1
 1406 653 l 2,7,8
 1434 653 1434 653 1451 674.5 c 128,-1,9
 1468 696 1468 696 1481.5 722 c 128,-1,10
 1495 748 1495 748 1509 769.5 c 128,-1,11
 1523 791 1523 791 1535.83333333 791 c 128,-1,12
 1548.66666667 791 1548.66666667 791 1567 786 c 1,13,-1
 1567 444 l 1,14,15
 1555 438 1555 438 1541.5 438 c 128,-1,16
 1528 438 1528 438 1514 460 c 128,-1,17
 1500 482 1500 482 1485 508 c 0,18,19
 1443.99380805 579.077399381 1443.99380805 579.077399381 1406 582 c 1,20,-1
 1032 582 l 1,21,-1
 1066 100 l 1,22,23
 1079.47777778 46.0888888889 1079.47777778 46.0888888889 1115 43 c 1,24,-1
 1563 58 l 2,25,26
 1655.24593128 60.3652802893 1655.24593128 60.3652802893 1676.5 170.5 c 0,27,28
 1697.63157895 280 1697.63157895 280 1727 280 c 0,29,30
 1739 280 1739 280 1759 275 c 1,31,-1
 1731 -47 l 1,32,33
 1714 -52 1714 -52 1701 -52 c 0,34,35
 1684 -52 1684 -52 1645 -26 c 128,-1,36
 1606 1.4921397451e-13 1606 1.4921397451e-13 1563 0 c 2,37,-1
 623 0 l 1,38,39
 622 3 622 3 622 9 c 256,40,41
 622 15 622 15 624 18 c 1,42,43
 629.979899497 39.9262981575 629.979899497 39.9262981575 761.5 63 c 0,44,45
 790 68 790 68 811.5 76.2205882353 c 128,-1,46
 833 84.4411764706 833 84.4411764706 833 116 c 2,47,-1
 833 122.5 l 2,48,49
 833 126 833 126 832 130 c 1,50,-1
 832 514 l 1,51,-1
 503 514 l 1,52,-1
 233 124 l 2,53,54
 219 103 219 103 219 87 c 0,55,56
 219 62.8196721311 219 62.8196721311 302.452380952 53.2431693989 c 128,-1,57
 385.904761905 43.6666666667 385.904761905 43.6666666667 401.452380952 34.8333333333 c 128,-1,58
 417 26 417 26 417 25 c 258,59,-1
 416 20 l 1,60,-1
 416 17 l 1,61,-1
 407 0 l 1,62,-1
 -61 0 l 1,63,-1
 -62 7 l 2,64,65
 -62 12 -62 12 -59 18 c 1,66,67
 -53 38 -53 38 -27.5 45.5 c 128,-1,68
 -2 53 -2 53 31 60.5 c 0,69,70
 121.452229299 81.0573248408 121.452229299 81.0573248408 156 130 c 2,71,-1
 830 1098 l 1,72,73
 903.32 1205.16 903.32 1205.16 933 1220 c 0,74,75
 945 1226 945 1226 961.205882353 1226 c 128,-1,76
 977.411764706 1226 977.411764706 1226 988 1181 c 1,77,-1
 1576 1181 l 2,78,79
 1630.13333333 1181 1630.13333333 1181 1661.06666667 1197 c 2,80,-1
 1711 1223 l 1,81,82
 1714 1223 1714 1223 1739 1218 c 1,83,-1
 1739 880 l 1,84,85
 1725 874 1725 874 1711 874 c 128,-1,86
 1697 874 1697 874 1686.5 892 c 128,-1,87
 1676 910 1676 910 1668.5 937 c 128,-1,88
 1661 964 1661 964 1654 996 c 0,89,90
 1627.09565217 1118.99130435 1627.09565217 1118.99130435 1550 1126 c 1,91,-1
 1055 1126 l 2,0,1
544 574 m 1,92,-1
 830 574 l 1,93,-1
 830 1011 l 1,94,-1
 544 574 l 1,92,-1
EndSplineSet
EndChar

StartChar: q
Encoding: 113 113 64
Width: 1113
Flags: W
HStem: -360 50.5<558.517 710.536> -17 112<389.137 624.411> 833 69<398.682 679.532>
VStem: 77 205<227.05 681.35> 753 206<-285.744 156 189.396 784.347>
LayerCount: 2
Fore
SplineSet
938 902 m 0,0,1
 959 902 959 902 959 865 c 2,2,-1
 959 -228 l 2,3,4
 959 -282.086956522 959 -282.086956522 1046 -301 c 128,-1,5
 1133 -319.913043478 1133 -319.913043478 1133 -339.5 c 0,6,7
 1133 -350 1133 -350 1128 -360 c 1,8,-1
 562 -360 l 1,9,10
 558 -347 558 -347 558 -338 c 128,-1,11
 558 -329 558 -329 572.5 -321.5 c 128,-1,12
 587 -314 587 -314 609 -309.5 c 128,-1,13
 631 -305 631 -305 656.5 -300.5 c 0,14,15
 755 -283.117647059 755 -283.117647059 755 -228 c 2,16,-1
 755 156 l 1,17,18
 635.230769231 -17 635.230769231 -17 472.181500318 -17 c 128,-1,19
 309.132231405 -17 309.132231405 -17 193.066115702 114.252336449 c 128,-1,20
 77 245.504672897 77 245.504672897 77 455.588700085 c 128,-1,21
 77 665.672727273 77 665.672727273 191.01754386 783.836363636 c 128,-1,22
 305.035087719 902 305.035087719 902 468.833333333 902 c 128,-1,23
 632.631578947 902 632.631578947 902 808 834 c 1,24,-1
 842 858 l 2,25,26
 906 902 906 902 938 902 c 0,0,1
347.344827586 185.238095238 m 128,-1,28
 412.689655172 95 412.689655172 95 512 95 c 0,29,30
 576 95 576 95 640.5 132.5 c 128,-1,31
 705 170 705 170 753 248 c 1,32,-1
 753 750 l 1,33,34
 666.391304348 833 666.391304348 833 504 833 c 0,35,36
 394.730769231 833 394.730769231 833 338.365384615 726.418181818 c 128,-1,37
 282 619.836363636 282 619.836363636 282 447.656277056 c 128,-1,27
 282 275.476190476 282 275.476190476 347.344827586 185.238095238 c 128,-1,28
EndSplineSet
Substitution2: "'smcp' Lowercase to Small Capitals in Latin lookup 3 subtable" q.sc
EndChar

StartChar: oe
Encoding: 339 339 65
Width: 1706
Flags: W
HStem: -18 113<1167.44 1488.16> -18 54<459.179 688.704> 472 60<1046.8 1460.74> 472 45<1029 1413.2> 850 56<423.859 661.712 1179.72 1375.8>
VStem: 73 206<240.302 646.129> 831 196<249.585 472> 1461 179<516.5 722.203>
LayerCount: 2
Fore
SplineSet
921 188 m 1,0,1
 804.396226415 -18 804.396226415 -18 585.764779874 -18 c 128,-1,2
 367.133333333 -18 367.133333333 -18 220.066666667 108.964028777 c 128,-1,3
 73 235.928057554 73 235.928057554 73 440.002490315 c 128,-1,4
 73 644.076923077 73 644.076923077 212.708333333 773.038461538 c 128,-1,5
 352.416666667 902 352.416666667 902 544 902 c 0,6,7
 654 902 654 902 753.5 850.5 c 128,-1,8
 853 799 853 799 921 694 c 1,9,10
 1048.59259259 906 1048.59259259 906 1297 906 c 0,11,12
 1452.38461538 906 1452.38461538 906 1546.19230769 795.136363636 c 128,-1,13
 1640 684.272727273 1640 684.272727273 1640 531 c 0,14,15
 1640 502 1640 502 1636 472 c 1,16,-1
 1027 472 l 1,17,18
 1027 202.419642857 1027 202.419642857 1198 121.5 c 0,19,20
 1254 95 1254 95 1314.5 95 c 128,-1,21
 1375 95 1375 95 1407.5 98 c 128,-1,22
 1440 101 1440 101 1466 106 c 128,-1,23
 1492 111 1492 111 1517 117.5 c 128,-1,24
 1542 124 1542 124 1574 131 c 1,25,26
 1585 131 1585 131 1585 117 c 256,27,28
 1585 95 1585 95 1580 90 c 0,29,30
 1463.8490566 -18 1463.8490566 -18 1283 -18 c 0,31,32
 1033.36363636 -18 1033.36363636 -18 921 188 c 1,0,1
344.5 168.5 m 0,33,34
 422.247933884 36 422.247933884 36 586 36 c 0,35,36
 708.056074766 36 708.056074766 36 769.528037383 147.483050847 c 128,-1,37
 831 258.966101695 831 258.966101695 831 380.483050847 c 0,38,39
 831 614 831 614 769 722.5 c 0,40,41
 696.142857143 850 696.142857143 850 531 850 c 0,42,43
 409.441176471 850 409.441176471 850 344.220588235 744.404761905 c 128,-1,44
 279 638.80952381 279 638.80952381 279 459.468142186 c 128,-1,45
 279 280.126760563 279 280.126760563 344.5 168.5 c 0,33,34
1461 568 m 0,46,47
 1461 850 1461 850 1282 850 c 0,48,49
 1173.87234043 850 1173.87234043 850 1108.17084542 751.969197926 c 128,-1,50
 1042.46935041 653.938395852 1042.46935041 653.938395852 1029 517 c 1,51,-1
 1431 532 l 1,52,53
 1461 534.5 1461 534.5 1461 568 c 0,46,47
EndSplineSet
Substitution2: "'smcp' Lowercase to Small Capitals in Latin lookup 3 subtable" oe.sc
EndChar

StartChar: eth
Encoding: 240 240 71
Width: 1101
Flags: W
HStem: -20 82<399.114 620.494> 823 79<409.909 653.397> 970 77.0961<482.25 623.743> 1101.96 76.0369<898.984 1048.5> 1313 20G<472 526.077>
VStem: 76 206<212.969 660.516> 784 206<273.994 726.989 775 858.201>
DStem2: 600 1079 626 991 0.965493 0.260429<-101.8 80.7775 242.326 410.956>
LayerCount: 2
Fore
SplineSet
523 970 m 0,0,1
 482 970 482 970 482 1014 c 0,2,3
 482 1032.88888889 482 1032.88888889 507.573033708 1047.09612984 c 128,-1,4
 533.146067416 1061.30337079 533.146067416 1061.30337079 600 1079 c 2,5,-1
 678 1100 l 1,6,7
 609.010526316 1195.15789474 609.010526316 1195.15789474 506 1281 c 0,8,9
 467 1313.5 467 1313.5 467 1317.75 c 128,-1,10
 467 1322 467 1322 469 1325.5 c 128,-1,11
 471 1329 471 1329 473 1333 c 1,12,-1
 542 1307 l 1,13,14
 688.75257732 1250.55670103 688.75257732 1250.55670103 797 1132 c 1,15,-1
 904 1161 l 2,16,17
 966.333333333 1178 966.333333333 1178 1000 1178 c 0,18,19
 1049 1178 1049 1178 1049 1132 c 0,20,21
 1049 1113.37931034 1049 1113.37931034 1023.53314917 1101.96313584 c 128,-1,22
 998.066298343 1090.54696133 998.066298343 1090.54696133 928 1072 c 2,23,-1
 858 1053 l 1,24,25
 990 845.571428571 990 845.571428571 990 527 c 0,26,27
 990 261.616541353 990 261.616541353 850.242537313 120.808270677 c 128,-1,28
 710.485074627 -20 710.485074627 -20 525.337131908 -20 c 128,-1,29
 340.189189189 -20 340.189189189 -20 208.094594595 97.3 c 128,-1,30
 76 214.6 76 214.6 76 426.8 c 128,-1,31
 76 639 76 639 188.714285714 770.5 c 128,-1,32
 301.428571429 902 301.428571429 902 488 902 c 0,33,34
 593.333333333 902 593.333333333 902 700 838 c 0,35,36
 747 810 747 810 784 775 c 1,37,38
 784 902 784 902 726 1018 c 1,39,-1
 626 991 l 1,40,41
 553.454545455 970 553.454545455 970 523 970 c 0,0,1
784 683 m 1,42,43
 658.358974359 823 658.358974359 823 531.192761516 823 c 128,-1,44
 404.026548673 823 404.026548673 823 343.013274336 706.144067797 c 128,-1,45
 282 589.288135593 282 589.288135593 282 420.724712958 c 128,-1,46
 282 252.161290323 282 252.161290323 347.5 157.080645161 c 128,-1,47
 413 62 413 62 514.910569106 62 c 128,-1,48
 616.821138211 62 616.821138211 62 700.410569106 192.14556962 c 128,-1,49
 784 322.291139241 784 322.291139241 784 559 c 2,50,-1
 784 683 l 1,42,43
EndSplineSet
Substitution2: "'smcp' Lowercase to Small Capitals in Latin lookup 3 subtable" eth.sc
EndChar

StartChar: thorn
Encoding: 254 254 77
Width: 1114
Flags: W
HStem: -360 49<-17.4617 112.236> -17 83<405.456 727.313> 790 112<502.511 732.95> 1294 20G<247.286 361>
VStem: 155 206<-285.03 33 105.86 691.398 729 1170.11> 832 205<205.825 657.552>
LayerCount: 2
Fore
SplineSet
361 729 m 1,0,1
 490.75 902 490.75 902 673 902 c 0,2,3
 726 902 726 902 795.5 868 c 128,-1,4
 865 834 865 834 918.5 773.5 c 0,5,6
 1037 639.495327103 1037 639.495327103 1037 429.411299915 c 128,-1,7
 1037 219.327272727 1037 219.327272727 918 96 c 0,8,9
 863 39 863 39 790 11 c 128,-1,10
 717 -17 717 -17 599.214285714 -17 c 128,-1,11
 481.428571429 -17 481.428571429 -17 360 33 c 1,12,-1
 360 -228 l 2,13,14
 360 -283.117647059 360 -283.117647059 458.5 -300.5 c 128,-1,15
 557 -317.882352941 557 -317.882352941 557 -338 c 0,16,17
 557 -347 557 -347 553 -360 c 1,18,-1
 -13 -360 l 1,19,20
 -18 -350 -18 -350 -18 -339.5 c 128,-1,21
 -18 -329 -18 -329 -5 -322.5 c 128,-1,22
 8 -316 8 -316 27 -311 c 128,-1,23
 46 -306 46 -306 68.5 -301 c 0,24,25
 155 -281.777777778 155 -281.777777778 155 -228 c 2,26,-1
 155 1122 l 2,27,28
 155 1163.02 155 1163.02 57 1188.5 c 2,29,-1
 10 1201 l 2,30,31
 -41 1214.90909091 -41 1214.90909091 -41 1227 c 256,32,33
 -41 1235 -41 1235 -37 1244 c 1,34,-1
 361 1314 l 1,35,-1
 361 729 l 1,0,1
361 134 m 1,36,37
 446.894736842 66 446.894736842 66 610 66 c 0,38,39
 719.571428571 66 719.571428571 66 775.785714286 166.163636364 c 128,-1,40
 832 266.327272727 832 266.327272727 832 433 c 0,41,42
 832 704.141176471 832 704.141176471 696.5 769.5 c 0,43,44
 654 790 654 790 601.5 790 c 0,45,46
 513.965517241 790 513.965517241 790 429 713 c 1,47,48
 391 680 391 680 361 637 c 1,49,-1
 361 134 l 1,36,37
EndSplineSet
Substitution2: "'smcp' Lowercase to Small Capitals in Latin lookup 3 subtable" thorn.sc
EndChar

StartChar: k
Encoding: 107 107 78
Width: 1119
Flags: W
HStem: 0 29.5<19.0066 71.248 609.008 695.779> 420 55<398 460> 836 32<683.239 795.574> 1294 20G<284.286 398>
VStem: 192 206<67.3089 420 475 1170.11>
DStem2: 460 475 602 522 0.756045 0.654519<138.121 477.8> 602 522 463 420 0.615215 -0.788359<0 429.262>
LayerCount: 2
Fore
SplineSet
22 0 m 1,0,1
 19 7.5 19 7.5 19 15.25 c 128,-1,2
 19 23 19 23 32 29.5 c 128,-1,3
 45 36 45 36 64 42 c 128,-1,4
 83 48 83 48 105.5 53.5 c 0,5,6
 192 74.6444444444 192 74.6444444444 192 120 c 2,7,-1
 192 1122 l 2,8,9
 192 1163.02 192 1163.02 94 1188.5 c 2,10,-1
 47 1201 l 2,11,12
 -4 1214.90909091 -4 1214.90909091 -4 1227 c 256,13,14
 -4 1235 -4 1235 0 1244 c 1,15,-1
 398 1314 l 1,16,-1
 398 475 l 1,17,-1
 460 475 l 1,18,-1
 810 778 l 1,19,20
 812 784 812 784 812 788 c 2,21,-1
 812 794 l 2,22,23
 812 815 812 815 792 821.5 c 128,-1,24
 772 828 772 828 747.5 830 c 128,-1,25
 723 832 723 832 703 836 c 128,-1,26
 683 840 683 840 683 855 c 0,27,28
 683 860 683 860 686 868 c 1,29,-1
 1080 868 l 1,30,-1
 1083 855 l 1,31,32
 1083 833.6 1083 833.6 1006.8790932 817.995214106 c 128,-1,33
 930.758186398 802.390428212 930.758186398 802.390428212 898 774 c 2,34,-1
 602 522 l 1,35,-1
 936 94 l 1,36,37
 951.491803279 76.2950819672 951.491803279 76.2950819672 1003.24590164 61.1475409836 c 128,-1,38
 1055 46 1055 46 1083.5 35.4142857143 c 128,-1,39
 1112 24.8285714286 1112 24.8285714286 1112 14.6642857143 c 128,-1,40
 1112 4.5 1112 4.5 1109 0 c 1,41,-1
 614 0 l 1,42,43
 609 9 609 9 609 15 c 128,-1,44
 609 21 609 21 617.5 26 c 128,-1,45
 626 31 626 31 639 33.5 c 128,-1,46
 652 36 652 36 667.5 38 c 0,47,48
 726 45.5483870968 726 45.5483870968 726 74 c 0,49,50
 726 82.375 726 82.375 713 97 c 1,51,-1
 463 420 l 1,52,-1
 398 420 l 1,53,-1
 398 116 l 2,54,55
 398 66.2 398 66.2 474 51 c 128,-1,56
 550 35.8 550 35.8 550 14 c 0,57,58
 550 10 550 10 546 0 c 1,59,-1
 22 0 l 1,0,1
EndSplineSet
Substitution2: "'smcp' Lowercase to Small Capitals in Latin lookup 3 subtable" k.sc
EndChar

StartChar: r
Encoding: 114 114 79
Width: 809
Flags: W
HStem: 0 49<49.8441 183.752> 0 28<45.3906 78.1108 561.324 592.684> 811 91<519.232 610.303> 866 20G<199.526 372.758>
VStem: 207 206<64.1668 741.916>
LayerCount: 2
Fore
SplineSet
49 0 m 1,0,1
 45 12 45 12 45 18.5 c 128,-1,2
 45 25 45 25 49 28 c 0,3,4
 76 44 76 44 104.5 49 c 128,-1,5
 133 54 133 54 155.5 60 c 0,6,7
 207 73.7333333333 207 73.7333333333 207 126 c 2,8,-1
 207 738 l 2,9,10
 207 787.488372093 207 787.488372093 124.5 799 c 128,-1,11
 42 810.511627907 42 810.511627907 42 827.5 c 0,12,13
 42 836 42 836 47 848 c 1,14,-1
 369 886 l 1,15,-1
 400 721 l 1,16,17
 440.413043478 807.336956522 440.413043478 807.336956522 514.039855072 854.668478261 c 128,-1,18
 587.666666667 902 587.666666667 902 652.833333333 902 c 128,-1,19
 718 902 718 902 755.5 875.5 c 128,-1,20
 793 849 793 849 793 791.757575758 c 128,-1,21
 793 734.515151515 793 734.515151515 742.5 708.5 c 0,22,23
 726 700 726 700 701 700 c 128,-1,24
 676 700 676 700 658.5 708 c 128,-1,25
 641 716 641 716 630.5 728.5 c 128,-1,26
 620 741 620 741 614.5 755.5 c 128,-1,27
 609 770 609 770 599.98 790.5 c 128,-1,28
 590.96 811 590.96 811 571.5425 811 c 128,-1,29
 552.125 811 552.125 811 522.5625 795 c 0,30,31
 468.87955431 765.945382459 468.87955431 765.945382459 440.939777155 717.588075845 c 128,-1,32
 413 669.230769231 413 669.230769231 413 636 c 2,33,-1
 413 120 l 2,34,35
 413 66.1956521739 413 66.1956521739 503 52.5 c 0,36,37
 562.876033058 43.3884297521 562.876033058 43.3884297521 577.938016529 36.694214876 c 128,-1,38
 593 30 593 30 593 19.5 c 128,-1,39
 593 9 593 9 589 0 c 1,40,-1
 49 0 l 1,0,1
EndSplineSet
Substitution2: "'smcp' Lowercase to Small Capitals in Latin lookup 3 subtable" r.sc
EndChar

StartChar: x
Encoding: 120 120 85
Width: 986
Flags: W
HStem: 0 36<312.5 387.594> 833.087 34.913<854 918.754>
DStem2: 523 558 409 420 0.552959 -0.833209<-255.851 0 115.459 444.472> 523 558 560 498 0.585885 0.810394<0 276.75>
LayerCount: 2
Fore
SplineSet
488 0 m 1,0,1
 485 4.5 485 4.5 485 14.75 c 0,2,3
 485 27.3333333333 485 27.3333333333 549 46 c 128,-1,4
 613 64.6666666667 613 64.6666666667 613 84 c 0,5,6
 613 93 613 93 608 101 c 2,7,-1
 444 367 l 1,8,-1
 274 89 l 1,9,10
 267 81 267 81 267 72.5 c 0,11,12
 267 59.2972972973 267 59.2972972973 312.5 47 c 2,13,-1
 351.5 36 l 2,14,15
 390 24.7317073171 390 24.7317073171 390 12 c 0,16,17
 390 10 390 10 387 0 c 1,18,-1
 17 0 l 1,19,20
 14 6 14 6 14 12 c 0,21,22
 14 30.7530332681 14 30.7530332681 85.3197250556 42.2255996078 c 128,-1,23
 156.639450111 53.6981659474 156.639450111 53.6981659474 185 94 c 2,24,-1
 409 420 l 1,25,-1
 175 759 l 2,26,27
 146.932806324 799.541501976 146.932806324 799.541501976 127.466403162 805.770750988 c 128,-1,28
 108 812 108 812 93.5 815 c 0,29,30
 64.712195122 820.956097561 64.712195122 820.956097561 44.356097561 832.741206675 c 128,-1,31
 24 844.526315789 24 844.526315789 24 855 c 0,32,33
 24 856 24 856 27 868 c 1,34,-1
 495 868 l 1,35,36
 498 859 498 859 498 854 c 0,37,38
 498 843 498 843 480.5 834.5 c 128,-1,39
 463 826 463 826 425 809.317073171 c 128,-1,40
 387 792.634146341 387 792.634146341 387 775 c 0,41,42
 387 769 387 769 393 759 c 2,43,-1
 523 558 l 1,44,-1
 673 769 l 2,45,46
 679 778 679 778 679 787 c 0,47,48
 679 800.666666667 679 800.666666667 631.5 816.5 c 2,49,-1
 591 830 l 2,50,51
 554 842.333333333 554 842.333333333 554 855 c 0,52,53
 554 856 554 856 557 868 c 1,54,-1
 917 868 l 1,55,56
 919 863 919 863 919 859 c 2,57,-1
 919 853 l 2,58,59
 919 839.173913043 919 839.173913043 891 833.086956522 c 2,60,-1
 854 825 l 2,61,62
 817 816 817 816 795.5 804.5 c 128,-1,63
 774 793 774 793 755 767 c 2,64,-1
 560 498 l 1,65,-1
 833 96 l 2,66,67
 861.031007752 53.9534883721 861.031007752 53.9534883721 915.5 47 c 0,68,69
 949.392739274 42.6732673267 949.392739274 42.6732673267 972.696369637 32.1866336634 c 128,-1,70
 996 21.7 996 21.7 996 12 c 0,71,72
 996 10 996 10 993 0 c 1,73,-1
 488 0 l 1,0,1
EndSplineSet
Substitution2: "'smcp' Lowercase to Small Capitals in Latin lookup 3 subtable" x.sc
EndChar

StartChar: v
Encoding: 118 118 86
Width: 952
Flags: W
HStem: -12 21G<461.75 483.25> 827 41<-14 58 373.844 462> 837 31<577.538 613.168>
DStem2: 536 250 446 2 0.389174 -0.921164<-563.086 0> 536 250 500 2 0.378987 0.925402<0 531.516>
LayerCount: 2
Fore
SplineSet
966 868 m 1,0,1
 970 861.333333333 970 861.333333333 970 851.166666667 c 0,2,3
 970 818.343007916 970 818.343007916 881.071428571 801.214285714 c 0,4,5
 838.873481622 793.086448967 838.873481622 793.086448967 825.351995048 777.178817704 c 128,-1,6
 811.830508475 761.271186441 811.830508475 761.271186441 792 715 c 2,7,-1
 500 2 l 2,8,9
 494 -12 494 -12 472.5 -12 c 128,-1,10
 451 -12 451 -12 446 2 c 2,11,-1
 119 776 l 2,12,13
 104.725743855 810.892626132 104.725743855 810.892626132 58 819.5 c 2,14,-1
 19 827 l 2,15,16
 -1 831 -1 831 -18 845 c 1,17,-1
 -14 868 l 1,18,-1
 462 868 l 1,19,-1
 474 842 l 1,20,21
 474 825.735294118 474 825.735294118 445.5 819.867647059 c 128,-1,22
 417 814 417 814 398.5 811 c 128,-1,23
 380 808 380 808 367 805 c 0,24,25
 336 798 336 798 336 777 c 0,26,27
 336 770 336 770 340 760 c 2,28,-1
 536 250 l 1,29,-1
 702 704 l 2,30,31
 714 735 714 735 714 752 c 256,32,33
 714 779.617647059 714 779.617647059 678 795.5 c 0,34,35
 661 803 661 803 636.5 812 c 128,-1,36
 612 821 612 821 582 837 c 0,37,38
 577 839 577 839 577 847 c 128,-1,39
 577 855 577 855 582 868 c 1,40,-1
 966 868 l 1,0,1
EndSplineSet
Substitution2: "'smcp' Lowercase to Small Capitals in Latin lookup 3 subtable" v.sc
EndChar

StartChar: w
Encoding: 119 119 87
Width: 1355
Flags: W
HStem: -17 22G<423.25 445.75 926.5 949.5> 832.5 35.5<-19 62.6508 364.513 442.527 862.533 942.585> 848 20<500 522.279>
DStem2: 330 760 120 763 0.350855 -0.93643<-39.5976 504.919> 496 283 462 -3 0.318872 0.947798<0 398.613> 838 760 679 642 0.337168 -0.941444<57.4807 500.051> 992 284 966 -3 0.287463 0.957792<0 539.312>
LayerCount: 2
Fore
SplineSet
939 868 m 1,0,1
 943 858 943 858 943 855 c 0,2,3
 943 838 943 838 926 832 c 128,-1,4
 909 826 909 826 888.5 822 c 128,-1,5
 868 818 868 818 851 810 c 128,-1,6
 834 802 834 802 834 786.5 c 128,-1,7
 834 771 834 771 838 760 c 2,8,-1
 992 284 l 1,9,-1
 1137 758 l 2,10,11
 1139 762 1139 762 1139 766 c 2,12,-1
 1139 782 l 2,13,14
 1139 805.459459459 1139 805.459459459 1098.5 817.5 c 0,15,16
 1080 823 1080 823 1042.5 831.967391304 c 128,-1,17
 1005 840.934782609 1005 840.934782609 1005 855 c 256,18,19
 1005 862 1005 862 1010 868 c 1,20,-1
 1370 868 l 1,21,22
 1381 865 1381 865 1381 861 c 0,23,24
 1381 847.236842105 1381 847.236842105 1349.5 838.118421053 c 2,25,-1
 1295.5 822.5 l 2,26,27
 1205.75714286 796.574285714 1205.75714286 796.574285714 1195 760 c 2,28,-1
 966 -3 l 1,29,30
 961 -16 961 -16 938 -16 c 128,-1,31
 915 -16 915 -16 910 -3 c 2,32,-1
 679 642 l 1,33,-1
 462 -3 l 2,34,35
 457 -17 457 -17 434.5 -17 c 128,-1,36
 412 -17 412 -17 407 -3 c 2,37,-1
 120 763 l 2,38,39
 106.329896907 799.453608247 106.329896907 799.453608247 53 818.5 c 0,40,41
 32 826 32 826 11.5 832.5 c 128,-1,42
 -9 839 -9 839 -23 853 c 1,43,-1
 -19 868 l 1,44,-1
 439 868 l 1,45,46
 443 859 443 859 443 855 c 0,47,48
 443 839 443 839 425 833 c 128,-1,49
 407 827 407 827 385.5 821.5 c 0,50,51
 328 806.790697674 328 806.790697674 328 785 c 2,52,-1
 328 768.5 l 2,53,54
 328 765 328 765 330 760 c 2,55,-1
 496 283 l 1,56,-1
 653 718 l 1,57,-1
 621 791 l 2,58,59
 611.278481013 812.063291139 611.278481013 812.063291139 581.639240506 820.53164557 c 2,60,-1
 533.5 834.5 l 2,61,62
 515 840 515 840 500 848 c 1,63,64
 495 848 495 848 495 855 c 1,65,-1
 500 868 l 1,66,-1
 939 868 l 1,0,1
EndSplineSet
Substitution2: "'smcp' Lowercase to Small Capitals in Latin lookup 3 subtable" w.sc
EndChar

StartChar: y
Encoding: 121 121 88
Width: 957
Flags: W
HStem: -401 142<238.939 320.831> 812 56<836.372 969> 827 41<-16 69.4206 378 482> 837 31<580.538 585>
DStem2: 545 250 402 -246 0.384978 0.922926<0 527.127> 545 250 450 13 0.399999 -0.916515<-564.802 0>
LayerCount: 2
Fore
SplineSet
969 868 m 1,0,1
 973 861.333333333 973 861.333333333 973 851.166666667 c 0,2,3
 973 834.666666667 973 834.666666667 942.4 823.333333333 c 128,-1,4
 911.8 812 911.8 812 888.4 812 c 0,5,6
 848.3 812 848.3 812 835.980578512 794.400826446 c 128,-1,7
 823.661157025 776.801652893 823.661157025 776.801652893 815 727 c 1,8,-1
 440 -161 l 1,9,-1
 402 -246 l 1,10,11
 329.906976744 -401 329.906976744 -401 196 -401 c 0,12,13
 101.023255814 -401 101.023255814 -401 67 -334.5 c 0,14,15
 56 -313 56 -313 56 -286.5 c 0,16,17
 56 -237.1875 56 -237.1875 89.2962962963 -209.09375 c 128,-1,18
 122.592592593 -181 122.592592593 -181 160.796296296 -181 c 128,-1,19
 199 -181 199 -181 215.5 -193 c 128,-1,20
 232 -205 232 -205 244 -220 c 128,-1,21
 256 -235 256 -235 267.5 -247 c 128,-1,22
 279 -259 279 -259 300.5 -259 c 128,-1,23
 322 -259 322 -259 338 -244.5 c 128,-1,24
 354 -230 354 -230 365.5 -209.5 c 128,-1,25
 377 -189 377 -189 384.5 -166 c 128,-1,26
 392 -143 392 -143 399 -125 c 2,27,-1
 450 13 l 1,28,-1
 117 776 l 2,29,30
 101.841269841 809.349206349 101.841269841 809.349206349 69.4206349206 816.174603175 c 2,31,-1
 17 827 l 2,32,33
 -3 831 -3 831 -20 845 c 1,34,-1
 -16 868 l 1,35,-1
 482 868 l 1,36,-1
 494 842 l 1,37,38
 494 825.9 494 825.9 460 819.95 c 128,-1,39
 426 814 426 814 405 811 c 128,-1,40
 384 808 384 808 371 805 c 0,41,42
 340 798 340 798 340 777 c 0,43,44
 340 770 340 770 344 760 c 2,45,-1
 545 250 l 1,46,-1
 705 700 l 2,47,48
 717 731 717 731 717 750 c 128,-1,49
 717 769 717 769 708 780.5 c 0,50,51
 691.748510131 801.26579261 691.748510131 801.26579261 640.5 818 c 2,52,-1
 585 837 l 2,53,54
 580 839 580 839 580 847 c 128,-1,55
 580 855 580 855 585 868 c 1,56,-1
 969 868 l 1,0,1
EndSplineSet
Substitution2: "'smcp' Lowercase to Small Capitals in Latin lookup 3 subtable" y.sc
EndChar

StartChar: ae
Encoding: 230 230 93
Width: 1503
Flags: W
HStem: -17 78<250.019 550.141> -17 112<927.763 1284.84> 472 60<956.299 1248.72> 846 56<321.172 543.123 976.943 1173>
VStem: 67 216<77.7888 286.347> 102 175<660.98 807.415> 615 214<234.136 427 445.125 472> 1258 179<537.308 720.753>
LayerCount: 2
Fore
SplineSet
1413 673 m 128,-1,1
 1437 606 1437 606 1437 554 c 128,-1,2
 1437 502 1437 502 1433 472 c 1,3,-1
 829 472 l 1,4,5
 829 385 829 385 834.5 315 c 128,-1,6
 840 245 840 245 868.5 196.5 c 0,7,8
 928.144329897 95 928.144329897 95 1125 95 c 0,9,10
 1227.46153846 95 1227.46153846 95 1283.23076923 109.5 c 128,-1,11
 1339 124 1339 124 1371 131 c 1,12,13
 1382 131 1382 131 1382 117 c 2,14,-1
 1382 107 l 2,15,16
 1382 95 1382 95 1377 90 c 0,17,18
 1261.9245283 -17 1261.9245283 -17 1073.65457184 -17 c 128,-1,19
 885.384615385 -17 885.384615385 -17 740 109 c 1,20,21
 621.703335699 23.2349183818 621.703335699 23.2349183818 410 -8 c 0,22,23
 349 -17 349 -17 300.5 -17 c 0,24,25
 199.538461538 -17 199.538461538 -17 133.269230769 23.3828125 c 128,-1,26
 67 63.765625 67 63.765625 67 139.8828125 c 128,-1,27
 67 216 67 216 91 260 c 128,-1,28
 115 304 115 304 156.5 331.5 c 0,29,30
 223.987779182 376.220817531 223.987779182 376.220817531 367.5 403.5 c 2,31,-1
 492 427 l 2,32,33
 556 439 556 439 615 459 c 1,34,-1
 615 587 l 2,35,36
 615 711.485714286 615 711.485714286 593 756.742857143 c 128,-1,37
 571 802 571 802 536 824 c 128,-1,38
 501 846 501 846 460.5 846 c 0,39,40
 389.5 846 389.5 846 333.25 823.941176471 c 128,-1,41
 277 801.882352941 277 801.882352941 277 770 c 0,42,43
 277 753 277 753 287 732.5 c 128,-1,44
 297 712 297 712 297 691 c 0,45,46
 297 653 297 653 269 625 c 128,-1,47
 241 597 241 597 213.5 597 c 0,48,49
 164.433333333 597 164.433333333 597 133.216666667 629.293103448 c 128,-1,50
 102 661.586206897 102 661.586206897 102 703.293103448 c 128,-1,51
 102 745 102 745 121.5 776 c 128,-1,52
 141 807 141 807 172 829 c 0,53,54
 274.863636364 902 274.863636364 902 471.5 902 c 0,55,56
 609.928571429 902 609.928571429 902 701 827 c 0,57,58
 741 794 741 794 761 752 c 1,59,60
 818.43431221 832.408037094 818.43431221 832.408037094 942 878.5 c 0,61,62
 1005 902 1005 902 1089 902 c 128,-1,63
 1173 902 1173 902 1237 872 c 128,-1,64
 1301 842 1301 842 1345 791 c 128,-1,0
 1389 740 1389 740 1413 673 c 128,-1,1
1258 568 m 0,65,66
 1258 846 1258 846 1079 846 c 0,67,68
 971.287234043 846 971.287234043 846 907.441843185 747.615299335 c 128,-1,69
 843.596452328 649.23059867 843.596452328 649.23059867 830 511 c 1,70,-1
 1228 532 l 2,71,72
 1240 532 1240 532 1249 542 c 128,-1,73
 1258 552 1258 552 1258 568 c 0,65,66
716 138 m 1,74,75
 628.546786922 238.409244645 628.546786922 238.409244645 623 427 c 1,76,77
 609.034682081 425.25433526 609.034682081 425.25433526 521.51734104 396.62716763 c 128,-1,78
 434 368 434 368 397 352 c 0,79,80
 326.5252443 321.524429967 326.5252443 321.524429967 304.76262215 283.222214984 c 128,-1,81
 283 244.92 283 244.92 283 160 c 0,82,83
 283 61 283 61 408 61 c 0,84,85
 508.538461538 61 508.538461538 61 662 118 c 2,86,-1
 716 138 l 1,74,75
EndSplineSet
Substitution2: "'smcp' Lowercase to Small Capitals in Latin lookup 3 subtable" ae.sc
EndChar

StartChar: g
Encoding: 103 103 94
Width: 965
Flags: W
HStem: -298 56<290.294 616.949> 334 49<367.54 529.157> 811 92<759.555 887.75> 846 56<352.262 521.952>
VStem: 109 174<473.329 771.193> 109 106<-197.77 -37.5591 207.32 322.791> 594 167<471.759 788.797> 734 141<-170.934 -22.9991>
LayerCount: 2
Fore
SplineSet
314 43 m 1,0,1
 215 -21.7307692308 215 -21.7307692308 215 -126 c 0,2,3
 215 -179.1875 215 -179.1875 282 -210.59375 c 128,-1,4
 349 -242 349 -242 423 -242 c 0,5,6
 556.194444444 -242 556.194444444 -242 645.097222222 -203.439759036 c 128,-1,7
 734 -164.879518072 734 -164.879518072 734 -108.100473322 c 128,-1,8
 734 -51.3214285714 734 -51.3214285714 676.107072692 -12.0369421836 c 128,-1,9
 618.214145383 27.2475442043 618.214145383 27.2475442043 507 33 c 2,10,-1
 314 43 l 1,0,1
687 818 m 1,11,-1
 791 876 l 2,12,13
 840.5 903 840.5 903 866.25 903 c 0,14,15
 909.25 903 909.25 903 933.625 876.409090909 c 128,-1,16
 958 849.818181818 958 849.818181818 958 817 c 128,-1,17
 958 784 958 784 939 757.5 c 128,-1,18
 920 731 920 731 884 731 c 0,19,20
 831.666666667 731 831.666666667 731 813 771 c 2,21,-1
 800 798.5 l 2,22,23
 794 811 794 811 776 811 c 128,-1,24
 758 811 758 811 715 788 c 1,25,26
 761 726.666666667 761 726.666666667 761 647.333333333 c 0,27,28
 761 499.261904762 761 499.261904762 673.139240506 416.630952381 c 128,-1,29
 585.278481013 334 585.278481013 334 440 334 c 0,30,31
 373 334 373 334 315 354 c 1,32,33
 309 351 309 351 295 348.5 c 128,-1,34
 281 346 281 346 266 337.5 c 0,35,36
 229 316.533333333 229 316.533333333 229 264 c 0,37,38
 229 216.293103448 229 216.293103448 450.178752108 206.759536547 c 128,-1,39
 671.357504216 197.225969646 671.357504216 197.225969646 773.178752108 135.001873712 c 128,-1,40
 875 72.7777777778 875 72.7777777778 875 -50 c 0,41,42
 875 -210.183673469 875 -210.183673469 642 -272 c 0,43,44
 544 -298 544 -298 456.5 -298 c 0,45,46
 297 -298 297 -298 203 -260.4 c 128,-1,47
 109 -222.8 109 -222.8 109 -153.7125 c 128,-1,48
 109 -84.625 109 -84.625 178 -7 c 0,49,50
 202 20 202 20 235 43 c 1,51,52
 151.331877729 73.1205240175 151.331877729 73.1205240175 121 153.5 c 0,53,54
 111 180 111 180 111 216.5 c 0,55,56
 111 288.166666667 111 288.166666667 161.9 330.583333333 c 128,-1,57
 212.8 373 212.8 373 270 373 c 1,58,59
 109 460.818181818 109 460.818181818 109 617 c 0,60,61
 109 747.258426966 109 747.258426966 202.054054054 824.629213483 c 128,-1,62
 295.108108108 902 295.108108108 902 444.956493078 902 c 128,-1,63
 594.804878049 902 594.804878049 902 687 818 c 1,11,-1
454 383 m 0,64,65
 594 383 594 383 594 600 c 0,66,67
 594 717.648648649 594 717.648648649 568 763.324324324 c 128,-1,68
 542 809 542 809 509.5 827.5 c 128,-1,69
 477 846 477 846 436 846 c 0,70,71
 361.482142857 846 361.482142857 846 322.241071429 786.608108108 c 128,-1,72
 283 727.216216216 283 727.216216216 283 637 c 0,73,74
 283 383 283 383 454 383 c 0,64,65
EndSplineSet
Substitution2: "'smcp' Lowercase to Small Capitals in Latin lookup 3 subtable" g.sc
EndChar

StartChar: j
Encoding: 106 106 95
Width: 550
Flags: W
HStem: -296 72<57.9974 144.986> 863 20G<288.941 396> 983 245<186.098 349.469>
VStem: -98 154<-223.684 -137.625> 150 245<1019.1 1190.26> 190 206<-115.319 755.323>
LayerCount: 2
Fore
SplineSet
-98 -198 m 0,0,1
 -98 -117 -98 -117 -23 -117 c 0,2,3
 18 -117 18 -117 37 -137 c 128,-1,4
 56 -157 56 -157 56 -175.5 c 128,-1,5
 56 -194 56 -194 69 -209 c 128,-1,6
 82 -224 82 -224 98.5 -224 c 0,7,8
 135.434782609 -224 135.434782609 -224 162.717391304 -154.277777778 c 128,-1,9
 190 -84.5555555556 190 -84.5555555556 190 82 c 2,10,-1
 190 705 l 2,11,12
 190 752.428571429 190 752.428571429 109 764 c 0,13,14
 57.8867924528 771.301886792 57.8867924528 771.301886792 42.9433962264 778.150943396 c 128,-1,15
 28 785 28 785 28 798 c 0,16,17
 28 800 28 800 32 815 c 1,18,-1
 396 883 l 1,19,-1
 396 119 l 2,20,21
 396 -98.4347826087 396 -98.4347826087 291 -208 c 0,22,23
 206.666666667 -296 206.666666667 -296 80 -296 c 0,24,25
 8.03703703704 -296 8.03703703704 -296 -30.9814814815 -274.5 c 0,26,27
 -98 -237.571428571 -98 -237.571428571 -98 -198 c 0,0,1
150 1104 m 256,28,29
 150 1154.8125 150 1154.8125 184.441176471 1191.40625 c 128,-1,30
 218.882352941 1228 218.882352941 1228 271 1228 c 256,31,32
 324.558823529 1228 324.558823529 1228 350.279411765 1201.5 c 0,33,34
 395 1155.42424242 395 1155.42424242 395 1104 c 256,35,36
 395 1052.42424242 395 1052.42424242 359.203125 1017.71212121 c 128,-1,37
 323.40625 983 323.40625 983 271 983 c 256,38,39
 220 983 220 983 185 1018 c 128,-1,40
 150 1053 150 1053 150 1104 c 256,28,29
EndSplineSet
Substitution2: "'smcp' Lowercase to Small Capitals in Latin lookup 3 subtable" j.sc
EndChar

StartChar: f
Encoding: 102 102 96
Width: 660
Flags: W
HStem: 0 44.5<45.0117 176.797 442.376 588.121> 809 59<62 205 411 622> 1256 41<468.488 595.583>
VStem: 205 206<61.0464 809 868 1162.66> 601 173<1097.39 1247.4>
LayerCount: 2
Fore
SplineSet
601 1217 m 0,0,1
 601 1256 601 1256 533.453125 1256 c 128,-1,2
 465.90625 1256 465.90625 1256 438.453125 1197.43333333 c 128,-1,3
 411 1138.86666667 411 1138.86666667 411 947 c 2,4,-1
 411 868 l 1,5,-1
 622 868 l 1,6,-1
 622 809 l 1,7,-1
 411 809 l 1,8,-1
 411 110 l 2,9,10
 411 62.6086956522 411 62.6086956522 500 51 c 0,11,12
 557.616161616 43.4848484848 557.616161616 43.4848484848 573.308080808 36.2424242424 c 128,-1,13
 589 29 589 29 589 17 c 0,14,15
 589 15 589 15 585 0 c 1,16,-1
 49 0 l 1,17,18
 45 15 45 15 45 22 c 128,-1,19
 45 29 45 29 57 35 c 128,-1,20
 69 41 69 41 86.5 44.5 c 128,-1,21
 104 48 104 48 125 51 c 0,22,23
 205 62.4285714286 205 62.4285714286 205 110 c 2,24,-1
 205 809 l 1,25,-1
 62 809 l 1,26,-1
 62 868 l 1,27,-1
 205 868 l 1,28,-1
 205 965 l 2,29,30
 205 1144.44827586 205 1144.44827586 302.5 1228.5 c 0,31,32
 381.96 1297 381.96 1297 536.568235294 1297 c 128,-1,33
 691.176470588 1297 691.176470588 1297 752 1226.5 c 0,34,35
 774 1201 774 1201 774 1163 c 128,-1,36
 774 1125 774 1125 750 1096.5 c 128,-1,37
 726 1068 726 1068 678 1068 c 128,-1,38
 630 1068 630 1068 608.5 1092 c 128,-1,39
 587 1116 587 1116 587 1143 c 128,-1,40
 587 1170 587 1170 594 1186.5 c 128,-1,41
 601 1203 601 1203 601 1217 c 0,0,1
EndSplineSet
Substitution2: "'smcp' Lowercase to Small Capitals in Latin lookup 3 subtable" f.sc
EndChar

StartChar: Z
Encoding: 90 90 97
Width: 1151
Flags: W
HStem: -22 21G<1003 1020.75> 0 56<365.359 888.659> 1109 77<254.721 817.996> 1178 20G<161.562 179>
VStem: 91 83.5<840.576 917.148>
DStem2: 65 18 380 136 0.569886 0.821723<231.579 1326.24>
LayerCount: 2
Fore
SplineSet
1021 356 m 1,0,-1
 1045 351 l 1,1,-1
 1028 -20 l 1,2,3
 1023 -22 1023 -22 1018.5 -22 c 2,4,-1
 1006 -22 l 2,5,6
 1000 -22 1000 -22 982 -18.5 c 2,7,-1
 941.5 -11 l 2,8,9
 879.625 -1.95399252334e-14 879.625 -1.95399252334e-14 859 0 c 2,10,-1
 74 0 l 1,11,-1
 65 18 l 1,12,-1
 796 1073 l 2,13,14
 801 1081 801 1081 809.5 1091.5 c 128,-1,15
 818 1102 818 1102 818 1110 c 256,16,17
 818 1118 818 1118 801 1118 c 2,18,-1
 351 1109 l 2,19,20
 283.962264151 1106.96855346 283.962264151 1106.96855346 253.768017321 1081.8066811 c 128,-1,21
 223.573770492 1056.64480874 223.573770492 1056.64480874 193 969 c 1,22,-1
 174.5 919.5 l 1,23,24
 139.795918367 830 139.795918367 830 114 830 c 0,25,26
 111 830 111 830 91 835 c 1,27,-1
 154 1196 l 1,28,29
 159 1198 159 1198 164.125 1198 c 2,30,-1
 176 1198 l 2,31,32
 182 1198 182 1198 199 1196 c 2,33,-1
 237 1191.5 l 2,34,35
 283.2 1186 283.2 1186 315 1186 c 2,36,-1
 1039 1176 l 2,37,38
 1070 1176 1070 1176 1070 1146 c 0,39,40
 1070 1135 1070 1135 1066 1123 c 1,41,-1
 380 136 l 2,42,43
 365 115.375 365 115.375 365 91 c 0,44,45
 365 54.125 365 54.125 395 56 c 1,46,-1
 813 67 l 2,47,48
 880.03125 69.03125 880.03125 69.03125 910.644196429 99.6441964286 c 128,-1,49
 941.257142857 130.257142857 941.257142857 130.257142857 964.028571429 243.128571429 c 128,-1,50
 986.8 356 986.8 356 1021 356 c 1,0,-1
EndSplineSet
EndChar

StartChar: bracketleft
Encoding: 91 91 98
Width: 662
Flags: W
HStem: -214 158<316 746.136> -199 137<316 668.527> 1380 145<329 793.496>
VStem: 174 152<835.832 1380> 178 133<-62 1124.58>
LayerCount: 2
Fore
SplineSet
757 -143 m 0,0,1
 757 -214 757 -214 669 -214 c 0,2,3
 654 -214 654 -214 623.5 -211.5 c 128,-1,4
 593 -209 593 -209 491 -204 c 128,-1,5
 389 -199 389 -199 310.5 -199 c 128,-1,6
 232 -199 232 -199 220 -195 c 128,-1,7
 208 -191 208 -191 191.5 -177.8 c 128,-1,8
 175 -164.6 175 -164.6 175 -142.3 c 128,-1,9
 175 -120 175 -120 179 -104 c 1,10,-1
 178 711 l 1,11,-1
 174 1365 l 1,12,-1
 173 1449 l 2,13,14
 173 1486.42424242 173 1486.42424242 218.5 1514 c 0,15,16
 235 1524 235 1524 279.5 1524 c 128,-1,17
 324 1524 324 1524 382.5 1525 c 2,18,-1
 496.5 1527 l 2,19,20
 607.5 1529 607.5 1529 676.25 1529 c 128,-1,21
 745 1529 745 1529 764 1522 c 128,-1,22
 783 1515 783 1515 799.5 1499.93478261 c 128,-1,23
 816 1484.86956522 816 1484.86956522 816 1463.93478261 c 0,24,25
 816 1427 816 1427 794.181818182 1403 c 128,-1,26
 772.363636364 1379 772.363636364 1379 735 1379 c 2,27,-1
 728.5 1379 l 2,28,29
 725 1379 725 1379 721 1380 c 1,30,-1
 329 1380 l 1,31,-1
 326 1329 l 1,32,33
 311 927.75 311 927.75 311 650.375 c 128,-1,34
 311 373 311 373 316 -62 c 1,35,-1
 432 -62 l 1,36,-1
 461 -63 l 1,37,-1
 682 -56 l 1,38,39
 719.424242424 -56 719.424242424 -56 747 -101.5 c 0,40,41
 757 -118 757 -118 757 -143 c 0,0,1
EndSplineSet
EndChar

StartChar: backslash
Encoding: 92 92 99
Width: 849
Flags: W
VStem: 41 156<1180.88 1357.06>
DStem2: 788 -122 469.5 304.5 0.389967 -0.920829<-909.905 -509.972 -14.9671 39.59>
LayerCount: 2
Fore
SplineSet
106 1362 m 0,0,1
 197 1362 197 1362 197 1311 c 0,2,3
 197 1274.67857143 197 1274.67857143 233.5 1187.33928571 c 128,-1,4
 270 1100 270 1100 278 1079 c 2,5,-1
 788 -122 l 2,6,7
 797 -145 797 -145 797 -171 c 128,-1,8
 797 -197 797 -197 781 -218 c 128,-1,9
 765 -239 765 -239 745 -239 c 2,10,-1
 740 -239 l 2,11,12
 687.24137931 -239 687.24137931 -239 668.620689655 -216.5 c 128,-1,13
 650 -194 650 -194 641 -168 c 0,14,15
 550 97 550 97 469.5 304.5 c 1,16,-1
 322.5 669 l 1,17,18
 256 826 256 826 203.5 937 c 1,19,-1
 60 1231.5 l 2,20,21
 41 1270 41 1270 41 1283 c 2,22,-1
 40 1306 l 1,23,24
 40 1362 40 1362 106 1362 c 0,0,1
EndSplineSet
EndChar

StartChar: bracketright
Encoding: 93 93 100
Width: 664
Flags: W
HStem: -214 158<-58.9984 351.657> -199 137<109.393 353> 1380 149<-139.827 340>
VStem: 352 136<363.5 588.167 1012.67 1329 1365 1380>
LayerCount: 2
Fore
SplineSet
1.5 -214 m 0,0,1
 -88 -214 -88 -214 -88 -153.333333333 c 0,2,3
 -88 -101 -88 -101 -59.875 -78.5 c 128,-1,4
 -31.75 -56 -31.75 -56 -13 -56 c 2,5,-1
 208 -63 l 1,6,-1
 237 -62 l 1,7,-1
 353 -62 l 1,8,9
 358 373 358 373 358 588.166666667 c 128,-1,10
 358 803.333333333 358 803.333333333 352 1012.66666667 c 2,11,-1
 343 1329 l 1,12,13
 340 1356 340 1356 340 1365 c 2,14,-1
 340 1380 l 1,15,-1
 -52 1380 l 1,16,17
 -56 1379 -56 1379 -59.5 1379 c 2,18,-1
 -66 1379 l 2,19,20
 -103.363636364 1379 -103.363636364 1379 -125.181818182 1403 c 128,-1,21
 -147 1427 -147 1427 -147 1447.5 c 0,22,23
 -147 1529 -147 1529 -45.3333333333 1529 c 0,24,25
 61.5 1529 61.5 1529 172.5 1527 c 2,26,-1
 286 1525 l 2,27,28
 344 1524 344 1524 389 1524 c 0,29,30
 451 1524 451 1524 473.5 1495.875 c 128,-1,31
 496 1467.75 496 1467.75 496 1449 c 2,32,-1
 488 747.5 l 1,33,-1
 488 363.5 l 2,34,35
 488 168 488 168 490 -104 c 1,36,37
 494 -120 494 -120 494 -134.5 c 0,38,39
 494 -164.6 494 -164.6 472.5 -181.8 c 128,-1,40
 451 -199 451 -199 426 -199 c 0,41,42
 198 -199 198 -199 106.5 -206.5 c 128,-1,43
 15 -214 15 -214 1.5 -214 c 0,0,1
EndSplineSet
EndChar

StartChar: asciicircum
Encoding: 94 94 101
Width: 1500
Flags: W
HStem: 778 607.5
VStem: 426 640<778 832.667>
LayerCount: 2
Fore
SplineSet
477 778 m 0,0,1
 426 778 426 778 426 816 c 0,2,3
 426 832.666666667 426 832.666666667 464.5 912.333333333 c 2,4,-1
 557.5 1105 l 2,5,6
 612 1218 612 1218 661 1331 c 1,7,8
 672 1353 672 1353 695.5 1369.5 c 128,-1,9
 719 1386 719 1386 746.5 1385.5 c 0,10,11
 805.447368421 1384.42822967 805.447368421 1384.42822967 831 1331 c 2,12,-1
 1052 863 l 2,13,14
 1066 832.666666667 1066 832.666666667 1066 816 c 0,15,16
 1066 778 1066 778 1015 778 c 0,17,18
 989.3 778 989.3 778 923.5 872 c 1,19,-1
 746 1119 l 1,20,21
 587.081081081 900.621621622 587.081081081 900.621621622 572.540540541 878.810810811 c 0,22,23
 548.086956522 842.130434783 548.086956522 842.130434783 518.233133433 810.065217391 c 128,-1,24
 488.379310345 778 488.379310345 778 477 778 c 0,0,1
EndSplineSet
EndChar

StartChar: underscore
Encoding: 95 95 102
Width: 817
Flags: W
HStem: -1 92<119.5 694.434>
VStem: 119 582<7.59701 63.202>
LayerCount: 2
Fore
SplineSet
566 91 m 2,0,1
 677.631578947 91 677.631578947 91 695 63.5 c 0,2,3
 701 54 701 54 701 40 c 0,4,5
 701 11.9333333333 701 11.9333333333 676.75 5.46666666667 c 128,-1,6
 652.5 -1 652.5 -1 566 -1 c 2,7,-1
 254 -1 l 2,8,9
 169 -1 169 -1 144 7.33333333333 c 128,-1,10
 119 15.6666666667 119 15.6666666667 119 37.3333333333 c 0,11,12
 119 71.8275862069 119 71.8275862069 144.272727273 81.4137931034 c 128,-1,13
 169.545454545 91 169.545454545 91 251 91 c 2,14,-1
 566 91 l 2,0,1
EndSplineSet
EndChar

StartChar: quoteleft
Encoding: 8216 8216 103
Width: 472
Flags: W
HStem: 712 296<228.475 350.796> 1131.07 67.9259<330 352.728>
LayerCount: 2
Fore
SplineSet
222.5 1169 m 128,-1,1
 264 1199 264 1199 308.5 1199 c 128,-1,2
 353 1199 353 1199 353 1160 c 0,3,4
 353 1142.14814815 353 1142.14814815 330 1131.07407407 c 2,5,-1
 290.5 1112.5 l 2,6,7
 228 1084.09090909 228 1084.09090909 228 1008 c 1,8,9
 348.111111111 1008 348.111111111 1008 383.5 917 c 0,10,11
 394 890 394 890 394 860.5 c 0,12,13
 394 800.55 394 800.55 350.804878049 756.275 c 128,-1,14
 307.609756098 712 307.609756098 712 253.304878049 712 c 0,15,16
 161.304347826 712 161.304347826 712 122.152173913 759.394736842 c 128,-1,17
 83 806.789473684 83 806.789473684 83 870.394736842 c 128,-1,18
 83 934 83 934 101 990 c 128,-1,19
 119 1046 119 1046 150 1092.5 c 128,-1,0
 181 1139 181 1139 222.5 1169 c 128,-1,1
EndSplineSet
EndChar

StartChar: A
Encoding: 65 65 104
Width: 1224
Flags: W
HStem: 0 51.5<-17.0305 109.502 670.481 836.922> 0 37<319.266 460.999 668.021 754.59> 514 60<406 692>
DStem2: 163 130 243 124 0.347724 0.937597<-6.31696 437.58 500.79 500.79> 681 1117 540 981 0.368807 -0.929506<74.411 508.779 573.032 897.372>
LayerCount: 2
Fore
SplineSet
457 28 m 1,0,1
 461 25 461 25 461 18.5 c 128,-1,2
 461 12 461 12 457 0 c 1,3,-1
 -14 0 l 1,4,5
 -18 8 -18 8 -18 19.5 c 128,-1,6
 -18 31 -18 31 -7 38.5 c 128,-1,7
 4 46 4 46 21.5 51 c 128,-1,8
 39 56 39 56 60 60.5 c 0,9,10
 142.742372881 78.2305084746 142.742372881 78.2305084746 163 130 c 2,11,-1
 522 1098 l 2,12,13
 561.824324324 1206.09459459 561.824324324 1206.09459459 585 1220 c 0,14,15
 595 1226 595 1226 603.5 1226 c 0,16,17
 620.571428571 1226 620.571428571 1226 636.185714286 1206.71176471 c 128,-1,18
 651.8 1187.42352941 651.8 1187.42352941 681 1117 c 1,19,-1
 1075 124 l 2,20,21
 1095.48148148 71.658436214 1095.48148148 71.658436214 1186.5 57.5 c 0,22,23
 1271 44.3555555556 1271 44.3555555556 1271 22 c 0,24,25
 1271 13 1271 13 1267 0 c 1,26,-1
 673 0 l 1,27,28
 668 10 668 10 668 19.5 c 128,-1,29
 668 29 668 29 689 37 c 128,-1,30
 710 45 710 45 737.5 51.5 c 128,-1,31
 765 58 765 58 791.5 63 c 128,-1,32
 818 68 818 68 833 75 c 128,-1,33
 848 82 848 82 848 98.5 c 128,-1,34
 848 115 848 115 842 130 c 2,35,-1
 715 514 l 1,36,-1
 386 514 l 1,37,-1
 243 124 l 2,38,39
 239 113 239 113 239 94.5 c 0,40,41
 239 63.7384615385 239 63.7384615385 330.324596774 53.9035049628 c 128,-1,42
 421.649193548 44.0685483871 421.649193548 44.0685483871 457 28 c 1,0,1
406 574 m 1,43,-1
 692 574 l 1,44,-1
 540 981 l 1,45,-1
 406 574 l 1,43,-1
EndSplineSet
EndChar

StartChar: z
Encoding: 122 122 105
Width: 891
Flags: W
HStem: -26 21G<788.25 796.75> 0 42<330.359 678.149> 814 54<224.869 570.997> 864 20G<131.25 139.75>
DStem2: 57 14 341 102 0.539898 0.841731<194.136 955.375>
LayerCount: 2
Fore
SplineSet
795 262 m 1,0,-1
 817 259 l 1,1,-1
 805 -25 l 1,2,3
 801 -26 801 -26 792.5 -26 c 128,-1,4
 784 -26 784 -26 769 -22 c 2,5,-1
 735.5 -13 l 2,6,7
 687.4 -2.39808173319e-14 687.4 -2.39808173319e-14 669 0 c 2,8,-1
 64 0 l 1,9,-1
 57 14 l 1,10,-1
 555 792 l 2,11,12
 559 798 559 798 565 806 c 128,-1,13
 571 814 571 814 571 819.5 c 128,-1,14
 571 825 571 825 559 825 c 2,15,-1
 291 814 l 2,16,17
 243.38019802 812.015841584 243.38019802 812.015841584 224.264567095 793.731325047 c 128,-1,18
 205.14893617 775.446808511 205.14893617 775.446808511 191.074468085 733.223404255 c 0,19,20
 170.222222222 670.666666667 170.222222222 670.666666667 146.511111111 638.333333333 c 128,-1,21
 122.8 606 122.8 606 109.4 606 c 128,-1,22
 96 606 96 606 76 610 c 1,23,-1
 123 883 l 1,24,25
 127 884 127 884 135.5 884 c 128,-1,26
 144 884 144 884 160 881.5 c 2,27,-1
 195 876 l 2,28,29
 245.666666667 868 245.666666667 868 263 868 c 2,30,-1
 782 868 l 1,31,32
 805 866.357142857 805 866.357142857 805 845 c 1,33,-1
 802 829 l 1,34,-1
 341 102 l 2,35,36
 330 86 330 86 330 69 c 0,37,38
 330 42 330 42 353 42 c 2,39,-1
 629 50 l 2,40,41
 675.380368098 51.9325153374 675.380368098 51.9325153374 692.574799434 76.0047192072 c 128,-1,42
 709.769230769 100.076923077 709.769230769 100.076923077 725.384615385 161.038461538 c 128,-1,43
 741 222 741 222 761 242 c 128,-1,44
 781 262 781 262 795 262 c 1,0,-1
EndSplineSet
Substitution2: "'smcp' Lowercase to Small Capitals in Latin lookup 3 subtable" z.sc
EndChar

StartChar: s
Encoding: 115 115 106
Width: 802
Flags: W
HStem: -17 64<278.771 509.881> 846 56<290.97 485.182>
VStem: 85 84<127.49 300.983> 101 161<652.954 814.946> 552 179<83.7139 255.97> 621.574 52.4264<624.058 709.027>
DStem2: 347 622 252 430 0.840981 -0.541065<-125.354 405.252>
LayerCount: 2
Fore
SplineSet
127.75 301 m 0,0,1
 169 301 169 301 169 232.5 c 0,2,3
 169 151.985294118 169 151.985294118 241.846938776 99.4926470588 c 128,-1,4
 314.693877551 47 314.693877551 47 409.346938776 47 c 128,-1,5
 504 47 504 47 540 111.5 c 0,6,7
 552 133 552 133 552 161.5 c 128,-1,8
 552 190 552 190 542 211.5 c 0,9,10
 522.448891293 253.534883721 522.448891293 253.534883721 459.5 296.5 c 1,11,-1
 252 430 l 2,12,13
 101 526.090909091 101 526.090909091 101 667.5 c 0,14,15
 101 795.543209877 101 795.543209877 183.913461538 848.771604938 c 128,-1,16
 266.826923077 902 266.826923077 902 365.913461538 902 c 0,17,18
 532.727272727 902 532.727272727 902 658 850 c 1,19,-1
 674 626 l 1,20,21
 668 623 668 623 655.5 623 c 0,22,23
 637.578947368 623 637.578947368 623 621.573564593 644.721590909 c 128,-1,24
 605.568181818 666.443181818 605.568181818 666.443181818 599.784090909 694.221590909 c 0,25,26
 587.267102742 754.335102844 587.267102742 754.335102844 516.335932323 800.167551422 c 128,-1,27
 445.404761905 846 445.404761905 846 385.702380952 846 c 0,28,29
 262 846 262 846 262 747 c 0,30,31
 262 702 262 702 284 675 c 128,-1,32
 306 648 306 648 347 622 c 2,33,-1
 534 499 l 2,34,35
 731 370.192307692 731 370.192307692 731 222 c 0,36,37
 731 99.8241758242 731 99.8241758242 637.745614035 41.4120879121 c 128,-1,38
 544.49122807 -17 544.49122807 -17 378.692982456 -17 c 128,-1,39
 212.894736842 -17 212.894736842 -17 85 64 c 1,40,-1
 96 290 l 1,41,42
 112.5 301 112.5 301 127.75 301 c 0,0,1
EndSplineSet
Substitution2: "'smcp' Lowercase to Small Capitals in Latin lookup 3 subtable" s.sc
EndChar

StartChar: t
Encoding: 116 116 107
Width: 655
Flags: W
HStem: -17 81<440.721 608.709> 809 59<381 592> 809 29<32 67.5981>
VStem: 175 206<104.455 809>
LayerCount: 2
Fore
SplineSet
632 101 m 0,0,1
 651 101 651 101 651 66 c 0,2,3
 651 65 651 65 641 52 c 128,-1,4
 631 39 631 39 609 23.5 c 0,5,6
 551.516129032 -17 551.516129032 -17 476.758064516 -17 c 0,7,8
 325.8375 -17 325.8375 -17 250.41875 61.3571428571 c 128,-1,9
 175 139.714285714 175 139.714285714 175 334 c 2,10,-1
 175 809 l 1,11,-1
 32 809 l 1,12,-1
 32 838 l 1,13,14
 160.873350923 883.344327177 160.873350923 883.344327177 257 1001.5 c 1,15,-1
 298.5 1054 l 1,16,17
 338.065217391 1106 338.065217391 1106 352 1106 c 0,18,19
 376 1106 376 1106 376 1050 c 2,20,-1
 376 868 l 1,21,-1
 592 868 l 1,22,-1
 592 809 l 1,23,-1
 381 809 l 1,24,-1
 381 333 l 2,25,26
 381 172.461538462 381 172.461538462 399 130.230769231 c 128,-1,27
 417 88 417 88 440 76 c 128,-1,28
 463 64 463 64 496 64 c 128,-1,29
 529 64 529 64 553 70 c 128,-1,30
 577 76 577 76 594 82.5 c 128,-1,31
 611 89 611 89 620.5 95 c 128,-1,32
 630 101 630 101 632 101 c 0,0,1
EndSplineSet
Substitution2: "'smcp' Lowercase to Small Capitals in Latin lookup 3 subtable" t.sc
EndChar

StartChar: slash
Encoding: 47 47 108
Width: 813
Flags: W
VStem: 613 156<1185.64 1346.27>
LayerCount: 2
Fore
SplineSet
770 1306 m 1,0,-1
 769 1283 l 2,1,2
 769 1271 769 1271 753 1240 c 2,3,-1
 626 991.5 l 1,4,5
 434.078535457 597.448482374 434.078535457 597.448482374 209 -58 c 0,6,7
 186.827389444 -122.054208274 186.827389444 -122.054208274 136 -127.5 c 0,8,9
 122 -129 122 -129 110 -129 c 2,10,-1
 105 -129 l 2,11,12
 85 -129 85 -129 69 -108 c 128,-1,13
 53 -87 53 -87 53 -61 c 128,-1,14
 53 -35 53 -35 62 -12 c 2,15,-1
 532 1079 l 2,16,17
 541 1099 541 1099 554.5 1133 c 2,18,-1
 581 1202.5 l 1,19,20
 613 1289.88461538 613 1289.88461538 613 1305.44230769 c 0,21,22
 613 1331.5 613 1331.5 633.333333333 1346.75 c 128,-1,23
 653.666666667 1362 653.666666667 1362 689.833333333 1362 c 0,24,25
 742.666666667 1362 742.666666667 1362 756.333333333 1347.35714286 c 128,-1,26
 770 1332.71428571 770 1332.71428571 770 1306 c 1,0,-1
EndSplineSet
EndChar

StartChar: oslash
Encoding: 248 248 109
Width: 1112
Flags: W
HStem: -17 83<477.407 694.302> 850 52<449.777 650.938>
VStem: 74 206<238.025 648.159> 245 148<-217.342 -158> 722.5 186.5<980.88 1084.12> 832 206<234.862 645.66>
LayerCount: 2
Fore
SplineSet
323 35 m 1,0,1
 74 157.150943396 74 157.150943396 74 461 c 0,2,3
 74 556 74 556 115.5 642.5 c 128,-1,4
 157 729 157 729 224.5 786.5 c 0,5,6
 360.086956522 902 360.086956522 902 555 902 c 0,7,8
 623 902 623 902 691 885 c 1,9,-1
 722.5 978.5 l 1,10,11
 776.481927711 1133 776.481927711 1133 816 1133 c 0,12,13
 909 1133 909 1133 909 1067 c 0,14,15
 909 1054.68965517 909 1054.68965517 887.5 1019.84482759 c 2,16,-1
 843.5 946.5 l 2,17,18
 821 908 821 908 790 848 c 1,19,20
 1038 726.339622642 1038 726.339622642 1038 422 c 0,21,22
 1038 327 1038 327 996.5 241 c 128,-1,23
 955 155 955 155 887.5 97.5 c 0,24,25
 753.086956522 -17 753.086956522 -17 558 -17 c 0,26,27
 500 -17 500 -17 445 -5 c 1,28,-1
 393 -158 l 2,29,30
 366 -239 366 -239 298.78125 -239 c 0,31,32
 273 -239 273 -239 259 -218 c 128,-1,33
 245 -197 245 -197 245 -170 c 128,-1,34
 245 -143 245 -143 255 -120 c 2,35,-1
 323 35 l 1,0,1
377 157 m 1,36,-1
 667 815 l 1,37,38
 611 850 611 850 555 850 c 0,39,40
 441.2 850 441.2 850 360.6 749.25 c 128,-1,41
 280 648.5 280 648.5 280 458.965909091 c 128,-1,42
 280 269.431818182 280 269.431818182 377 157 c 1,36,-1
741 747 m 1,43,44
 611.424942263 460.255196305 611.424942263 460.255196305 476 83 c 1,45,46
 521 66 521 66 568 66 c 0,47,48
 672.206896552 66 672.206896552 66 752.103448276 158.68 c 128,-1,49
 832 251.36 832 251.36 832 412 c 0,50,51
 832 630 832 630 741 747 c 1,43,44
EndSplineSet
Substitution2: "'smcp' Lowercase to Small Capitals in Latin lookup 3 subtable" oslash.sc
EndChar

StartChar: Lslash
Encoding: 321 321 110
Width: 1119
Flags: W
HStem: -26 21G<998.571 1048.25> 0 61<46.415 249.019 496.317 932.282> 755 76<721.9 830.738> 1114.61 61.3911<63.8695 254.803> 1133 43<562.716 725.962>
VStem: 276 215<81.3125 142 1038 1098.99> 998.157 82.8427<156.168 337.173>
LayerCount: 2
Fore
SplineSet
788 831 m 256,0,1
 831 831 831 831 831 787 c 0,2,3
 831 769 831 769 806 755 c 128,-1,4
 781 741 781 741 718 716 c 2,5,-1
 243 524 l 2,6,7
 161.470588235 491 161.470588235 491 133.610294118 491 c 128,-1,8
 105.75 491 105.75 491 97 526 c 0,9,10
 96 530 96 530 96 536.5 c 0,11,12
 96 566.419354839 96 566.419354839 206 609 c 1,13,-1
 683 802 l 2,14,15
 756.466666667 831 756.466666667 831 788 831 c 256,0,1
1057 346 m 1,16,-1
 1081 341 l 1,17,-1
 1053 -20 l 1,18,19
 1051.5 -26 1051.5 -26 1045 -26 c 1,20,21
 952.142857143 1.06581410364e-14 952.142857143 1.06581410364e-14 886 0 c 2,22,-1
 50 0 l 1,23,24
 46 12 46 12 46 26.5 c 128,-1,25
 46 41 46 41 63 49 c 128,-1,26
 80 57 80 57 105.5 61 c 128,-1,27
 131 65 131 65 161 67 c 0,28,29
 276 74.6666666667 276 74.6666666667 276 142 c 2,30,-1
 276 1038 l 2,31,32
 276 1100.71153846 276 1100.71153846 172.7625 1114.60889423 c 128,-1,33
 69.525 1128.50625 69.525 1128.50625 48 1159 c 1,34,35
 48 1161 48 1161 52 1176 c 1,36,-1
 722 1176 l 1,37,38
 726 1165 726 1165 726 1152.5 c 128,-1,39
 726 1140 726 1140 708.5 1133 c 128,-1,40
 691 1126 691 1126 665 1123 c 128,-1,41
 639 1120 639 1120 608.5 1118 c 0,42,43
 491 1110.29508197 491 1110.29508197 491 1044 c 2,44,-1
 491 136 l 2,45,46
 491 56 491 56 536 56 c 1,47,-1
 842 67 l 2,48,49
 908.248648649 69.0702702703 908.248648649 69.0702702703 939.601597052 95.9442260442 c 128,-1,50
 970.954545455 122.818181818 970.954545455 122.818181818 998.157272727 234.409090909 c 128,-1,51
 1025.36 346 1025.36 346 1057 346 c 1,16,-1
EndSplineSet
EndChar

StartChar: florin
Encoding: 402 402 111
Width: 640
Flags: W
HStem: -253 41<-50.2194 49.1386> 793 59<83 224 427 636> 1256 41<523.313 623.387>
VStem: -222 169<-211.476 -73.5087> 626 169<1117.51 1255.48>
DStem2: 134 97 328 79 0.126847 0.991922<-211.876 701.794 786.068 1093.86>
LayerCount: 2
Fore
SplineSet
-53 -179 m 1,0,1
 -53 -212 -53 -212 -1.8984375 -212 c 128,-1,2
 49.203125 -212 49.203125 -212 79.6765625 -152.9 c 128,-1,3
 110.15 -93.8 110.15 -93.8 134 97 c 2,4,-1
 224 793 l 1,5,-1
 76 793 l 1,6,-1
 83 852 l 1,7,-1
 231 852 l 1,8,-1
 245 965 l 2,9,10
 267.251131514 1144.86331307 267.251131514 1144.86331307 357.51889909 1220.93165654 c 128,-1,11
 447.786666667 1297 447.786666667 1297 586.037777778 1297 c 128,-1,12
 724.288888889 1297 724.288888889 1297 776.5 1233.5 c 0,13,14
 795 1211 795 1211 795 1183 c 0,15,16
 795 1131.4516129 795 1131.4516129 762.216666667 1099.72580645 c 128,-1,17
 729.433333333 1068 729.433333333 1068 685.216666667 1068 c 128,-1,18
 641 1068 641 1068 622 1088 c 128,-1,19
 603 1108 603 1108 603 1133.5 c 128,-1,20
 603 1159 603 1159 613 1178 c 128,-1,21
 623 1197 623 1197 626 1223 c 1,22,23
 626 1256 626 1256 574.8984375 1256 c 128,-1,24
 523.796875 1256 523.796875 1256 493.476739019 1197.19731204 c 128,-1,25
 463.156603039 1138.39462407 463.156603039 1138.39462407 439 947 c 2,26,-1
 427 852 l 1,27,-1
 643 852 l 1,28,-1
 636 793 l 1,29,-1
 420 793 l 1,30,-1
 328 79 l 1,31,32
 306.002045513 -100.649961647 306.002045513 -100.649961647 215.607689423 -176.824980823 c 128,-1,33
 125.213333333 -253 125.213333333 -253 -13.0377777778 -253 c 128,-1,34
 -151.288888889 -253 -151.288888889 -253 -203.5 -189.5 c 0,35,36
 -222 -167 -222 -167 -222 -139 c 0,37,38
 -222 -87.4516129032 -222 -87.4516129032 -189.216666667 -55.7258064516 c 128,-1,39
 -156.433333333 -24 -156.433333333 -24 -112.216666667 -24 c 128,-1,40
 -68 -24 -68 -24 -49 -44 c 128,-1,41
 -30 -64 -30 -64 -30 -89.5 c 128,-1,42
 -30 -115 -30 -115 -40 -134 c 128,-1,43
 -50 -153 -50 -153 -53 -179 c 1,0,1
EndSplineSet
EndChar

StartChar: section
Encoding: 167 167 112
Width: 832
Flags: W
HStem: -17 50<281.354 552.556> 1234 46<273.342 512.814>
VStem: 95 76<106.872 276.008> 101 92<672.709 834.695> 122 86<1034.31 1184.5> 633 97<496.384 664.531> 648 105<100.946 273.322>
DStem2: 299 1002 251 855 0.876052 -0.482216<12.8845 485.996> 290 637 279 456 0.885772 -0.46412<-110.892 341.902>
LayerCount: 2
Fore
SplineSet
171 213 m 0,0,1
 171 33 171 33 444 33 c 0,2,3
 526.219512195 33 526.219512195 33 587.109756098 77.5803571429 c 128,-1,4
 648 122.160714286 648 122.160714286 648 180.420782675 c 128,-1,5
 648 238.680851064 648 238.680851064 602.5 274.5 c 0,6,7
 579 293 579 293 542.5 312.5 c 2,8,-1
 279 456 l 2,9,10
 101 554 101 554 101 701 c 0,11,12
 101 822.490196078 101 822.490196078 207 889 c 1,13,14
 122 965.904761905 122 965.904761905 122 1061 c 256,15,16
 122 1154.97142857 122 1154.97142857 196.169491525 1217.48571429 c 128,-1,17
 270.338983051 1280 270.338983051 1280 378.669491525 1280 c 128,-1,18
 487 1280 487 1280 563 1261 c 128,-1,19
 639 1242 639 1242 660 1232 c 1,20,-1
 674 1044 l 1,21,22
 666 1042 666 1042 655 1042 c 0,23,24
 637.210526316 1042 637.210526316 1042 621.91538974 1064.35443038 c 128,-1,25
 606.620253165 1086.70886076 606.620253165 1086.70886076 600.810126582 1115.35443038 c 128,-1,26
 595 1144 595 1144 571.5 1169.5 c 128,-1,27
 548 1195 548 1195 506.982758621 1214.5 c 128,-1,28
 465.965517241 1234 465.965517241 1234 384.982758621 1234 c 128,-1,29
 304 1234 304 1234 256 1201.5 c 128,-1,30
 208 1169 208 1169 208 1108.75555556 c 128,-1,31
 208 1048.51111111 208 1048.51111111 299 1002 c 1,32,-1
 554 868 l 1,33,34
 707.727619048 788.485714286 707.727619048 788.485714286 724.5 697 c 0,35,36
 730 667 730 667 730 631 c 0,37,38
 730 516.522727273 730 516.522727273 637 451 c 1,39,40
 737.04378763 380.698960044 737.04378763 380.698960044 749 298.5 c 0,41,42
 753 271 753 271 753 226 c 128,-1,43
 753 181 753 181 728.5 133.5 c 128,-1,44
 704 86 704 86 661 52.5 c 0,45,46
 571.791044776 -17 571.791044776 -17 431.701974001 -17 c 128,-1,47
 291.612903226 -17 291.612903226 -17 155.5 31.5 c 0,48,49
 112 47 112 47 84 67 c 1,50,-1
 95 280 l 1,51,52
 111 292 111 292 133 292 c 256,53,54
 144 292 144 292 157.5 276.5 c 128,-1,55
 171 261 171 261 171 213 c 0,0,1
582 484 m 1,56,57
 633 526.130434783 633 526.130434783 633 577.712944664 c 128,-1,58
 633 629.295454545 633 629.295454545 590 663.5 c 0,59,60
 568 681 568 681 533.5 699.5 c 2,61,-1
 288 833 l 2,62,63
 278 838 278 838 269 844 c 128,-1,64
 260 850 260 850 251 855 c 1,65,66
 193 819.785714286 193 819.785714286 193 751 c 256,67,68
 193 687.520833333 193 687.520833333 290 637 c 2,69,-1
 582 484 l 1,56,57
EndSplineSet
EndChar

StartChar: period
Encoding: 46 46 113
Width: 500
Flags: W
HStem: -16 296<144.184 357.589>
VStem: 98 306<30.4616 234.991>
LayerCount: 2
Fore
SplineSet
143 235 m 128,-1,1
 188 280 188 280 251 280 c 256,2,3
 314 280 314 280 359 235 c 128,-1,4
 404 190 404 190 404 132 c 256,5,6
 404 75.5853658537 404 75.5853658537 359.297619048 29.7926829268 c 128,-1,7
 314.595238095 -16 314.595238095 -16 251 -16 c 256,8,9
 187.56097561 -16 187.56097561 -16 142.780487805 27.7142857143 c 128,-1,10
 98 71.4285714286 98 71.4285714286 98 130.714285714 c 128,-1,0
 98 190 98 190 143 235 c 128,-1,1
EndSplineSet
EndChar

StartChar: uniFB00
Encoding: 64256 64256 114
Width: 1240
Flags: W
HStem: 0 44.5<45.0117 176.797 442.376 588.121 625.012 756.797 1022.38 1168.12> 809 59<62 205 411 785 991 1202> 1256 41<509.337 690.141 1048.51 1174.76>
VStem: 205 206<61.0464 809 868 1141.01> 785 206<61.0464 809 868 1067.62> 1181 173<1097.39 1247.12>
LayerCount: 2
Fore
SplineSet
1181 1217 m 0,0,1
 1181 1256 1181 1256 1113.453125 1256 c 128,-1,2
 1045.90625 1256 1045.90625 1256 1018.453125 1197.43333333 c 128,-1,3
 991 1138.86666667 991 1138.86666667 991 947 c 2,4,-1
 991 868 l 1,5,-1
 1202 868 l 1,6,-1
 1202 809 l 1,7,-1
 991 809 l 1,8,-1
 991 110 l 2,9,10
 991 62.6086956522 991 62.6086956522 1080 51 c 0,11,12
 1137.61616162 43.4848484848 1137.61616162 43.4848484848 1153.30808081 36.2424242424 c 128,-1,13
 1169 29 1169 29 1169 17 c 0,14,15
 1169 15 1169 15 1165 0 c 1,16,-1
 629 0 l 1,17,18
 625 15 625 15 625 22 c 128,-1,19
 625 29 625 29 637 35 c 128,-1,20
 649 41 649 41 666.5 44.5 c 128,-1,21
 684 48 684 48 705 51 c 0,22,23
 785 62.4285714286 785 62.4285714286 785 110 c 2,24,-1
 785 809 l 1,25,-1
 411 809 l 1,26,-1
 411 110 l 2,27,28
 411 62.6086956522 411 62.6086956522 500 51 c 0,29,30
 557.616161616 43.4848484848 557.616161616 43.4848484848 573.308080808 36.2424242424 c 128,-1,31
 589 29 589 29 589 17 c 0,32,33
 589 15 589 15 585 0 c 1,34,-1
 49 0 l 1,35,36
 45 15 45 15 45 22 c 128,-1,37
 45 29 45 29 57 35 c 128,-1,38
 69 41 69 41 86.5 44.5 c 128,-1,39
 104 48 104 48 125 51 c 0,40,41
 205 62.4285714286 205 62.4285714286 205 110 c 2,42,-1
 205 809 l 1,43,-1
 62 809 l 1,44,-1
 62 868 l 1,45,-1
 205 868 l 1,46,-1
 205 965 l 2,47,48
 205 1141.90909091 205 1141.90909091 332 1228.5 c 0,49,50
 432.466666667 1297 432.466666667 1297 579.968627451 1297 c 128,-1,51
 727.470588235 1297 727.470588235 1297 815 1249 c 0,52,53
 846 1232 846 1232 861 1208 c 1,54,55
 942.734693878 1297 942.734693878 1297 1106.95558223 1297 c 128,-1,56
 1271.17647059 1297 1271.17647059 1297 1332 1226.5 c 0,57,58
 1354 1201 1354 1201 1354 1163 c 128,-1,59
 1354 1125 1354 1125 1330 1096.5 c 128,-1,60
 1306 1068 1306 1068 1258 1068 c 128,-1,61
 1210 1068 1210 1068 1188.5 1092 c 128,-1,62
 1167 1116 1167 1116 1167 1143 c 128,-1,63
 1167 1170 1167 1170 1174 1186.5 c 128,-1,64
 1181 1203 1181 1203 1181 1217 c 0,0,1
785 965 m 2,65,66
 785 1025 785 1025 795 1069 c 1,67,68
 790 1068 790 1068 784.5 1068 c 2,69,-1
 774 1068 l 2,70,71
 730 1068 730 1068 708.5 1092 c 128,-1,72
 687 1116 687 1116 687 1143 c 128,-1,73
 687 1170 687 1170 694 1186.5 c 128,-1,74
 701 1203 701 1203 701 1215.5 c 0,75,76
 701 1237.17647059 701 1237.17647059 665.444444444 1246.58823529 c 128,-1,77
 629.888888889 1256 629.888888889 1256 594.944444444 1256 c 0,78,79
 514.734375 1256 514.734375 1256 472.5 1205 c 0,80,81
 411 1130.73584906 411 1130.73584906 411 947 c 2,82,-1
 411 868 l 1,83,-1
 785 868 l 1,84,-1
 785 965 l 2,65,66
EndSplineSet
Substitution2: "'smcp' Lowercase to Small Capitals in Latin lookup 3 subtable" f_f.sc
Ligature2: "'liga' Standard Ligatures in Latin lookup 2 subtable" f f
EndChar

StartChar: uniFB01
Encoding: 64257 64257 115
Width: 1219
Flags: W
HStem: 0 36.6811<45.2373 145.918 476.729 588.938 634.165 710.639 1100.64 1202.98> 809 59<62 205 411 819> 1256 41<527.535 738.164>
VStem: 205 206<61.0464 809 868 1140.8> 780 245<1020.43 1161.2> 819 206<70.1738 809>
LayerCount: 2
Fore
SplineSet
914.779411765 983 m 0,0,1
 821.022727273 983 821.022727273 983 789.5 1056 c 0,2,3
 780 1078 780 1078 780 1107.16666667 c 128,-1,4
 780 1136.33333333 780 1136.33333333 794 1162 c 1,5,6
 788.986842105 1222.15789474 788.986842105 1222.15789474 711.5 1246 c 0,7,8
 679 1256 679 1256 634.5 1256 c 0,9,10
 531.40625 1256 531.40625 1256 482 1205 c 0,11,12
 411 1131.70967742 411 1131.70967742 411 947 c 2,13,-1
 411 868 l 1,14,-1
 1025 868 l 1,15,-1
 1025 120 l 2,16,17
 1025 66.0434782609 1025 66.0434782609 1114 52.5 c 0,18,19
 1174.04864865 43.3621621622 1174.04864865 43.3621621622 1188.52432432 36.6810810811 c 128,-1,20
 1203 30 1203 30 1203 19.5 c 128,-1,21
 1203 9 1203 9 1199 0 c 1,22,-1
 638 0 l 1,23,24
 634 13 634 13 634 22 c 128,-1,25
 634 31 634 31 647.5 38 c 128,-1,26
 661 45 661 45 682 49.5 c 128,-1,27
 703 54 703 54 726.5 57.5 c 0,28,29
 819 71.2765957447 819 71.2765957447 819 126 c 2,30,-1
 819 809 l 1,31,-1
 411 809 l 1,32,-1
 411 110 l 2,33,34
 411 62.6086956522 411 62.6086956522 500 51 c 0,35,36
 557.616161616 43.4848484848 557.616161616 43.4848484848 573.308080808 36.2424242424 c 128,-1,37
 589 29 589 29 589 17 c 0,38,39
 589 15 589 15 585 0 c 1,40,-1
 49 0 l 1,41,42
 45 15 45 15 45 22 c 128,-1,43
 45 29 45 29 57 35 c 128,-1,44
 69 41 69 41 86.5 44.5 c 128,-1,45
 104 48 104 48 125 51 c 0,46,47
 205 62.4285714286 205 62.4285714286 205 110 c 2,48,-1
 205 809 l 1,49,-1
 62 809 l 1,50,-1
 62 868 l 1,51,-1
 205 868 l 1,52,-1
 205 965 l 2,53,54
 205 1144.84615385 205 1144.84615385 335.5 1228.5 c 0,55,56
 442.36 1297 442.36 1297 616 1297 c 0,57,58
 919.68852459 1297 919.68852459 1297 1003 1181.5 c 0,59,60
 1025 1151 1025 1151 1025 1116.5 c 0,61,62
 1025 1055.57575758 1025 1055.57575758 989.779411765 1019.28787879 c 128,-1,63
 954.558823529 983 954.558823529 983 914.779411765 983 c 0,0,1
EndSplineSet
Substitution2: "'smcp' Lowercase to Small Capitals in Latin lookup 3 subtable" f_i.sc
Ligature2: "'liga' Standard Ligatures in Latin lookup 2 subtable" f i
EndChar

StartChar: t_t
Encoding: 65539 -1 116
Width: 1195
Flags: W
HStem: -17 71<440.72 601.244 986.72 1147.24> 809 59<381 718.374 927 1138> 809 29<32 67.5981>
VStem: 175 206<104.455 809> 721 206<104.455 809>
LayerCount: 2
Fore
SplineSet
651 65 m 1,0,1
 593.956521739 -17 593.956521739 -17 459.89701087 -17 c 128,-1,2
 325.8375 -17 325.8375 -17 250.41875 61.3571428571 c 128,-1,3
 175 139.714285714 175 139.714285714 175 334 c 2,4,-1
 175 809 l 1,5,-1
 32 809 l 1,6,-1
 32 838 l 1,7,8
 160.873350923 883.344327177 160.873350923 883.344327177 257 1001.5 c 1,9,-1
 298.5 1054 l 1,10,11
 338.065217391 1106 338.065217391 1106 352 1106 c 0,12,13
 376 1106 376 1106 376 1050 c 2,14,-1
 376 868 l 1,15,-1
 680 868 l 1,16,17
 770.782608696 919.652173913 770.782608696 919.652173913 833.5 1020 c 0,18,19
 856 1056 856 1056 870 1081 c 128,-1,20
 884 1106 884 1106 898 1106 c 0,21,22
 922 1106 922 1106 922 1050 c 2,23,-1
 922 868 l 1,24,-1
 1138 868 l 1,25,-1
 1138 809 l 1,26,-1
 927 809 l 1,27,-1
 927 333 l 2,28,29
 927 169.615384615 927 169.615384615 945 125.307692308 c 128,-1,30
 963 81 963 81 986 67.5 c 128,-1,31
 1009 54 1009 54 1036.5 54 c 0,32,33
 1094.99186992 54 1094.99186992 54 1150.73076923 88.5384615385 c 0,34,35
 1166 98 1166 98 1171 98 c 0,36,37
 1182.33333333 98 1182.33333333 98 1197 65 c 1,38,39
 1139.95652174 -17 1139.95652174 -17 1005.89701087 -17 c 128,-1,40
 871.8375 -17 871.8375 -17 796.41875 61.3571428571 c 128,-1,41
 721 139.714285714 721 139.714285714 721 334 c 2,42,-1
 721 809 l 1,43,-1
 381 809 l 1,44,-1
 381 333 l 2,45,46
 381 169.615384615 381 169.615384615 399 125.307692308 c 128,-1,47
 417 81 417 81 440 67.5 c 128,-1,48
 463 54 463 54 490.5 54 c 0,49,50
 548.991869919 54 548.991869919 54 604.730769231 88.5384615385 c 0,51,52
 620 98 620 98 625 98 c 0,53,54
 636.333333333 98 636.333333333 98 651 65 c 1,0,1
EndSplineSet
Substitution2: "'smcp' Lowercase to Small Capitals in Latin lookup 3 subtable" t_t.sc
Ligature2: "'liga' Standard Ligatures in Latin lookup 2 subtable" t t
EndChar

StartChar: uniFB03
Encoding: 64259 64259 117
Width: 1804
Flags: W
HStem: 0 36.6811<45.2373 145.918 476.729 588.938 630.237 730.918 1061.73 1173.94 1219.17 1295.64 1685.64 1787.98> 809 59<62 205 411 790 996 1404> 1256 41<531.691 727.465 1112.87 1323.16>
VStem: 205 206<61.0464 809 868 1133.3> 790 206<61.0464 809 868 1066.66> 1365 245<1020.43 1161.19> 1404 206<70.1738 809>
LayerCount: 2
Fore
SplineSet
580.661290323 1297 m 0,0,1
 834.173913043 1297 834.173913043 1297 897 1212 c 1,2,3
 1005.5106383 1297 1005.5106383 1297 1201 1297 c 0,4,5
 1504.68852459 1297 1504.68852459 1297 1588 1181.5 c 0,6,7
 1610 1151 1610 1151 1610 1116.5 c 0,8,9
 1610 1055.57575758 1610 1055.57575758 1574.77941176 1019.28787879 c 128,-1,10
 1539.55882353 983 1539.55882353 983 1499.77941176 983 c 0,11,12
 1435 983 1435 983 1400 1018 c 128,-1,13
 1365 1053 1365 1053 1365 1094.66666667 c 128,-1,14
 1365 1136.33333333 1365 1136.33333333 1379 1162 c 1,15,16
 1373.98684211 1222.15789474 1373.98684211 1222.15789474 1296.5 1246 c 0,17,18
 1264 1256 1264 1256 1219.5 1256 c 0,19,20
 1116.40625 1256 1116.40625 1256 1067 1205 c 0,21,22
 996 1131.70967742 996 1131.70967742 996 947 c 2,23,-1
 996 868 l 1,24,-1
 1610 868 l 1,25,-1
 1610 120 l 2,26,27
 1610 66.0434782609 1610 66.0434782609 1699 52.5 c 0,28,29
 1759.04864865 43.3621621622 1759.04864865 43.3621621622 1773.52432432 36.6810810811 c 128,-1,30
 1788 30 1788 30 1788 19.5 c 128,-1,31
 1788 9 1788 9 1784 0 c 1,32,-1
 1223 0 l 1,33,34
 1219 13 1219 13 1219 22 c 128,-1,35
 1219 31 1219 31 1232.5 38 c 128,-1,36
 1246 45 1246 45 1267 49.5 c 128,-1,37
 1288 54 1288 54 1311.5 57.5 c 0,38,39
 1404 71.2765957447 1404 71.2765957447 1404 126 c 2,40,-1
 1404 809 l 1,41,-1
 996 809 l 1,42,-1
 996 110 l 2,43,44
 996 62.6086956522 996 62.6086956522 1085 51 c 0,45,46
 1142.61616162 43.4848484848 1142.61616162 43.4848484848 1158.30808081 36.2424242424 c 128,-1,47
 1174 29 1174 29 1174 17 c 0,48,49
 1174 15 1174 15 1170 0 c 1,50,-1
 634 0 l 1,51,52
 630 15 630 15 630 22 c 128,-1,53
 630 29 630 29 642 35 c 128,-1,54
 654 41 654 41 671.5 44.5 c 128,-1,55
 689 48 689 48 710 51 c 0,56,57
 790 62.4285714286 790 62.4285714286 790 110 c 2,58,-1
 790 809 l 1,59,-1
 411 809 l 1,60,-1
 411 110 l 2,61,62
 411 62.6086956522 411 62.6086956522 500 51 c 0,63,64
 557.616161616 43.4848484848 557.616161616 43.4848484848 573.308080808 36.2424242424 c 128,-1,65
 589 29 589 29 589 17 c 0,66,67
 589 15 589 15 585 0 c 1,68,-1
 49 0 l 1,69,70
 45 15 45 15 45 22 c 128,-1,71
 45 29 45 29 57 35 c 128,-1,72
 69 41 69 41 86.5 44.5 c 128,-1,73
 104 48 104 48 125 51 c 0,74,75
 205 62.4285714286 205 62.4285714286 205 110 c 2,76,-1
 205 809 l 1,77,-1
 62 809 l 1,78,-1
 62 868 l 1,79,-1
 205 868 l 1,80,-1
 205 965 l 2,81,82
 205 1188.91011236 205 1188.91011236 433.5 1268.5 c 0,83,84
 515.322580645 1297 515.322580645 1297 580.661290323 1297 c 0,0,1
790 965 m 2,85,86
 790 1025.28571429 790 1025.28571429 803 1068 c 1,87,88
 765 1072 765 1072 746 1095 c 128,-1,89
 727 1118 727 1118 727 1144 c 128,-1,90
 727 1170 727 1170 734 1186.5 c 128,-1,91
 741 1203 741 1203 741 1215.5 c 0,92,93
 741 1236.67567568 741 1236.67567568 701.277777778 1246.33783784 c 128,-1,94
 661.555555556 1256 661.555555556 1256 625.777777778 1256 c 0,95,96
 411 1256 411 1256 411 947 c 2,97,-1
 411 868 l 1,98,-1
 790 868 l 1,99,-1
 790 965 l 2,85,86
EndSplineSet
Substitution2: "'smcp' Lowercase to Small Capitals in Latin lookup 3 subtable" f_f_i.sc
Ligature2: "'liga' Standard Ligatures in Latin lookup 2 subtable" f f i
EndChar

StartChar: uniFB02
Encoding: 64258 64258 118
Width: 1219
Flags: W
HStem: 0 53.5<46.5498 193.75 636.443 793.977 1114 1200.12> 0 36.2424<481.596 588.939> 809 59<62 205 411 817> 1256 41<527.826 762.805>
VStem: 205 206<61.0464 809 868 1140.8> 817 208<68.525 809 868 1216.58>
LayerCount: 2
Fore
SplineSet
638 0 m 1,0,1
 634 12 634 12 634 18 c 0,2,3
 634 44.6545454545 634 44.6545454545 703.5 53.5 c 0,4,5
 731 57 731 57 756.5 63.5 c 0,6,7
 818 79.1764705882 818 79.1764705882 818 126 c 2,8,-1
 817 809 l 1,9,-1
 411 809 l 1,10,-1
 411 110 l 2,11,12
 411 62.6086956522 411 62.6086956522 500 51 c 0,13,14
 557.616161616 43.4848484848 557.616161616 43.4848484848 573.308080808 36.2424242424 c 128,-1,15
 589 29 589 29 589 17 c 0,16,17
 589 15 589 15 585 0 c 1,18,-1
 49 0 l 1,19,20
 45 15 45 15 45 22 c 128,-1,21
 45 29 45 29 57 35 c 128,-1,22
 69 41 69 41 86.5 44.5 c 128,-1,23
 104 48 104 48 125 51 c 0,24,25
 205 62.4285714286 205 62.4285714286 205 110 c 2,26,-1
 205 809 l 1,27,-1
 62 809 l 1,28,-1
 62 868 l 1,29,-1
 205 868 l 1,30,-1
 205 965 l 2,31,32
 205 1144.84615385 205 1144.84615385 335.5 1228.5 c 0,33,34
 442.36 1297 442.36 1297 616 1297 c 0,35,36
 990.418604651 1297 990.418604651 1297 1021 1165.5 c 0,37,38
 1026 1144 1026 1144 1025.5 993.5 c 128,-1,39
 1025 843 1025 843 1025 622 c 2,40,-1
 1025 120 l 2,41,42
 1025 72.9130434783 1025 72.9130434783 1114 55.5 c 2,43,-1
 1157 47 l 2,44,45
 1203 37.8 1203 37.8 1203 18 c 0,46,47
 1203 9 1203 9 1199 0 c 1,48,-1
 638 0 l 1,0,1
817 1016 m 1,49,-1
 821 1128 l 1,50,51
 821 1195.53658537 821 1195.53658537 794 1217.26829268 c 0,52,53
 745.878787879 1256 745.878787879 1256 638.642518939 1256 c 128,-1,54
 531.40625 1256 531.40625 1256 482 1205 c 0,55,56
 411 1131.70967742 411 1131.70967742 411 947 c 2,57,-1
 411 868 l 1,58,-1
 817 868 l 1,59,-1
 817 1016 l 1,49,-1
EndSplineSet
Substitution2: "'smcp' Lowercase to Small Capitals in Latin lookup 3 subtable" f_l.sc
Ligature2: "'liga' Standard Ligatures in Latin lookup 2 subtable" f l
EndChar

StartChar: uniFB04
Encoding: 64260 64260 119
Width: 1805
Flags: W
HStem: 0 44.5<45.0117 176.797 631.012 762.797> 809 59<62 205 411 791 997 1403> 1256 41<531.691 727.37 1113.97 1363.12>
VStem: 205 206<61.0464 809 868 1133.3> 791 206<61.0464 809 868 1066.66> 1403 208<68.525 809 868 1205.38>
LayerCount: 2
Fore
SplineSet
580.661290323 1297 m 0,0,1
 833.5 1297 833.5 1297 898 1211 c 1,2,3
 1005.5 1297 1005.5 1297 1202 1297 c 0,4,5
 1505.68852459 1297 1505.68852459 1297 1589 1181.5 c 0,6,7
 1611 1151 1611 1151 1611 1109 c 2,8,-1
 1611 120 l 2,9,10
 1611 66.0434782609 1611 66.0434782609 1700 52.5 c 0,11,12
 1760.04864865 43.3621621622 1760.04864865 43.3621621622 1774.52432432 36.6810810811 c 128,-1,13
 1789 30 1789 30 1789 19.5 c 128,-1,14
 1789 9 1789 9 1785 0 c 1,15,-1
 1224 0 l 1,16,17
 1220 12 1220 12 1220 22 c 0,18,19
 1220 44.6545454545 1220 44.6545454545 1268.5 50.8272727273 c 128,-1,20
 1317 57 1317 57 1342.5 63.5 c 0,21,22
 1404 79.1764705882 1404 79.1764705882 1404 126 c 2,23,-1
 1403 809 l 1,24,-1
 997 809 l 1,25,-1
 997 110 l 2,26,27
 997 62.6086956522 997 62.6086956522 1086 51 c 0,28,29
 1143.61616162 43.4848484848 1143.61616162 43.4848484848 1159.30808081 36.2424242424 c 128,-1,30
 1175 29 1175 29 1175 17 c 0,31,32
 1175 15 1175 15 1171 0 c 1,33,-1
 635 0 l 1,34,35
 631 15 631 15 631 22 c 128,-1,36
 631 29 631 29 643 35 c 128,-1,37
 655 41 655 41 672.5 44.5 c 128,-1,38
 690 48 690 48 711 51 c 0,39,40
 791 62.4285714286 791 62.4285714286 791 110 c 2,41,-1
 791 809 l 1,42,-1
 411 809 l 1,43,-1
 411 110 l 2,44,45
 411 62.6086956522 411 62.6086956522 500 51 c 0,46,47
 557.616161616 43.4848484848 557.616161616 43.4848484848 573.308080808 36.2424242424 c 128,-1,48
 589 29 589 29 589 17 c 0,49,50
 589 15 589 15 585 0 c 1,51,-1
 49 0 l 1,52,53
 45 15 45 15 45 22 c 128,-1,54
 45 29 45 29 57 35 c 128,-1,55
 69 41 69 41 86.5 44.5 c 128,-1,56
 104 48 104 48 125 51 c 0,57,58
 205 62.4285714286 205 62.4285714286 205 110 c 2,59,-1
 205 809 l 1,60,-1
 62 809 l 1,61,-1
 62 868 l 1,62,-1
 205 868 l 1,63,-1
 205 965 l 2,64,65
 205 1188.91011236 205 1188.91011236 433.5 1268.5 c 0,66,67
 515.322580645 1297 515.322580645 1297 580.661290323 1297 c 0,0,1
1403 1016 m 1,68,-1
 1415 1156 l 1,69,70
 1415 1208.47727273 1415 1208.47727273 1385.5 1225.23863636 c 0,71,72
 1331.36 1256 1331.36 1256 1224.383125 1256 c 128,-1,73
 1117.40625 1256 1117.40625 1256 1068 1205 c 0,74,75
 997 1131.70967742 997 1131.70967742 997 947 c 2,76,-1
 997 868 l 1,77,-1
 1403 868 l 1,78,-1
 1403 1016 l 1,68,-1
791 965 m 2,79,80
 791 1025.28571429 791 1025.28571429 804 1068 c 1,81,82
 765 1071 765 1071 746 1094.5 c 128,-1,83
 727 1118 727 1118 727 1144 c 128,-1,84
 727 1170 727 1170 734 1186.5 c 128,-1,85
 741 1203 741 1203 741 1215.5 c 0,86,87
 741 1236.67567568 741 1236.67567568 701.277777778 1246.33783784 c 128,-1,88
 661.555555556 1256 661.555555556 1256 625.777777778 1256 c 0,89,90
 411 1256 411 1256 411 947 c 2,91,-1
 411 868 l 1,92,-1
 791 868 l 1,93,-1
 791 965 l 2,79,80
EndSplineSet
Substitution2: "'smcp' Lowercase to Small Capitals in Latin lookup 3 subtable" f_f_l.sc
Ligature2: "'liga' Standard Ligatures in Latin lookup 2 subtable" f f l
EndChar

StartChar: grave
Encoding: 96 96 120
Width: 1350
Flags: W
HStem: 29 403
VStem: 429 535
LayerCount: 2
Fore
SplineSet
964 66 m 0,0,1
 964 29 964 29 918 29 c 0,2,3
 906.357142857 29 906.357142857 29 884.178571429 40.5 c 2,4,-1
 826 72 l 1,5,6
 795 90 795 90 644.909090909 169.051515152 c 128,-1,7
 494.818181818 248.103030303 494.818181818 248.103030303 461.909090909 266.551515152 c 128,-1,8
 429 285 429 285 429 315.5 c 0,9,10
 429 366.857142857 429 366.857142857 451.8 399.428571429 c 128,-1,11
 474.6 432 474.6 432 508.8 432 c 128,-1,12
 543 432 543 432 560.5 415.5 c 2,13,-1
 615 363.5 l 2,14,15
 654.668435013 325.153846154 654.668435013 325.153846154 701.334217507 288.076923077 c 2,16,-1
 800.5 211.5 l 1,17,-1
 928 118 l 2,18,19
 964 92.5882352941 964 92.5882352941 964 66 c 0,0,1
EndSplineSet
EndChar

StartChar: acute
Encoding: 180 180 121
Width: 1350
Flags: W
HStem: 39 393
VStem: 533 520
LayerCount: 2
Fore
SplineSet
533 68.5 m 128,-1,1
 533 98 533 98 567 123 c 0,2,3
 781.637426901 281.020467836 781.637426901 281.020467836 819.31871345 316.010233918 c 128,-1,4
 857 351 857 351 870.5 365 c 2,5,-1
 894 389.5 l 2,6,7
 934.476190476 432 934.476190476 432 970.938095238 432 c 128,-1,8
 1007.4 432 1007.4 432 1030.2 399.428571429 c 128,-1,9
 1053 366.857142857 1053 366.857142857 1053 325.928571429 c 128,-1,10
 1053 285 1053 285 1037 275 c 128,-1,11
 1021 265 1021 265 989.5 249.5 c 2,12,-1
 768 142 l 1,13,14
 686.222222222 101.111111111 686.222222222 101.111111111 667.111111111 86.5555555556 c 0,15,16
 604.671755725 39 604.671755725 39 568.835877863 39 c 128,-1,0
 533 39 533 39 533 68.5 c 128,-1,1
EndSplineSet
EndChar

StartChar: dieresis
Encoding: 168 168 122
Width: 1707
Flags: W
HStem: 96 220<490.488 644.996 1046.49 1201>
VStem: 458 220<128.488 282.694> 1014 220<128.488 282.694>
LayerCount: 2
Fore
SplineSet
458 205 m 256,0,1
 458 251.413793103 458 251.413793103 489.216666667 283.706896552 c 128,-1,2
 520.433333333 316 520.433333333 316 567 316 c 256,3,4
 614 316 614 316 646 284 c 128,-1,5
 678 252 678 252 678 205 c 256,6,7
 678 132.487804878 678 132.487804878 610.5 104.5 c 0,8,9
 590 96 590 96 567 96 c 256,10,11
 521 96 521 96 489.5 127.5 c 128,-1,12
 458 159 458 159 458 205 c 256,0,1
1014 205 m 256,13,14
 1014 251.413793103 1014 251.413793103 1045.21666667 283.706896552 c 128,-1,15
 1076.43333333 316 1076.43333333 316 1123 316 c 256,16,17
 1170 316 1170 316 1202 284 c 128,-1,18
 1234 252 1234 252 1234 205 c 256,19,20
 1234 132.487804878 1234 132.487804878 1166.5 104.5 c 0,21,22
 1146 96 1146 96 1123 96 c 256,23,24
 1077 96 1077 96 1045.5 127.5 c 128,-1,25
 1014 159 1014 159 1014 205 c 256,13,14
EndSplineSet
EndChar

StartChar: cedilla
Encoding: 184 184 123
Width: 702
Flags: W
HStem: -448 110<223.836 393.56>
VStem: 283 74<-61 13> 395 184<-335.111 -201.343>
LayerCount: 2
Fore
SplineSet
223 -305 m 1,0,1
 249.4 -338 249.4 -338 322.2 -338 c 128,-1,2
 395 -338 395 -338 395 -279 c 0,3,4
 395 -209.545454545 395 -209.545454545 317 -186.5 c 0,5,6
 295 -180 295 -180 275 -180 c 128,-1,7
 255 -180 255 -180 233 -185 c 1,8,-1
 283 13 l 1,9,-1
 357 13 l 1,10,-1
 327 -99 l 1,11,12
 446.705882353 -99 446.705882353 -99 512.852941176 -152.547619048 c 128,-1,13
 579 -206.095238095 579 -206.095238095 579 -282.30991413 c 128,-1,14
 579 -358.524590164 579 -358.524590164 514.023809524 -403.262295082 c 128,-1,15
 449.047619048 -448 449.047619048 -448 383.523809524 -448 c 0,16,17
 265.857142857 -448 265.857142857 -448 203 -393 c 1,18,-1
 223 -305 l 1,0,1
EndSplineSet
EndChar

StartChar: breve
Encoding: 728 728 124
Width: 702
Flags: W
HStem: 51 104<270.367 437.633>
VStem: 155 95<176.288 254.91> 457 96<176.288 256>
LayerCount: 2
Fore
SplineSet
155 202 m 0,0,1
 155 221 155 221 160 256 c 1,2,-1
 251 256 l 1,3,4
 250 254 250 254 250 252 c 2,5,-1
 250 243 l 2,6,7
 250 196.272727273 250 196.272727273 269.739130435 175.636363636 c 128,-1,8
 289.47826087 155 289.47826087 155 354 155 c 256,9,10
 418.52173913 155 418.52173913 155 438.260869565 175.636363636 c 128,-1,11
 458 196.272727273 458 196.272727273 458 243 c 1,12,-1
 457 252 l 1,13,-1
 457 256 l 1,14,-1
 548 256 l 1,15,16
 553 221 553 221 553 202 c 0,17,18
 553 51 553 51 354 51 c 128,-1,19
 155 51 155 51 155 202 c 0,0,1
EndSplineSet
EndChar

StartChar: macron
Encoding: 175 175 125
Width: 1022
Flags: W
HStem: 71 118<271 764>
VStem: 271 493<71 189>
LayerCount: 2
Fore
SplineSet
764 71 m 1,0,-1
 271 71 l 1,1,-1
 271 189 l 1,2,-1
 764 189 l 1,3,-1
 764 71 l 1,0,-1
EndSplineSet
EndChar

StartChar: circumflex
Encoding: 710 710 126
Width: 1500
Flags: W
HStem: 47 607.5
VStem: 426 640<47 101.667>
LayerCount: 2
Fore
SplineSet
477 47 m 0,0,1
 426 47 426 47 426 85 c 0,2,3
 426 101.666666667 426 101.666666667 464.5 181.333333333 c 2,4,-1
 557.5 374 l 2,5,6
 612 487 612 487 661 600 c 1,7,8
 672 622 672 622 695.5 638.5 c 128,-1,9
 719 655 719 655 746.5 654.5 c 0,10,11
 805.447368421 653.428229665 805.447368421 653.428229665 831 600 c 2,12,-1
 1052 132 l 2,13,14
 1066 101.666666667 1066 101.666666667 1066 85 c 0,15,16
 1066 47 1066 47 1015 47 c 0,17,18
 989.3 47 989.3 47 923.5 141 c 1,19,-1
 746 388 l 1,20,21
 587.081081081 169.621621622 587.081081081 169.621621622 572.540540541 147.810810811 c 0,22,23
 548.086956522 111.130434783 548.086956522 111.130434783 518.233133433 79.0652173913 c 128,-1,24
 488.379310345 47 488.379310345 47 477 47 c 0,0,1
EndSplineSet
EndChar

StartChar: dotaccent
Encoding: 729 729 145
Width: 702
Flags: W
HStem: 96 220<273.488 427.996>
VStem: 241 220<128.488 282.694>
LayerCount: 2
Fore
SplineSet
241 205 m 256,0,1
 241 251.413793103 241 251.413793103 272.216666667 283.706896552 c 128,-1,2
 303.433333333 316 303.433333333 316 350 316 c 256,3,4
 397 316 397 316 429 284 c 128,-1,5
 461 252 461 252 461 205 c 256,6,7
 461 132.487804878 461 132.487804878 393.5 104.5 c 0,8,9
 373 96 373 96 350 96 c 256,10,11
 304 96 304 96 272.5 127.5 c 128,-1,12
 241 159 241 159 241 205 c 256,0,1
EndSplineSet
EndChar

StartChar: dotlessi
Encoding: 305 305 155
Width: 635
Flags: W
HStem: 0 49.5<28.3906 192.156 464.529 624.871> 850 20G<335.647 438>
VStem: 232 206<72.167 746.216>
LayerCount: 2
Fore
SplineSet
438 120 m 2,0,1
 438 66.2083333333 438 66.2083333333 532 52.5 c 0,2,3
 594.905263158 43.3263157895 594.905263158 43.3263157895 610.452631579 36.6631578947 c 128,-1,4
 626 30 626 30 626 19.5 c 128,-1,5
 626 9 626 9 622 0 c 1,6,-1
 32 0 l 1,7,8
 28 13 28 13 28 22 c 128,-1,9
 28 31 28 31 43 38 c 128,-1,10
 58 45 58 45 81 49.5 c 128,-1,11
 104 54 104 54 130 57.5 c 0,12,13
 232 71.2307692308 232 71.2307692308 232 126 c 2,14,-1
 232 692 l 2,15,16
 232 741.692307692 232 741.692307692 158.5 753 c 128,-1,17
 85 764.307692308 85 764.307692308 85 781.5 c 0,18,19
 85 790 85 790 90 802 c 1,20,-1
 438 870 l 1,21,-1
 438 120 l 2,0,1
EndSplineSet
Substitution2: "'smcp' Lowercase to Small Capitals in Latin lookup 3 subtable" dotlessi.sc
EndChar

StartChar: dollar
Encoding: 36 36 156
Width: 995
Flags: W
HStem: -27 63<536 670.992> 876 21G<824.654 838.25> 1138 62<337.051 460 551 648.831>
VStem: 94 65.2921<193.257 368.211> 95 157<794.091 1050.61> 449 87<-211.006 -27 45 446.484> 459 93<50.9375 452 785 1136 1197.91 1390.02> 757 174<141.261 332.763>
DStem2: 359 842 310 581 0.858168 -0.513369<-137.413 110.788 186.923 251.78 353.826 631.507>
LayerCount: 2
Fore
SplineSet
507 1422 m 0,0,1
 552 1422 552 1422 552 1311.25 c 2,2,-1
 552 1239 l 2,3,4
 552 1220 552 1220 551 1201 c 1,5,6
 704.50877193 1192.8128655 704.50877193 1192.8128655 831 1138 c 1,7,-1
 861 881 l 1,8,9
 843 876 843 876 833.5 876 c 0,10,11
 815.807692308 876 815.807692308 876 800.31561086 902.852941176 c 128,-1,12
 784.823529412 929.705882353 784.823529412 929.705882353 776.911764706 964.852941176 c 0,13,14
 761.101198317 1035.08947216 761.101198317 1035.08947216 699.239359965 1078.99142196 c 128,-1,15
 637.377521614 1122.89337176 637.377521614 1122.89337176 550 1136 c 1,16,17
 543.604166667 937.729166667 543.604166667 937.729166667 541 732 c 1,18,-1
 695 641 l 2,19,20
 833.178005284 559.260898283 833.178005284 559.260898283 882.089002642 490.970071783 c 128,-1,21
 931 422.679245283 931 422.679245283 931 326.339622642 c 0,22,23
 931 150.733944954 931 150.733944954 820.050236889 66.2492629525 c 128,-1,24
 709.100473779 -18.2354190492 709.100473779 -18.2354190492 536 -27 c 1,25,-1
 536 -125 l 2,26,27
 536 -195.066666667 536 -195.066666667 513.545454545 -211.533333333 c 128,-1,28
 491.090909091 -228 491.090909091 -228 480.045454545 -228 c 128,-1,29
 469 -228 469 -228 454.5 -205.5 c 128,-1,30
 440 -183 440 -183 439 -141 c 1,31,-1
 441 -26 l 1,32,33
 225.956097561 -13.4731707317 225.956097561 -13.4731707317 73 80 c 1,34,-1
 94 366 l 1,35,36
 111 371 111 371 117.5 371 c 0,37,38
 146.02117061 371 146.02117061 371 159.292134831 276.601123596 c 0,39,40
 171.090526312 192.67693538 171.090526312 192.67693538 253.047659322 129.393579511 c 128,-1,41
 335.004792332 66.1102236422 335.004792332 66.1102236422 449 45 c 1,42,-1
 449 502 l 1,43,-1
 310 581 l 2,44,45
 95 702.181818182 95 702.181818182 95 886 c 0,46,47
 95 1035.18811881 95 1035.18811881 198.705533199 1112.19717812 c 128,-1,48
 302.411066398 1189.20623742 302.411066398 1189.20623742 460 1200 c 1,49,50
 459 1224 459 1224 459 1245.5 c 2,51,-1
 459 1285 l 2,52,53
 459 1360 459 1360 468 1391 c 128,-1,54
 477 1422 477 1422 507 1422 c 0,0,1
538 452 m 1,55,56
 536 276 536 276 536 36 c 1,57,58
 688 36 688 36 739.5 139 c 0,59,60
 757 174 757 174 757 216 c 0,61,62
 757 289.471698113 757 289.471698113 710.993291239 334.610355765 c 128,-1,63
 664.986582478 379.749013418 664.986582478 379.749013418 538 452 c 1,55,56
460 1138 m 1,64,65
 321.371757925 1128.09798271 321.371757925 1128.09798271 269 1048 c 0,66,67
 252 1022 252 1022 252 986 c 0,68,69
 252 905.053571429 252 905.053571429 359 842 c 2,70,-1
 454 785 l 1,71,-1
 460 1138 l 1,64,65
EndSplineSet
EndChar

StartChar: yen
Encoding: 165 165 157
Width: 1315
Flags: W
HStem: 0 41<309.037 469.504 823.29 987.574> 210 97<250.063 540 755 1068.92> 393 94<249.455 540 755 1065.78> 1122.08 53.9167<1083.55 1259.01>
VStem: 540 215<70.172 210 307 393 487 530>
DStem2: 726 630 540 530 0.488603 -0.872506<-488.881 -3.62963> 726 630 755 580 0.500591 0.865684<0 482.437>
LayerCount: 2
Fore
SplineSet
1088 265 m 0,0,1
 1088 210 1088 210 995 210 c 2,2,-1
 755 210 l 1,3,-1
 755 124 l 2,4,5
 755 64.4590163934 755 64.4590163934 871.5 53 c 0,6,7
 944.88697318 45.7816091954 944.88697318 45.7816091954 966.44348659 38.3908045977 c 128,-1,8
 988 31 988 31 988 17 c 0,9,10
 988 13 988 13 984 0 c 1,11,-1
 314 0 l 1,12,13
 309 10 309 10 309 22 c 128,-1,14
 309 34 309 34 326 41 c 128,-1,15
 343 48 343 48 369 50.5 c 128,-1,16
 395 53 395 53 424.5 55 c 0,17,18
 540 62.8305084746 540 62.8305084746 540 130 c 2,19,-1
 540 210 l 1,20,-1
 463 210 l 2,21,22
 272.375 210 272.375 210 254.5 236 c 0,23,24
 249 244 249 244 249 254.5 c 0,25,26
 249 302 249 302 370 302 c 2,27,-1
 540 303 l 1,28,-1
 540 395 l 1,29,-1
 389 391 l 1,30,31
 325 391 325 391 287 402.5 c 128,-1,32
 249 414 249 414 249 444 c 128,-1,33
 249 474 249 474 276.5 479 c 0,34,35
 320.5 487 320.5 487 463 487 c 2,36,-1
 540 487 l 1,37,-1
 540 530 l 1,38,-1
 260 1030 l 2,39,40
 249.020467836 1049.76315789 249.020467836 1049.76315789 184.010233918 1082.88157895 c 2,41,-1
 97 1127.5 l 2,42,43
 46 1154.15909091 46 1154.15909091 46 1157.57954545 c 128,-1,44
 46 1161 46 1161 50 1176 c 1,45,-1
 676 1176 l 1,46,47
 680 1165 680 1165 680 1156.5 c 128,-1,48
 680 1148 680 1148 666 1140.5 c 128,-1,49
 652 1133 652 1133 631 1126 c 128,-1,50
 610 1119 610 1119 585.5 1112.5 c 128,-1,51
 561 1106 561 1106 526 1093.5 c 128,-1,52
 491 1081 491 1081 491 1059 c 0,53,54
 491 1050 491 1050 496 1040 c 2,55,-1
 726 630 l 1,56,-1
 940 1040 l 2,57,58
 946 1050 946 1050 946 1064 c 0,59,60
 946 1087.39655172 946 1087.39655172 866.660060976 1107.91550147 c 128,-1,61
 787.320121951 1128.43445122 787.320121951 1128.43445122 772.660060976 1139.71722561 c 128,-1,62
 758 1151 758 1151 758 1156 c 128,-1,63
 758 1161 758 1161 762 1176 c 1,64,-1
 1258 1176 l 1,65,66
 1262 1165 1262 1165 1262 1158 c 0,67,68
 1262 1134.16666667 1262 1134.16666667 1189.5 1122.08333333 c 128,-1,69
 1117 1110 1117 1110 1080 1094 c 128,-1,70
 1043 1078 1043 1078 1021 1040 c 2,71,-1
 755 580 l 1,72,-1
 755 487 l 1,73,-1
 984 487 l 2,74,75
 1045.85714286 487 1045.85714286 487 1066.42857143 469 c 128,-1,76
 1087 451 1087 451 1087 435.5 c 128,-1,77
 1087 420 1087 420 1066 406.5 c 128,-1,78
 1045 393 1045 393 1006 393 c 2,79,-1
 755 393 l 1,80,-1
 755 307 l 1,81,-1
 1011 307 l 2,82,83
 1051 307 1051 307 1069.5 293.5 c 128,-1,84
 1088 280 1088 280 1088 265 c 0,0,1
EndSplineSet
EndChar

StartChar: cent
Encoding: 162 162 158
Width: 940
Flags: W
HStem: -12 107<398.154 498 594 748.681> 837 61<426.68 497 594 680.508>
VStem: 62 206<242.139 649.914> 498 96<-275.261 -16 100 837 897.678 1184.84> 695 177<657.583 813.208>
LayerCount: 2
Fore
SplineSet
841 119 m 1,0,-1
 842 108 l 1,1,2
 842 96 842 96 836 90 c 0,3,4
 745.289719626 7.17757009346 745.289719626 7.17757009346 594 -12 c 1,5,-1
 594 -62 l 2,6,7
 594 -252.625 594 -252.625 568 -270.5 c 0,8,9
 560 -276 560 -276 549.5 -276 c 0,10,11
 501 -276 501 -276 501 -155 c 2,12,-1
 501 -16 l 1,13,14
 308.403425656 -11.945335277 308.403425656 -11.945335277 185.201712828 112.309383644 c 128,-1,15
 62 236.564102564 62 236.564102564 62 441.459470637 c 128,-1,16
 62 646.35483871 62 646.35483871 190.178225395 762.128719712 c 128,-1,17
 318.35645079 877.902600714 318.35645079 877.902600714 497 898 c 1,18,-1
 497 1138 l 2,19,20
 497 1178 497 1178 510.5 1196.5 c 128,-1,21
 524 1215 524 1215 534 1215 c 128,-1,22
 544 1215 544 1215 559.571917808 1206.40410959 c 128,-1,23
 575.143835616 1197.80821918 575.143835616 1197.80821918 584.571917808 1185.23744292 c 128,-1,24
 594 1172.66666667 594 1172.66666667 594 1122 c 2,25,-1
 594 901 l 1,26,27
 782.020520916 891.10418311 782.020520916 891.10418311 850 784.5 c 0,28,29
 872 750 872 750 872 716 c 0,30,31
 872 659.4375 872 659.4375 837.884615385 631.71875 c 128,-1,32
 803.769230769 604 803.769230769 604 765.884615385 604 c 128,-1,33
 728 604 728 604 701.5 625.5 c 128,-1,34
 675 647 675 647 675 681.5 c 128,-1,35
 675 716 675 716 685 736.5 c 128,-1,36
 695 757 695 757 695 780.5 c 128,-1,37
 695 804 695 804 666.5 823 c 128,-1,38
 638 842 638 842 594 847 c 1,39,-1
 594 95 l 1,40,41
 697.551724138 98.1379310345 697.551724138 98.1379310345 829 131 c 1,42,43
 841 131 841 131 841 119 c 1,0,-1
268 472 m 0,44,45
 268 315 268 315 325.5 217.5 c 128,-1,46
 383 120 383 120 498 100 c 1,47,-1
 498 837 l 1,48,49
 342.812967581 792.66084788 342.812967581 792.66084788 288 620 c 0,50,51
 268 557 268 557 268 472 c 0,44,45
EndSplineSet
EndChar

StartChar: ring
Encoding: 730 730 159
Width: 702
Flags: W
HStem: 51 80<268.739 440.765> 358 80<275.284 441.519>
VStem: 153 84<161.652 330.155> 471 82<160.312 328.276>
LayerCount: 2
Fore
SplineSet
212.805555556 379.281818182 m 128,-1,1
 272.611111111 438 272.611111111 438 354 438 c 256,2,3
 436.611111111 438 436.611111111 438 494.805555556 378.70754717 c 128,-1,4
 553 319.41509434 553 319.41509434 553 244 c 256,5,6
 553 168.58490566 553 168.58490566 495.296296296 109.79245283 c 128,-1,7
 437.592592593 51 437.592592593 51 354 51 c 256,8,9
 269.566037736 51 269.566037736 51 211.283018868 108.203703704 c 128,-1,10
 153 165.407407407 153 165.407407407 153 242.985521886 c 128,-1,0
 153 320.563636364 153 320.563636364 212.805555556 379.281818182 c 128,-1,1
271.290322581 164.21875 m 128,-1,12
 305.580645161 131 305.580645161 131 354 131 c 256,13,14
 402 131 402 131 436.5 165.5 c 128,-1,15
 471 200 471 200 471 245 c 256,16,17
 471 289 471 289 436.5 323.5 c 128,-1,18
 402 358 402 358 354 358 c 256,19,20
 306 358 306 358 280.5 332.5 c 0,21,22
 237 289 237 289 237 243.21875 c 128,-1,11
 237 197.4375 237 197.4375 271.290322581 164.21875 c 128,-1,12
EndSplineSet
EndChar

StartChar: tilde
Encoding: 732 732 166
Width: 1707
Flags: W
HStem: 54 142<817.747 1024.86> 142 127<605.979 818.797>
VStem: 546 540
LayerCount: 2
Fore
SplineSet
594 71 m 1,0,-1
 546 71 l 1,1,2
 551.492270138 230.275834011 551.492270138 230.275834011 622.5 260 c 0,3,4
 644 269 644 269 673 269 c 0,5,6
 712.111111111 269 712.111111111 269 813.5 232.5 c 128,-1,7
 914.888888889 196 914.888888889 196 960.733918129 196 c 128,-1,8
 1006.57894737 196 1006.57894737 196 1037 264 c 1,9,-1
 1086 264 l 1,10,11
 1080.21238938 146.318584071 1080.21238938 146.318584071 1056.10619469 110.159292035 c 128,-1,12
 1032 74 1032 74 1011.5 64 c 128,-1,13
 991 54 991 54 962.5 54 c 0,14,15
 922.818181818 54 922.818181818 54 818.818181818 98 c 128,-1,16
 714.818181818 142 714.818181818 142 666.834090909 142 c 128,-1,17
 618.85 142 618.85 142 594 71 c 1,0,-1
EndSplineSet
EndChar

StartChar: copyright
Encoding: 169 169 168
Width: 1442
Flags: W
HStem: -28 70<550.773 943.135> 161 95<608.597 935.171> 243.959 56.041<986.571 1035.27> 994 45<634.401 874.273> 1134 70<509.399 921.37>
VStem: 76 128<379.086 817.961> 299 153<425.018 797.875> 997.5 39.5<804.015 853.376> 1250 115<345.487 803.711>
LayerCount: 2
Fore
SplineSet
204 620 m 0,0,1
 204 507 204 507 241 398 c 128,-1,2
 278 289 278 289 349 210 c 0,3,4
 499.987341772 42 499.987341772 42 764 42 c 0,5,6
 966.264705882 42 966.264705882 42 1108.13235294 188.166666667 c 128,-1,7
 1250 334.333333333 1250 334.333333333 1250 546 c 0,8,9
 1250 798.5 1250 798.5 1110.38198758 966.25 c 128,-1,10
 970.763975155 1134 970.763975155 1134 722.874741201 1134 c 128,-1,11
 474.985507246 1134 474.985507246 1134 339.492753623 987.921875 c 128,-1,12
 204 841.84375 204 841.84375 204 620 c 0,0,1
76 588.5 m 0,13,14
 76 772.422222222 76 772.422222222 173 919 c 0,15,16
 260.672775276 1051.48330486 260.672775276 1051.48330486 410.05556572 1127.74165243 c 128,-1,17
 559.438356164 1204 559.438356164 1204 721 1204 c 0,18,19
 971.59223301 1204 971.59223301 1204 1160 1047.5 c 0,20,21
 1365 877.217741935 1365 877.217741935 1365 568 c 0,22,23
 1365 446 1365 446 1314.5 331.5 c 128,-1,24
 1264 217 1264 217 1176.5 137 c 0,25,26
 996.03125 -28 996.03125 -28 733.770341981 -28 c 128,-1,27
 471.509433962 -28 471.509433962 -28 273.754716981 141.048387097 c 128,-1,28
 76 310.096774194 76 310.096774194 76 588.5 c 0,13,14
1037 807 m 1,29,30
 1025 804 1025 804 1016.5 804 c 128,-1,31
 1008 804 1008 804 997.5 819 c 128,-1,32
 987 834 987 834 977.5 854 c 128,-1,33
 968 874 968 874 960 893.5 c 128,-1,34
 952 913 952 913 945 923 c 1,35,36
 885.210526316 994 885.210526316 994 732 994 c 0,37,38
 614.298969072 994 614.298969072 994 533.149484536 889.046666667 c 128,-1,39
 452 784.093333333 452 784.093333333 452 622.38 c 128,-1,40
 452 460.666666667 452 460.666666667 539.714285714 358.333333333 c 128,-1,41
 627.428571429 256 627.428571429 256 775 256 c 0,42,43
 885.823529412 256 885.823529412 256 940.411764706 272 c 2,44,-1
 1035 300 l 1,45,46
 1044 300 1044 300 1044 287 c 256,47,48
 1044 273.918032787 1044 273.918032787 1001.5 243.959016393 c 128,-1,49
 959 214 959 214 896.363636364 187.5 c 128,-1,50
 833.727272727 161 833.727272727 161 737.863636364 161 c 0,51,52
 545.631578947 161 545.631578947 161 422.315789474 281.153846154 c 128,-1,53
 299 401.307692308 299 401.307692308 299 599.115086464 c 128,-1,54
 299 796.92248062 299 796.92248062 437.17699115 917.96124031 c 128,-1,55
 575.353982301 1039 575.353982301 1039 754 1039 c 0,56,57
 853.736842105 1039 853.736842105 1039 1017 992 c 1,58,-1
 1037 807 l 1,29,30
EndSplineSet
EndChar

StartChar: ogonek
Encoding: 731 731 169
Width: 702
Flags: W
HStem: -382 137<352.697 529.012>
VStem: 203 132<-231.943 -96.0845>
LayerCount: 2
Fore
SplineSet
531 -349 m 1,0,1
 465 -382 465 -382 411.5 -382 c 0,2,3
 316.4 -382 316.4 -382 259.7 -334.75 c 128,-1,4
 203 -287.5 203 -287.5 203 -204 c 0,5,6
 203 -95.5 203 -95.5 352 -21 c 0,7,8
 417 12 417 12 501 33 c 1,9,-1
 501 -4 l 1,10,11
 454 -23 454 -23 420 -45 c 0,12,13
 335 -100 335 -100 335 -155.5 c 128,-1,14
 335 -211 335 -211 361.5 -228 c 128,-1,15
 388 -245 388 -245 428.75 -245 c 128,-1,16
 469.5 -245 469.5 -245 531 -204 c 1,17,-1
 531 -349 l 1,0,1
EndSplineSet
EndChar

StartChar: registered
Encoding: 174 174 178
Width: 1442
Flags: W
HStem: -28 70<550.773 943.135> 218 31<378.281 472.59 693 749.367 1018.25 1095.54> 618 26<636 703.002> 956 40<636 818.245> 1134 70<509.399 921.37>
VStem: 76 128<379.086 817.961> 494 142<266.286 618 644 944.014> 911 143<693.218 909.395> 1250 115<345.487 803.711>
LayerCount: 2
Fore
SplineSet
204 620 m 0,0,1
 204 507 204 507 241 398 c 128,-1,2
 278 289 278 289 349 210 c 0,3,4
 499.987341772 42 499.987341772 42 764 42 c 0,5,6
 966.264705882 42 966.264705882 42 1108.13235294 188.166666667 c 128,-1,7
 1250 334.333333333 1250 334.333333333 1250 546 c 0,8,9
 1250 798.5 1250 798.5 1110.38198758 966.25 c 128,-1,10
 970.763975155 1134 970.763975155 1134 722.874741201 1134 c 128,-1,11
 474.985507246 1134 474.985507246 1134 339.492753623 987.921875 c 128,-1,12
 204 841.84375 204 841.84375 204 620 c 0,0,1
76 588.5 m 0,13,14
 76 772.422222222 76 772.422222222 173 919 c 0,15,16
 260.672775276 1051.48330486 260.672775276 1051.48330486 410.05556572 1127.74165243 c 128,-1,17
 559.438356164 1204 559.438356164 1204 721 1204 c 0,18,19
 971.59223301 1204 971.59223301 1204 1160 1047.5 c 0,20,21
 1365 877.217741935 1365 877.217741935 1365 568 c 0,22,23
 1365 446 1365 446 1314.5 331.5 c 128,-1,24
 1264 217 1264 217 1176.5 137 c 0,25,26
 996.03125 -28 996.03125 -28 733.770341981 -28 c 128,-1,27
 471.509433962 -28 471.509433962 -28 273.754716981 141.048387097 c 128,-1,28
 76 310.096774194 76 310.096774194 76 588.5 c 0,13,14
379 985 m 0,29,30
 379 988.5 379 988.5 382 996 c 1,31,-1
 635 996 l 2,32,33
 970.096774194 996 970.096774194 996 1037 874 c 0,34,35
 1054 843 1054 843 1054 798.5 c 0,36,37
 1054 715.582089552 1054 715.582089552 985.104950495 670.33757943 c 128,-1,38
 916.20990099 625.093069307 916.20990099 625.093069307 824 618 c 1,39,-1
 1016 268 l 2,40,41
 1020 259 1020 259 1034.5 258 c 128,-1,42
 1049 257 1049 257 1064 255.5 c 0,43,44
 1103 251.6 1103 251.6 1103 218 c 1,45,-1
 886 218 l 1,46,47
 747.792079208 492.321782178 747.792079208 492.321782178 705 610 c 1,48,-1
 636 618 l 1,49,-1
 636 300 l 2,50,51
 636 274 636 274 654 265 c 128,-1,52
 672 256 672 256 693 252.5 c 2,53,-1
 732 246 l 2,54,55
 750 243 750 243 750 229 c 0,56,57
 750 227 750 227 750 225 c 128,-1,58
 750 223 750 223 748 218 c 1,59,-1
 382 218 l 1,60,61
 378 222 378 222 378 230 c 0,62,63
 378 246 378 246 396 249 c 128,-1,64
 414 252 414 252 436 254.5 c 128,-1,65
 458 257 458 257 476 266 c 128,-1,66
 494 275 494 275 494 303 c 2,67,-1
 494 892 l 2,68,69
 494 930.279069767 494 930.279069767 436.5 949 c 0,70,71
 415 956 415 956 397 963 c 128,-1,72
 379 970 379 970 379 985 c 0,29,30
636 644 m 1,73,74
 791.933250927 650.237330037 791.933250927 650.237330037 836.966625464 674.118665019 c 128,-1,75
 882 698 882 698 896.5 727.5 c 128,-1,76
 911 757 911 757 911 805.5 c 0,77,78
 911 896.465753425 911 896.465753425 834.5 930 c 0,79,80
 775.1875 956 775.1875 956 636 956 c 1,81,-1
 636 644 l 1,73,74
EndSplineSet
EndChar

StartChar: uni00B5
Encoding: 181 181 179
AltUni2: 0003bc.ffffffff.0
Width: 1325
Flags: W
HStem: -17 83<519.621 745.852> 860 20G<401.5 454 1033.5 1086>
VStem: 248 206<162.476 779.623> 248 172<-310.977 -1.78125> 880 206<157.499 779.279>
LayerCount: 2
Fore
SplineSet
883 136 m 1,0,1
 751.857142857 -17 751.857142857 -17 575 -17 c 0,2,3
 421.230769231 -17 421.230769231 -17 340 159 c 1,4,-1
 404 -135 l 2,5,6
 420 -207.888888889 420 -207.888888889 420 -251.444444444 c 0,7,8
 420 -321.058823529 420 -321.058823529 403.795454545 -342.029411765 c 128,-1,9
 387.590909091 -363 387.590909091 -363 359.295454545 -363 c 0,10,11
 302.307692308 -363 302.307692308 -363 275.153846154 -312.571428571 c 128,-1,12
 248 -262.142857143 248 -262.142857143 248 -135 c 2,13,-1
 248 721 l 2,14,15
 248 774 248 774 162.5 793 c 2,16,-1
 121 802.5 l 2,17,18
 77 812.921052632 77 812.921052632 77 832 c 0,19,20
 77 837 77 837 80 849 c 1,21,22
 108 851 108 851 136.5 853.5 c 2,23,-1
 267 865 l 2,24,25
 349 872 349 872 454 880 c 1,26,-1
 454 388 l 2,27,28
 454 127.793103448 454 127.793103448 553 80 c 0,29,30
 582 66 582 66 615 66 c 256,31,32
 724.226415094 66 724.226415094 66 820.5 144.5 c 0,33,34
 853 171 853 171 880 208 c 1,35,-1
 880 724 l 2,36,37
 880 774.47826087 880 774.47826087 793 791.5 c 128,-1,38
 706 808.52173913 706 808.52173913 706 834 c 2,39,-1
 706 838 l 2,40,41
 706 841.5 706 841.5 709 849 c 1,42,-1
 768.5 854 l 2,43,44
 795 856 795 856 829 859 c 2,45,-1
 898 865 l 2,46,47
 981 872 981 872 1086 880 c 1,48,-1
 1086 142 l 2,49,50
 1086 92.4782608696 1086 92.4782608696 1174 81 c 128,-1,51
 1262 69.5217391304 1262 69.5217391304 1262 50 c 0,52,53
 1262 45 1262 45 1257 32 c 1,54,-1
 903 -18 l 1,55,-1
 883 136 l 1,0,1
EndSplineSet
EndChar

StartChar: caron
Encoding: 711 711 180
Width: 1500
Flags: W
HStem: 79.0701 490.93
VStem: 474 545<529 570>
LayerCount: 2
Fore
SplineSet
976 570 m 0,0,1
 1019 570 1019 570 1019 538 c 0,2,3
 1019 524.4 1019 524.4 1002 489.2 c 0,4,5
 827.645533141 143.155619597 827.645533141 143.155619597 818.822766571 124.077809798 c 0,6,7
 798.503248922 80.1401299569 798.503248922 80.1401299569 750.612735572 79.0700649784 c 128,-1,8
 702.722222222 78 702.722222222 78 674 125 c 1,9,10
 484.087215064 500.17938553 484.087215064 500.17938553 479.043607532 514.589692765 c 128,-1,11
 474 529 474 529 474 538 c 0,12,13
 474 570 474 570 509.7 570 c 128,-1,14
 545.4 570 545.4 570 577.5 516.5 c 0,15,16
 585 504 585 504 592 495 c 258,17,-1
 747 271 l 1,18,-1
 885.5 471.5 l 2,19,20
 896 486 896 486 901.5 494.5 c 2,21,-1
 915.5 516 l 2,22,23
 950.807692308 570 950.807692308 570 976 570 c 0,0,1
EndSplineSet
EndChar

StartChar: exclam
Encoding: 33 33 182
Width: 525
Flags: W
HStem: -29 245<177.098 340.469> 1156 20G<195 292.5>
VStem: 141 245<7.09766 178.259 747.072 1143>
LayerCount: 2
Fore
SplineSet
132 1065 m 0,0,1
 132 1176 132 1176 258 1176 c 0,2,3
 327 1176 327 1176 357.5 1144 c 128,-1,4
 388 1112 388 1112 388 1063 c 0,5,6
 388 1053 388 1053 386 1035 c 2,7,-1
 361 872 l 2,8,9
 355 830 355 830 324.853612167 645.870722433 c 128,-1,10
 294.707224335 461.741444867 294.707224335 461.741444867 284.5 383 c 0,11,12
 281 356 281 356 262 356 c 128,-1,13
 242.869565217 356 242.869565217 356 238.434782609 373 c 128,-1,14
 234 390 234 390 232 407.5 c 2,15,-1
 227 450 l 1,16,17
 219 508 219 508 209 569.5 c 2,18,-1
 190 688 l 2,19,20
 181 745 181 745 172.5 793.5 c 128,-1,21
 164 842 164 842 159 875 c 2,22,-1
 135 1026 l 2,23,24
 132 1047 132 1047 132 1065 c 0,0,1
141 92 m 256,25,26
 141 142.8125 141 142.8125 175.441176471 179.40625 c 128,-1,27
 209.882352941 216 209.882352941 216 262 216 c 256,28,29
 315.558823529 216 315.558823529 216 341.279411765 189.5 c 0,30,31
 386 143.424242424 386 143.424242424 386 92 c 256,32,33
 386 40.4242424242 386 40.4242424242 350.203125 5.71212121212 c 128,-1,34
 314.40625 -29 314.40625 -29 262 -29 c 256,35,36
 211 -29 211 -29 176 6 c 128,-1,37
 141 41 141 41 141 92 c 256,25,26
EndSplineSet
EndChar

StartChar: minus
Encoding: 8722 8722 184
Width: 849
Flags: W
HStem: 395 92<134.5 709.434>
VStem: 134 582<403.597 459.202>
LayerCount: 2
Fore
SplineSet
581 487 m 2,0,1
 692.631578947 487 692.631578947 487 710 459.5 c 0,2,3
 716 450 716 450 716 436 c 0,4,5
 716 407.933333333 716 407.933333333 691.75 401.466666667 c 128,-1,6
 667.5 395 667.5 395 581 395 c 2,7,-1
 269 395 l 2,8,9
 184 395 184 395 159 403.333333333 c 128,-1,10
 134 411.666666667 134 411.666666667 134 433.333333333 c 0,11,12
 134 467.827586207 134 467.827586207 159.272727273 477.413793103 c 128,-1,13
 184.545454545 487 184.545454545 487 266 487 c 2,14,-1
 581 487 l 2,0,1
EndSplineSet
EndChar

StartChar: hyphen
Encoding: 45 45 185
Width: 803
Flags: W
HStem: 395 92<129 694>
VStem: 129 565<395 487>
LayerCount: 2
Fore
SplineSet
694 395 m 1,0,-1
 129 395 l 1,1,-1
 129 487 l 1,2,-1
 694 487 l 1,3,-1
 694 395 l 1,0,-1
EndSplineSet
EndChar

StartChar: periodcentered
Encoding: 183 183 186
Width: 498
Flags: W
HStem: 607 296<142.184 355.589>
VStem: 96 306<653.462 857.991>
LayerCount: 2
Fore
SplineSet
141 858 m 128,-1,1
 186 903 186 903 249 903 c 256,2,3
 312 903 312 903 357 858 c 128,-1,4
 402 813 402 813 402 755 c 256,5,6
 402 698.585365854 402 698.585365854 357.297619048 652.792682927 c 128,-1,7
 312.595238095 607 312.595238095 607 249 607 c 256,8,9
 185.56097561 607 185.56097561 607 140.780487805 650.714285714 c 128,-1,10
 96 694.428571429 96 694.428571429 96 753.714285714 c 128,-1,0
 96 813 96 813 141 858 c 128,-1,1
EndSplineSet
EndChar

StartChar: degree
Encoding: 176 176 187
Width: 550
Flags: W
HStem: 791 80<190.739 362.765> 1098 80<197.284 363.519>
VStem: 75 84<901.652 1070.15> 393 82<900.312 1068.28>
LayerCount: 2
Fore
SplineSet
134.805555556 1119.28181818 m 128,-1,1
 194.611111111 1178 194.611111111 1178 276 1178 c 256,2,3
 358.611111111 1178 358.611111111 1178 416.805555556 1118.70754717 c 128,-1,4
 475 1059.41509434 475 1059.41509434 475 984 c 256,5,6
 475 908.58490566 475 908.58490566 417.296296296 849.79245283 c 128,-1,7
 359.592592593 791 359.592592593 791 276 791 c 256,8,9
 191.566037736 791 191.566037736 791 133.283018868 848.203703704 c 128,-1,10
 75 905.407407407 75 905.407407407 75 982.985521886 c 128,-1,0
 75 1060.56363636 75 1060.56363636 134.805555556 1119.28181818 c 128,-1,1
193.290322581 904.21875 m 128,-1,12
 227.580645161 871 227.580645161 871 276 871 c 256,13,14
 324 871 324 871 358.5 905.5 c 128,-1,15
 393 940 393 940 393 985 c 256,16,17
 393 1029 393 1029 358.5 1063.5 c 128,-1,18
 324 1098 324 1098 276 1098 c 256,19,20
 228 1098 228 1098 202.5 1072.5 c 0,21,22
 159 1029 159 1029 159 983.21875 c 128,-1,11
 159 937.4375 159 937.4375 193.290322581 904.21875 c 128,-1,12
EndSplineSet
EndChar

StartChar: multiply
Encoding: 215 215 192
Width: 736
Flags: W
HStem: 282 540<150 179 558 586.571>
VStem: 285 167<471.5 638.5>
DStem2: 131 401 217 320 0.708019 0.706194<-57.9288 217.234 336.028 605.342> 218 788 135 705 0.708019 -0.706194<-60.1756 211.98 330.22 604.291>
LayerCount: 2
Fore
SplineSet
368 638 m 1,0,-1
 519 788 l 2,1,2
 553 822 553 822 566.5 822 c 0,3,4
 586.571428571 822 586.571428571 822 614.285714286 796.695652174 c 128,-1,5
 642 771.391304348 642 771.391304348 642 757.243271222 c 128,-1,6
 642 743.095238095 642 743.095238095 602 705 c 1,7,-1
 452 555 l 1,8,-1
 606 401 l 2,9,10
 640 367 640 367 640 355 c 0,11,12
 640 335 640 335 613.5 308.5 c 128,-1,13
 587 282 587 282 572.5 282 c 128,-1,14
 558 282 558 282 520 320 c 2,15,-1
 368 471 l 1,16,-1
 217 320 l 2,17,18
 179 282 179 282 167.5 282 c 0,19,20
 150 282 150 282 123.5 308.5 c 128,-1,21
 97 335 97 335 97 351 c 128,-1,22
 97 367 97 367 131 401 c 2,23,-1
 285 555 l 1,24,-1
 135 705 l 1,25,26
 95 743.095238095 95 743.095238095 95 753.547619048 c 0,27,28
 95 770.727272727 95 770.727272727 121.857142857 796.363636364 c 128,-1,29
 148.714285714 822 148.714285714 822 166.357142857 822 c 128,-1,30
 184 822 184 822 218 788 c 2,31,-1
 368 638 l 1,0,-1
EndSplineSet
EndChar

StartChar: parenleft
Encoding: 40 40 193
Width: 551
Flags: W
HStem: -120 73<454.705 543.916> 1319 73<454.649 543.916>
VStem: 82 137<311.188 961.044>
LayerCount: 2
Fore
SplineSet
514 -120 m 0,0,1
 508 -120 508 -120 504 -119 c 0,2,3
 300.975206612 -69.6939787485 300.975206612 -69.6939787485 191.487603306 146.153010626 c 128,-1,4
 82 362 82 362 82 636 c 256,5,6
 82 908 82 908 191.363405922 1125.16447747 c 128,-1,7
 300.726811845 1342.32895495 300.726811845 1342.32895495 504 1391 c 0,8,9
 508 1392 508 1392 514 1392 c 0,10,11
 544 1392 544 1392 544 1358.80769231 c 128,-1,12
 544 1325.61538462 544 1325.61538462 522.5 1319 c 0,13,14
 448.374624625 1296.19219219 448.374624625 1296.19219219 388.187312312 1221.0960961 c 0,15,16
 219 1010 219 1010 219 636 c 256,17,18
 219 262 219 262 382.5 58 c 0,19,20
 448.374624625 -24.1921921922 448.374624625 -24.1921921922 522.5 -47 c 0,21,22
 544 -53.6153846154 544 -53.6153846154 544 -86.8076923077 c 128,-1,23
 544 -120 544 -120 514 -120 c 0,0,1
EndSplineSet
EndChar

StartChar: parenright
Encoding: 41 41 194
Width: 551
Flags: W
HStem: -120 73<7.08398 96.2947> 1319 73<7.08398 95.8335>
VStem: 332 137<310.356 958.879>
LayerCount: 2
Fore
SplineSet
37 1392 m 0,0,1
 43 1392 43 1392 47 1391 c 0,2,3
 314.965616046 1325.9226361 314.965616046 1325.9226361 422.5 969 c 0,4,5
 469 814.659574468 469 814.659574468 469 636 c 256,6,7
 469 362 469 362 359.512396694 146.153010626 c 128,-1,8
 250.024793388 -69.6939787485 250.024793388 -69.6939787485 47 -119 c 0,9,10
 43 -120 43 -120 37 -120 c 0,11,12
 7 -120 7 -120 7 -86.8076923077 c 128,-1,13
 7 -53.6153846154 7 -53.6153846154 28.5 -47 c 0,14,15
 102.625375375 -24.1921921922 102.625375375 -24.1921921922 162.812687688 50.9039039039 c 0,16,17
 332 262 332 262 332 636 c 256,18,19
 332 1010 332 1010 168.5 1214 c 0,20,21
 102.625375375 1296.19219219 102.625375375 1296.19219219 28.5 1319 c 0,22,23
 7 1325.61538462 7 1325.61538462 7 1358.80769231 c 128,-1,24
 7 1392 7 1392 37 1392 c 0,0,1
EndSplineSet
EndChar

StartChar: zero
Encoding: 48 48 195
Width: 1176
Flags: W
HStem: -15 81<493.494 725.634> 1140 62<468.979 668.161>
VStem: 92 216<321.062 838.077> 870 214<334.163 858.024>
LayerCount: 2
Fore
SplineSet
557.5 1140 m 0,0,1
 501 1140 501 1140 453.5 1096.5 c 128,-1,2
 406 1053 406 1053 373.5 981.5 c 0,3,4
 308 837.4 308 837.4 308 619.433766234 c 128,-1,5
 308 401.467532468 308 401.467532468 384.5 243.5 c 0,6,7
 470.459119497 66 470.459119497 66 619 66 c 0,8,9
 739.52238806 66 739.52238806 66 804.76119403 207 c 128,-1,10
 870 348 870 348 870 561.764705882 c 128,-1,11
 870 775.529411765 870 775.529411765 788.473684211 957.764705882 c 128,-1,12
 706.947368421 1140 706.947368421 1140 557.5 1140 c 0,0,1
552.5 -15 m 0,13,14
 450 -13 450 -13 361 38 c 128,-1,15
 272 89 272 89 212 170 c 0,16,17
 92 332 92 332 92 576 c 128,-1,18
 92 820 92 820 226.173553719 1011 c 128,-1,19
 360.347107438 1202 360.347107438 1202 591.978942941 1202 c 128,-1,20
 823.610778443 1202 823.610778443 1202 953.805389222 1025.23170732 c 128,-1,21
 1084 848.463414634 1084 848.463414634 1084 602.531707317 c 128,-1,22
 1084 356.6 1084 356.6 957.5 179.5 c 0,23,24
 814.914089347 -20.1202749141 814.914089347 -20.1202749141 552.5 -15 c 0,13,14
EndSplineSet
Substitution2: "'onum' Oldstyle Figures in Latin lookup 0 subtable" zero.old
EndChar

StartChar: one
Encoding: 49 49 196
Width: 715
Flags: W
HStem: 0 48.5<71.1406 231.133>
VStem: 270 193<69.9743 990.96>
LayerCount: 2
Fore
SplineSet
463 129 m 2,0,1
 463 62.7358490566 463 62.7358490566 565.5 55 c 128,-1,2
 668 47.2641509434 668 47.2641509434 668 25 c 0,3,4
 668 15 668 15 663 0 c 1,5,-1
 75 0 l 1,6,7
 71 13 71 13 71 22.5 c 128,-1,8
 71 32 71 32 85.5 38.5 c 128,-1,9
 100 45 100 45 122.5 48.5 c 128,-1,10
 145 52 145 52 170.5 55.5 c 0,11,12
 270 69.1568627451 270 69.1568627451 270 130 c 2,13,-1
 270 930 l 2,14,15
 270 991.615384615 270 991.615384615 170 1007 c 128,-1,16
 70 1022.38461538 70 1022.38461538 70 1048 c 0,17,18
 70 1054 70 1054 75 1066 c 1,19,-1
 441 1172 l 2,20,21
 444 1173 444 1173 449 1173 c 0,22,23
 463 1173 463 1173 463 1159 c 2,24,-1
 463 129 l 2,0,1
EndSplineSet
Substitution2: "'onum' Oldstyle Figures in Latin lookup 0 subtable" one.old
EndChar

StartChar: plus
Encoding: 43 43 197
Width: 743
Flags: W
HStem: 395 103<71.5815 320 423 673.493>
VStem: 320 103<143.507 395 498 745.419>
LayerCount: 2
Fore
SplineSet
423 498 m 1,0,-1
 553 498 l 2,1,2
 662.285714286 498 662.285714286 498 671 467.5 c 0,3,4
 674 457 674 457 674 441 c 0,5,6
 674 407.875 674 407.875 656.833333333 401.4375 c 128,-1,7
 639.666666667 395 639.666666667 395 553 395 c 2,8,-1
 423 395 l 1,9,-1
 423 264 l 2,10,11
 423 154.714285714 423 154.714285714 392.5 146 c 0,12,13
 382 143 382 143 366 143 c 0,14,15
 332.875 143 332.875 143 326.4375 160.166666667 c 128,-1,16
 320 177.333333333 320 177.333333333 320 264 c 2,17,-1
 320 395 l 1,18,-1
 190 395 l 2,19,20
 106.727272727 395 106.727272727 395 90.3636363636 402.5 c 128,-1,21
 74 410 74 410 71.5 420 c 128,-1,22
 69 430 69 430 69 446.5 c 0,23,24
 69 479.608695652 69 479.608695652 88.2272727273 488.804347826 c 128,-1,25
 107.454545455 498 107.454545455 498 187 498 c 2,26,-1
 320 498 l 1,27,-1
 320 627 l 2,28,29
 320 712.454545455 320 712.454545455 327 727.727272727 c 128,-1,30
 334 743 334 743 344.5 745.5 c 128,-1,31
 355 748 355 748 371.5 748 c 0,32,33
 404.608695652 748 404.608695652 748 413.804347826 728.772727273 c 128,-1,34
 423 709.545454545 423 709.545454545 423 630 c 2,35,-1
 423 498 l 1,0,-1
EndSplineSet
EndChar

StartChar: eight
Encoding: 56 56 198
Width: 1023
Flags: W
HStem: -28 69<339.22 645.252> 1144 63<386.044 654.028>
VStem: 88 132<135.041 381.16> 143 178<877.354 1079.27> 719 128<862.986 1093.92> 741 200<124.903 386.852>
LayerCount: 2
Fore
SplineSet
157.508998875 457.956160885 m 128,-1,1
 227.01799775 536.858267717 227.01799775 536.858267717 355 623 c 1,2,3
 256.835521769 695.454733932 256.835521769 695.454733932 216.917760885 748.227366966 c 0,4,5
 143 845.949152542 143 845.949152542 143 952.354784605 c 128,-1,6
 143 1058.76041667 143 1058.76041667 243.218309859 1132.88020833 c 128,-1,7
 343.436619718 1207 343.436619718 1207 514.418309859 1207 c 128,-1,8
 685.4 1207 685.4 1207 766.2 1133.54545455 c 128,-1,9
 847 1060.09090909 847 1060.09090909 847 972 c 0,10,11
 847 842.643835616 847 842.643835616 726.5 737 c 0,12,13
 690 705 690 705 648 673 c 1,14,15
 786.819672131 586.237704918 786.819672131 586.237704918 838.909836066 524.618852459 c 0,16,17
 941 403.853658537 941 403.853658537 941 264 c 0,18,19
 941 67.5348837209 941 67.5348837209 711 -2 c 0,20,21
 625 -28 625 -28 513.5 -28 c 128,-1,22
 402 -28 402 -28 327 -4.5 c 128,-1,23
 252 19 252 19 198.5 60.5 c 0,24,25
 88 146.214953271 88 146.214953271 88 262.634503663 c 128,-1,0
 88 379.054054054 88 379.054054054 157.508998875 457.956160885 c 128,-1,1
741 277 m 256,26,27
 741 377.114942529 741 377.114942529 591.5 478.5 c 1,28,-1
 480 552 l 1,29,-1
 381 486.5 l 1,30,31
 220 375.170212766 220 375.170212766 220 272.085106383 c 128,-1,32
 220 169 220 169 293.5 105 c 128,-1,33
 367 41 367 41 499.352941176 41 c 128,-1,34
 631.705882353 41 631.705882353 41 686.352941176 111.113207547 c 128,-1,35
 741 181.226415094 741 181.226415094 741 277 c 256,26,27
719 978 m 0,36,37
 719 1144 719 1144 522 1144 c 0,38,39
 425 1144 425 1144 373 1105 c 128,-1,40
 321 1066 321 1066 321 1011 c 0,41,42
 321 922.137931034 321 922.137931034 376.436685289 864.789635908 c 128,-1,43
 431.873370577 807.441340782 431.873370577 807.441340782 532 746 c 1,44,45
 626.102105263 807.275789474 626.102105263 807.275789474 659.551052632 844.137894737 c 0,46,47
 719 909.653061224 719 909.653061224 719 978 c 0,36,37
EndSplineSet
Substitution2: "'onum' Oldstyle Figures in Latin lookup 0 subtable" eight.old
EndChar

StartChar: percent
Encoding: 37 37 199
Width: 1662
Flags: W
HStem: -15.5672 72.5672<1201.5 1374.17> 407.433 72.5672<312.505 485.17> 715 64<1188.48 1340.12> 1138 64<299.479 451.123>
VStem: 61 153<606.837 1022.07> 435 147<-217.858 -47.25> 557 152<581.908 1000.23> 950 153<183.837 599.068> 1024 160<1298.34 1353.48> 1446 152<158.908 577.229>
DStem2: 444 -120 1161.5 1211 0.40395 0.914781<261.888 1623.01>
LayerCount: 2
Fore
SplineSet
958 1044 m 2,0,1
 1005.15337423 1148.78527607 1005.15337423 1148.78527607 1024 1276 c 0,2,3
 1036.28571429 1362 1036.28571429 1362 1108 1362 c 256,4,5
 1176.7826087 1362 1176.7826087 1362 1184 1320.5 c 0,6,7
 1186 1309 1186 1309 1186 1298 c 2,8,-1
 1186 1276 l 2,9,10
 1186 1263 1186 1263 1161.5 1211 c 0,11,12
 947.798107256 764.684542587 947.798107256 764.684542587 830.09613392 494.405937149 c 128,-1,13
 712.394160584 224.127331711 712.394160584 224.127331711 582 -158 c 0,14,15
 555 -239 555 -239 487.78125 -239 c 0,16,17
 462 -239 462 -239 448.5 -218.5 c 128,-1,18
 435 -198 435 -198 435 -171 c 128,-1,19
 435 -144 435 -144 444 -120 c 1,20,-1
 958 1044 l 2,0,1
255.244318182 1044.93589744 m 128,-1,22
 214 951.871794872 214 951.871794872 214 855.935897436 c 0,23,24
 214 685.957446809 214 685.957446809 263.387755102 582.978723404 c 128,-1,25
 312.775510204 480 312.775510204 480 404 480 c 0,26,27
 514.738317757 480 514.738317757 480 547.5 664.5 c 0,28,29
 557 718 557 718 557 779.5 c 128,-1,30
 557 841 557 841 545 906 c 128,-1,31
 533 971 533 971 509.5 1022.5 c 0,32,33
 456.796116505 1138 456.796116505 1138 376.642376434 1138 c 128,-1,21
 296.488636364 1138 296.488636364 1138 255.244318182 1044.93589744 c 128,-1,22
152.563095301 527.060977214 m 128,-1,35
 61 649.5 61 649.5 61 810.655063291 c 128,-1,36
 61 971.810126582 61 971.810126582 144.417431193 1086.90506329 c 128,-1,37
 227.834862385 1202 227.834862385 1202 379.290312549 1202 c 128,-1,38
 530.745762712 1202 530.745762712 1202 619.872881356 1076.79761905 c 128,-1,39
 709 951.595238095 709 951.595238095 709 792.100250627 c 128,-1,40
 709 632.605263158 709 632.605263158 629.285454545 521.424449761 c 128,-1,41
 549.570909091 410.243636364 549.570909091 410.243636364 396.848549846 407.432795396 c 128,-1,34
 244.126190601 404.621954428 244.126190601 404.621954428 152.563095301 527.060977214 c 128,-1,35
1144.24431818 621.935897436 m 128,-1,43
 1103 528.871794872 1103 528.871794872 1103 432.935897436 c 0,44,45
 1103 262.957446809 1103 262.957446809 1152.3877551 159.978723404 c 128,-1,46
 1201.7755102 57 1201.7755102 57 1293 57 c 0,47,48
 1403.73831776 57 1403.73831776 57 1436.5 241.5 c 0,49,50
 1446 295 1446 295 1446 356.5 c 128,-1,51
 1446 418 1446 418 1434 483 c 128,-1,52
 1422 548 1422 548 1398.5 599.5 c 0,53,54
 1345.7961165 715 1345.7961165 715 1265.64237643 715 c 128,-1,42
 1185.48863636 715 1185.48863636 715 1144.24431818 621.935897436 c 128,-1,43
1041.5630953 104.060977214 m 128,-1,56
 950 226.5 950 226.5 950 387.655063291 c 128,-1,57
 950 548.810126582 950 548.810126582 1033.41743119 663.905063291 c 128,-1,58
 1116.83486239 779 1116.83486239 779 1268.29031255 779 c 128,-1,59
 1419.74576271 779 1419.74576271 779 1508.87288136 653.797619048 c 128,-1,60
 1598 528.595238095 1598 528.595238095 1598 369.100250627 c 128,-1,61
 1598 209.605263158 1598 209.605263158 1518.28545455 98.4244497608 c 128,-1,62
 1438.57090909 -12.7563636364 1438.57090909 -12.7563636364 1285.84854985 -15.5672046041 c 128,-1,55
 1133.1261906 -18.3780455718 1133.1261906 -18.3780455718 1041.5630953 104.060977214 c 128,-1,56
EndSplineSet
EndChar

StartChar: numbersign
Encoding: 35 35 200
Width: 1136
Flags: W
HStem: 390 111<72.6757 252 398 643 788 1019.26> 674 111<127.676 331 478 719 869 1074.23>
VStem: 104 134<-232.284 6> 486 157<-226.344 9.6873 1147.47 1358.15> 719 117<622.331 674> 876.895 142.605<1158.36 1358.71>
DStem2: 108 -122 264 -87 0.270165 0.962814<-35.025 531.865> 283 501 398 501 0.270165 0.962814<-683.927 -115.247 31.069 179.535> 674 501 788 501 0.293439 0.955978<33.452 178.589 328.718 386.884>
LayerCount: 2
Fore
SplineSet
490 1316 m 1,0,1
 490 1362 490 1362 564.5 1362 c 128,-1,2
 639 1362 639 1362 639 1307.5 c 0,3,4
 639 1293 639 1293 640 1279.5 c 128,-1,5
 641 1266 641 1266 628.5 1231 c 2,6,-1
 543 988 l 2,7,8
 513 901 513 901 478 785 c 1,9,-1
 747 785 l 1,10,-1
 789 961.5 l 2,11,12
 808 1043 808 1043 821.5 1106.5 c 2,13,-1
 843.5 1213 l 2,14,15
 852 1256 852 1256 854.5 1273 c 0,16,17
 860.713692946 1315.25311203 860.713692946 1315.25311203 876.895308011 1338.62655602 c 128,-1,18
 893.076923077 1362 893.076923077 1362 933.538461538 1362 c 128,-1,19
 974 1362 974 1362 989 1354 c 128,-1,20
 1004 1346 1004 1346 1011 1334 c 128,-1,21
 1018 1322 1018 1322 1019.5 1307.5 c 0,22,23
 1023.51446945 1268.69346195 1023.51446945 1268.69346195 1011 1227.5 c 2,24,-1
 869 785 l 1,25,-1
 935 785 l 2,26,27
 1052.8 785 1052.8 785 1069 758 c 0,28,29
 1075 748 1075 748 1075 730.5 c 0,30,31
 1075 694.258064516 1075 694.258064516 1048.83333333 684.129032258 c 128,-1,32
 1022.66666667 674 1022.66666667 674 935 674 c 2,33,-1
 836 674 l 1,34,-1
 788 501 l 1,35,-1
 880 501 l 2,36,37
 997 501 997 501 1015 468 c 0,38,39
 1021 457 1021 457 1021 439.5 c 0,40,41
 1021 405.4375 1021 405.4375 996.3 397.71875 c 128,-1,42
 971.6 390 971.6 390 880 390 c 2,43,-1
 760 390 l 1,44,45
 686.358273381 97.8086330935 686.358273381 97.8086330935 643 -149 c 0,46,47
 626.333333333 -239 626.333333333 -239 551 -239 c 0,48,49
 528.083333333 -239 528.083333333 -239 507.041666667 -212.421052632 c 128,-1,50
 486 -185.842105263 486 -185.842105263 486 -159.921052632 c 128,-1,51
 486 -134 486 -134 490 -122 c 2,52,-1
 643 390 l 1,53,-1
 370 390 l 1,54,-1
 311 138 l 1,55,56
 281 4 281 4 264 -87 c 128,-1,57
 247 -178 247 -178 238 -195.5 c 128,-1,58
 229 -213 229 -213 213.947368421 -226 c 128,-1,59
 198.894736842 -239 198.894736842 -239 178.447368421 -239 c 0,60,61
 146.083333333 -239 146.083333333 -239 125.041666667 -212.421052632 c 128,-1,62
 104 -185.842105263 104 -185.842105263 104 -159.921052632 c 128,-1,63
 104 -134 104 -134 108 -122 c 2,64,-1
 252 390 l 1,65,-1
 208 390 l 2,66,67
 120.666666667 390 120.666666667 390 99.3333333333 398 c 128,-1,68
 78 406 78 406 72.5 417 c 128,-1,69
 67 428 67 428 67 445.5 c 0,70,71
 67 479.741935484 67 479.741935484 94.4583333333 490.370967742 c 128,-1,72
 121.916666667 501 121.916666667 501 205 501 c 2,73,-1
 283 501 l 1,74,-1
 331 674 l 1,75,-1
 263 674 l 2,76,77
 175.666666667 674 175.666666667 674 154.333333333 682 c 128,-1,78
 133 690 133 690 127.5 701 c 128,-1,79
 122 712 122 712 122 729.5 c 0,80,81
 122 763.741935484 122 763.741935484 149.458333333 774.370967742 c 128,-1,82
 176.916666667 785 176.916666667 785 260 785 c 2,83,-1
 362 785 l 1,84,-1
 445 1079 l 2,85,86
 480.647058824 1203.76470588 480.647058824 1203.76470588 490 1316 c 1,0,1
445 674 m 1,87,-1
 398 501 l 1,88,-1
 674 501 l 1,89,-1
 719 674 l 1,90,-1
 445 674 l 1,87,-1
EndSplineSet
EndChar

StartChar: asterisk
Encoding: 42 42 201
Width: 1093
Flags: W
HStem: 731 160<77.8036 143.5 949.5 1015.79> 1156 20G<510 585.135>
VStem: 469 162<692.399 1169.72> 498 93<687 1086.26>
LayerCount: 2
Fore
SplineSet
469 1087 m 0,0,1
 469 1176 469 1176 551 1176 c 256,2,3
 619.269230769 1176 619.269230769 1176 628.5 1128 c 0,4,5
 631 1115 631 1115 631 1101.5 c 128,-1,6
 631 1088 631 1088 625.5 1051.5 c 0,7,8
 595.061744966 849.500671141 595.061744966 849.500671141 591 685 c 1,9,10
 807.4265302 812.198048451 807.4265302 812.198048451 861.345171137 851.599024226 c 128,-1,11
 915.263812073 891 915.263812073 891 938.131906037 891 c 0,12,13
 975.56 891 975.56 891 1002.28 863.166666667 c 128,-1,14
 1029 835.333333333 1029 835.333333333 1029 807.666666667 c 128,-1,15
 1029 780 1029 780 1022 769.5 c 0,16,17
 1010.00729927 751.510948905 1010.00729927 751.510948905 949.5 731 c 2,18,-1
 875 705.5 l 2,19,20
 754.965831435 664.154897494 754.965831435 664.154897494 623 603 c 1,21,22
 796.797457745 414.220002794 796.797457745 414.220002794 851.898728873 366.391969576 c 128,-1,23
 907 318.563936358 907 318.563936358 907 284.435814333 c 128,-1,24
 907 250.307692308 907 250.307692308 877.2 221.653846154 c 128,-1,25
 847.4 193 847.4 193 820.2 193 c 128,-1,26
 793 193 793 193 776.5 213 c 128,-1,27
 760 233 760 233 706.666585007 326.605585497 c 128,-1,28
 653.333170015 420.211170995 653.333170015 420.211170995 546 552 c 1,29,30
 428.514910537 407.914512922 428.514910537 407.914512922 376.53747905 312.34310664 c 128,-1,31
 324.560047562 216.771700357 324.560047562 216.771700357 307.780023781 204.885850178 c 128,-1,32
 291 193 291 193 275.5 193 c 0,33,34
 245.6 193 245.6 193 215.8 221.653846154 c 128,-1,35
 186 250.307692308 186 250.307692308 186 284.582417582 c 128,-1,36
 186 318.857142857 186 318.857142857 227 354 c 1,37,38
 327.462962963 451.592592593 327.462962963 451.592592593 373.731481481 500.296296296 c 2,39,-1
 469 603 l 1,40,41
 334.138952164 665.496583144 334.138952164 665.496583144 253.569476082 693.248291572 c 2,42,-1
 143.5 731 l 2,43,44
 82.9927007299 751.510948905 82.9927007299 751.510948905 73.496350365 765.755474453 c 128,-1,45
 64 780 64 780 64 799 c 0,46,47
 64 835.333333333 64 835.333333333 90.72 863.166666667 c 128,-1,48
 117.44 891 117.44 891 147.886666667 891 c 128,-1,49
 178.333333333 891 178.333333333 891 204.666666667 871.5 c 2,50,-1
 252.5 837 l 2,51,52
 274 822 274 822 306.5 802 c 2,53,-1
 498 687 l 1,54,55
 496.156069364 860.329479769 496.156069364 860.329479769 482.578034682 962.164739884 c 128,-1,56
 469 1064 469 1064 469 1087 c 0,0,1
EndSplineSet
EndChar

StartChar: three
Encoding: 51 51 202
Width: 936
Flags: W
HStem: -28 56<267.29 510.64> 617 52<289.594 321.991> 630 63<456 522.965> 1113 94<295.01 581.528>
VStem: 45 175<66.3034 223.935> 607 154<860.527 1087.4> 651 200<167.842 517.132>
LayerCount: 2
Fore
SplineSet
465 1113 m 0,0,1
 385.810810811 1113 385.810810811 1113 312.905405405 1080.5 c 128,-1,2
 240 1048 240 1048 212.5 1030 c 128,-1,3
 185 1012 185 1012 171 1012 c 128,-1,4
 157 1012 157 1012 157 1032.5 c 128,-1,5
 157 1053 157 1053 174 1073.5 c 0,6,7
 220.769024172 1129.89794091 220.769024172 1129.89794091 308.016091033 1168.44897046 c 128,-1,8
 395.263157895 1207 395.263157895 1207 476.631578947 1207 c 0,9,10
 620.419354839 1207 620.419354839 1207 690.709677419 1142.91176471 c 128,-1,11
 761 1078.82352941 761 1078.82352941 761 978.180995475 c 128,-1,12
 761 877.538461538 761 877.538461538 677.618732782 790.950222505 c 128,-1,13
 594.237465565 704.361983471 594.237465565 704.361983471 456 693 c 1,14,-1
 477 693 l 2,15,16
 645 693 645 693 748 600.3 c 128,-1,17
 851 507.6 851 507.6 851 347.383333333 c 128,-1,18
 851 187.166666667 851 187.166666667 737.088235294 79.5833333333 c 128,-1,19
 623.176470588 -28 623.176470588 -28 420.520053476 -28 c 128,-1,20
 217.863636364 -28 217.863636364 -28 115 45 c 0,21,22
 45 94.6774193548 45 94.6774193548 45 171 c 0,23,24
 45 212.413793103 45 212.413793103 76.2166666667 244.706896552 c 128,-1,25
 107.433333333 277 107.433333333 277 137.216666667 277 c 0,26,27
 184 277 184 277 212 249 c 128,-1,28
 240 221 240 221 240 191.5 c 128,-1,29
 240 162 240 162 230 141.5 c 128,-1,30
 220 121 220 121 220 103.5 c 0,31,32
 220 72.1176470588 220 72.1176470588 276.25 50.0588235294 c 128,-1,33
 332.5 28 332.5 28 394.25 28 c 0,34,35
 516.545454545 28 516.545454545 28 583.772727273 120.4375 c 128,-1,36
 651 212.875 651 212.875 651 327 c 0,37,38
 651 533.684210526 651 533.684210526 515.5 605 c 0,39,40
 468 630 468 630 410.071428571 630 c 128,-1,41
 352.142857143 630 352.142857143 630 302 617 c 1,42,-1
 257 669 l 1,43,44
 454.693089431 735.570121951 454.693089431 735.570121951 552 846.5 c 0,45,46
 607 909.2 607 909.2 607 980 c 0,47,48
 607 1113 607 1113 465 1113 c 0,0,1
EndSplineSet
Substitution2: "'onum' Oldstyle Figures in Latin lookup 0 subtable" three.old
EndChar

StartChar: six
Encoding: 54 54 203
Width: 1050
Flags: W
HStem: -17 73<451.939 685.058> 636 63<393.116 679.776> 1196 54<650.133 734.973>
VStem: 86 211<254.151 563.657 639 738.369> 804 199<179.577 528.075>
LayerCount: 2
Fore
SplineSet
707 1250 m 0,0,1
 735 1250 735 1250 735 1222 c 0,2,3
 735 1202.66666667 735 1202.66666667 715 1196 c 1,4,5
 582.779264214 1159.93979933 582.779264214 1159.93979933 461.25056196 994.660764266 c 128,-1,6
 339.721859706 829.381729201 339.721859706 829.381729201 307 639 c 1,7,8
 467 699 467 699 586 699 c 0,9,10
 802.854166667 699 802.854166667 699 902.927083333 600.969387755 c 128,-1,11
 1003 502.93877551 1003 502.93877551 1003 351.95453627 c 128,-1,12
 1003 200.97029703 1003 200.97029703 896.131067961 91.9851485149 c 128,-1,13
 789.262135922 -17 789.262135922 -17 589 -17 c 0,14,15
 343.481481481 -17 343.481481481 -17 214.740740741 123.161290323 c 128,-1,16
 86 263.322580645 86 263.322580645 86 475 c 0,17,18
 86 737.904761905 86 737.904761905 253.5 974 c 0,19,20
 361.784401152 1126.62944162 361.784401152 1126.62944162 511.5 1200 c 0,21,22
 587 1237 587 1237 671 1246 c 0,23,24
 679 1247 679 1247 688.5 1248.5 c 128,-1,25
 698 1250 698 1250 707 1250 c 0,0,1
661 614.5 m 0,26,27
 611 636 611 636 554.5 636 c 128,-1,28
 498 636 498 636 460 627 c 128,-1,29
 422 618 422 618 390.5 606 c 128,-1,30
 359 594 359 594 335 582 c 128,-1,31
 311 570 311 570 298 564 c 1,32,33
 297 553 297 553 297 543.5 c 2,34,-1
 297 524 l 2,35,36
 297 207.45631068 297 207.45631068 445.5 95 c 0,37,38
 497 56 497 56 564 56 c 0,39,40
 682.266666667 56 682.266666667 56 743.133333333 152.105263158 c 128,-1,41
 804 248.210526316 804 248.210526316 804 364 c 0,42,43
 804 553.01 804 553.01 661 614.5 c 0,26,27
EndSplineSet
Substitution2: "'onum' Oldstyle Figures in Latin lookup 0 subtable" six.old
EndChar

